<?xml version="1.0" encoding="utf-8" standalone="no"?>
<!DOCTYPE svg PUBLIC "-//W3C//DTD SVG 1.1//EN"
  "http://www.w3.org/Graphics/SVG/1.1/DTD/svg11.dtd">
<!-- Created with matplotlib (https://matplotlib.org/) -->
<svg height="348.54674pt" version="1.1" viewBox="0 0 417.672777 348.54674" width="417.672777pt" xmlns="http://www.w3.org/2000/svg" xmlns:xlink="http://www.w3.org/1999/xlink">
 <defs>
  <style type="text/css">
*{stroke-linecap:butt;stroke-linejoin:round;}
  </style>
 </defs>
 <g id="figure_1">
  <g id="patch_1">
   <path d="M 0 348.54674 
L 417.672777 348.54674 
L 417.672777 0 
L 0 0 
z
" style="fill:#ffffff;"/>
  </g>
  <g id="axes_1">
   <g id="patch_2">
    <path d="M 50.14375 310.99049 
L 407.26375 310.99049 
L 407.26375 44.87849 
L 50.14375 44.87849 
z
" style="fill:#ffffff;"/>
   </g>
   <g id="matplotlib.axis_1">
    <g id="xtick_1">
     <g id="line2d_1">
      <defs>
       <path d="M 0 0 
L 0 3.5 
" id="mbd080ddef2" style="stroke:#000000;stroke-width:0.8;"/>
      </defs>
      <g>
       <use style="stroke:#000000;stroke-width:0.8;" x="64.396876" xlink:href="#mbd080ddef2" y="310.99049"/>
      </g>
     </g>
     <g id="text_1">
      <!-- 0 -->
      <defs>
       <path d="M 31.78125 66.40625 
Q 24.171875 66.40625 20.328125 58.90625 
Q 16.5 51.421875 16.5 36.375 
Q 16.5 21.390625 20.328125 13.890625 
Q 24.171875 6.390625 31.78125 6.390625 
Q 39.453125 6.390625 43.28125 13.890625 
Q 47.125 21.390625 47.125 36.375 
Q 47.125 51.421875 43.28125 58.90625 
Q 39.453125 66.40625 31.78125 66.40625 
z
M 31.78125 74.21875 
Q 44.046875 74.21875 50.515625 64.515625 
Q 56.984375 54.828125 56.984375 36.375 
Q 56.984375 17.96875 50.515625 8.265625 
Q 44.046875 -1.421875 31.78125 -1.421875 
Q 19.53125 -1.421875 13.0625 8.265625 
Q 6.59375 17.96875 6.59375 36.375 
Q 6.59375 54.828125 13.0625 64.515625 
Q 19.53125 74.21875 31.78125 74.21875 
z
" id="DejaVuSans-48"/>
      </defs>
      <g transform="translate(61.215626 325.588928)scale(0.1 -0.1)">
       <use xlink:href="#DejaVuSans-48"/>
      </g>
     </g>
    </g>
    <g id="xtick_2">
     <g id="line2d_2">
      <g>
       <use style="stroke:#000000;stroke-width:0.8;" x="84.192885" xlink:href="#mbd080ddef2" y="310.99049"/>
      </g>
     </g>
     <g id="text_2">
      <!-- 10 -->
      <defs>
       <path d="M 12.40625 8.296875 
L 28.515625 8.296875 
L 28.515625 63.921875 
L 10.984375 60.40625 
L 10.984375 69.390625 
L 28.421875 72.90625 
L 38.28125 72.90625 
L 38.28125 8.296875 
L 54.390625 8.296875 
L 54.390625 0 
L 12.40625 0 
z
" id="DejaVuSans-49"/>
      </defs>
      <g transform="translate(77.830385 325.588928)scale(0.1 -0.1)">
       <use xlink:href="#DejaVuSans-49"/>
       <use x="63.623047" xlink:href="#DejaVuSans-48"/>
      </g>
     </g>
    </g>
    <g id="xtick_3">
     <g id="line2d_3">
      <g>
       <use style="stroke:#000000;stroke-width:0.8;" x="103.988894" xlink:href="#mbd080ddef2" y="310.99049"/>
      </g>
     </g>
     <g id="text_3">
      <!-- 20 -->
      <defs>
       <path d="M 19.1875 8.296875 
L 53.609375 8.296875 
L 53.609375 0 
L 7.328125 0 
L 7.328125 8.296875 
Q 12.9375 14.109375 22.625 23.890625 
Q 32.328125 33.6875 34.8125 36.53125 
Q 39.546875 41.84375 41.421875 45.53125 
Q 43.3125 49.21875 43.3125 52.78125 
Q 43.3125 58.59375 39.234375 62.25 
Q 35.15625 65.921875 28.609375 65.921875 
Q 23.96875 65.921875 18.8125 64.3125 
Q 13.671875 62.703125 7.8125 59.421875 
L 7.8125 69.390625 
Q 13.765625 71.78125 18.9375 73 
Q 24.125 74.21875 28.421875 74.21875 
Q 39.75 74.21875 46.484375 68.546875 
Q 53.21875 62.890625 53.21875 53.421875 
Q 53.21875 48.921875 51.53125 44.890625 
Q 49.859375 40.875 45.40625 35.40625 
Q 44.1875 33.984375 37.640625 27.21875 
Q 31.109375 20.453125 19.1875 8.296875 
z
" id="DejaVuSans-50"/>
      </defs>
      <g transform="translate(97.626394 325.588928)scale(0.1 -0.1)">
       <use xlink:href="#DejaVuSans-50"/>
       <use x="63.623047" xlink:href="#DejaVuSans-48"/>
      </g>
     </g>
    </g>
    <g id="xtick_4">
     <g id="line2d_4">
      <g>
       <use style="stroke:#000000;stroke-width:0.8;" x="123.784903" xlink:href="#mbd080ddef2" y="310.99049"/>
      </g>
     </g>
     <g id="text_4">
      <!-- 30 -->
      <defs>
       <path d="M 40.578125 39.3125 
Q 47.65625 37.796875 51.625 33 
Q 55.609375 28.21875 55.609375 21.1875 
Q 55.609375 10.40625 48.1875 4.484375 
Q 40.765625 -1.421875 27.09375 -1.421875 
Q 22.515625 -1.421875 17.65625 -0.515625 
Q 12.796875 0.390625 7.625 2.203125 
L 7.625 11.71875 
Q 11.71875 9.328125 16.59375 8.109375 
Q 21.484375 6.890625 26.8125 6.890625 
Q 36.078125 6.890625 40.9375 10.546875 
Q 45.796875 14.203125 45.796875 21.1875 
Q 45.796875 27.640625 41.28125 31.265625 
Q 36.765625 34.90625 28.71875 34.90625 
L 20.21875 34.90625 
L 20.21875 43.015625 
L 29.109375 43.015625 
Q 36.375 43.015625 40.234375 45.921875 
Q 44.09375 48.828125 44.09375 54.296875 
Q 44.09375 59.90625 40.109375 62.90625 
Q 36.140625 65.921875 28.71875 65.921875 
Q 24.65625 65.921875 20.015625 65.03125 
Q 15.375 64.15625 9.8125 62.3125 
L 9.8125 71.09375 
Q 15.4375 72.65625 20.34375 73.4375 
Q 25.25 74.21875 29.59375 74.21875 
Q 40.828125 74.21875 47.359375 69.109375 
Q 53.90625 64.015625 53.90625 55.328125 
Q 53.90625 49.265625 50.4375 45.09375 
Q 46.96875 40.921875 40.578125 39.3125 
z
" id="DejaVuSans-51"/>
      </defs>
      <g transform="translate(117.422403 325.588928)scale(0.1 -0.1)">
       <use xlink:href="#DejaVuSans-51"/>
       <use x="63.623047" xlink:href="#DejaVuSans-48"/>
      </g>
     </g>
    </g>
    <g id="xtick_5">
     <g id="line2d_5">
      <g>
       <use style="stroke:#000000;stroke-width:0.8;" x="143.580912" xlink:href="#mbd080ddef2" y="310.99049"/>
      </g>
     </g>
     <g id="text_5">
      <!-- 40 -->
      <defs>
       <path d="M 37.796875 64.3125 
L 12.890625 25.390625 
L 37.796875 25.390625 
z
M 35.203125 72.90625 
L 47.609375 72.90625 
L 47.609375 25.390625 
L 58.015625 25.390625 
L 58.015625 17.1875 
L 47.609375 17.1875 
L 47.609375 0 
L 37.796875 0 
L 37.796875 17.1875 
L 4.890625 17.1875 
L 4.890625 26.703125 
z
" id="DejaVuSans-52"/>
      </defs>
      <g transform="translate(137.218412 325.588928)scale(0.1 -0.1)">
       <use xlink:href="#DejaVuSans-52"/>
       <use x="63.623047" xlink:href="#DejaVuSans-48"/>
      </g>
     </g>
    </g>
    <g id="xtick_6">
     <g id="line2d_6">
      <g>
       <use style="stroke:#000000;stroke-width:0.8;" x="163.376921" xlink:href="#mbd080ddef2" y="310.99049"/>
      </g>
     </g>
     <g id="text_6">
      <!-- 50 -->
      <defs>
       <path d="M 10.796875 72.90625 
L 49.515625 72.90625 
L 49.515625 64.59375 
L 19.828125 64.59375 
L 19.828125 46.734375 
Q 21.96875 47.46875 24.109375 47.828125 
Q 26.265625 48.1875 28.421875 48.1875 
Q 40.625 48.1875 47.75 41.5 
Q 54.890625 34.8125 54.890625 23.390625 
Q 54.890625 11.625 47.5625 5.09375 
Q 40.234375 -1.421875 26.90625 -1.421875 
Q 22.3125 -1.421875 17.546875 -0.640625 
Q 12.796875 0.140625 7.71875 1.703125 
L 7.71875 11.625 
Q 12.109375 9.234375 16.796875 8.0625 
Q 21.484375 6.890625 26.703125 6.890625 
Q 35.15625 6.890625 40.078125 11.328125 
Q 45.015625 15.765625 45.015625 23.390625 
Q 45.015625 31 40.078125 35.4375 
Q 35.15625 39.890625 26.703125 39.890625 
Q 22.75 39.890625 18.8125 39.015625 
Q 14.890625 38.140625 10.796875 36.28125 
z
" id="DejaVuSans-53"/>
      </defs>
      <g transform="translate(157.014421 325.588928)scale(0.1 -0.1)">
       <use xlink:href="#DejaVuSans-53"/>
       <use x="63.623047" xlink:href="#DejaVuSans-48"/>
      </g>
     </g>
    </g>
    <g id="xtick_7">
     <g id="line2d_7">
      <g>
       <use style="stroke:#000000;stroke-width:0.8;" x="183.17293" xlink:href="#mbd080ddef2" y="310.99049"/>
      </g>
     </g>
     <g id="text_7">
      <!-- 60 -->
      <defs>
       <path d="M 33.015625 40.375 
Q 26.375 40.375 22.484375 35.828125 
Q 18.609375 31.296875 18.609375 23.390625 
Q 18.609375 15.53125 22.484375 10.953125 
Q 26.375 6.390625 33.015625 6.390625 
Q 39.65625 6.390625 43.53125 10.953125 
Q 47.40625 15.53125 47.40625 23.390625 
Q 47.40625 31.296875 43.53125 35.828125 
Q 39.65625 40.375 33.015625 40.375 
z
M 52.59375 71.296875 
L 52.59375 62.3125 
Q 48.875 64.0625 45.09375 64.984375 
Q 41.3125 65.921875 37.59375 65.921875 
Q 27.828125 65.921875 22.671875 59.328125 
Q 17.53125 52.734375 16.796875 39.40625 
Q 19.671875 43.65625 24.015625 45.921875 
Q 28.375 48.1875 33.59375 48.1875 
Q 44.578125 48.1875 50.953125 41.515625 
Q 57.328125 34.859375 57.328125 23.390625 
Q 57.328125 12.15625 50.6875 5.359375 
Q 44.046875 -1.421875 33.015625 -1.421875 
Q 20.359375 -1.421875 13.671875 8.265625 
Q 6.984375 17.96875 6.984375 36.375 
Q 6.984375 53.65625 15.1875 63.9375 
Q 23.390625 74.21875 37.203125 74.21875 
Q 40.921875 74.21875 44.703125 73.484375 
Q 48.484375 72.75 52.59375 71.296875 
z
" id="DejaVuSans-54"/>
      </defs>
      <g transform="translate(176.81043 325.588928)scale(0.1 -0.1)">
       <use xlink:href="#DejaVuSans-54"/>
       <use x="63.623047" xlink:href="#DejaVuSans-48"/>
      </g>
     </g>
    </g>
    <g id="xtick_8">
     <g id="line2d_8">
      <g>
       <use style="stroke:#000000;stroke-width:0.8;" x="202.968938" xlink:href="#mbd080ddef2" y="310.99049"/>
      </g>
     </g>
     <g id="text_8">
      <!-- 70 -->
      <defs>
       <path d="M 8.203125 72.90625 
L 55.078125 72.90625 
L 55.078125 68.703125 
L 28.609375 0 
L 18.3125 0 
L 43.21875 64.59375 
L 8.203125 64.59375 
z
" id="DejaVuSans-55"/>
      </defs>
      <g transform="translate(196.606438 325.588928)scale(0.1 -0.1)">
       <use xlink:href="#DejaVuSans-55"/>
       <use x="63.623047" xlink:href="#DejaVuSans-48"/>
      </g>
     </g>
    </g>
    <g id="xtick_9">
     <g id="line2d_9">
      <g>
       <use style="stroke:#000000;stroke-width:0.8;" x="222.764947" xlink:href="#mbd080ddef2" y="310.99049"/>
      </g>
     </g>
     <g id="text_9">
      <!-- 80 -->
      <defs>
       <path d="M 31.78125 34.625 
Q 24.75 34.625 20.71875 30.859375 
Q 16.703125 27.09375 16.703125 20.515625 
Q 16.703125 13.921875 20.71875 10.15625 
Q 24.75 6.390625 31.78125 6.390625 
Q 38.8125 6.390625 42.859375 10.171875 
Q 46.921875 13.96875 46.921875 20.515625 
Q 46.921875 27.09375 42.890625 30.859375 
Q 38.875 34.625 31.78125 34.625 
z
M 21.921875 38.8125 
Q 15.578125 40.375 12.03125 44.71875 
Q 8.5 49.078125 8.5 55.328125 
Q 8.5 64.0625 14.71875 69.140625 
Q 20.953125 74.21875 31.78125 74.21875 
Q 42.671875 74.21875 48.875 69.140625 
Q 55.078125 64.0625 55.078125 55.328125 
Q 55.078125 49.078125 51.53125 44.71875 
Q 48 40.375 41.703125 38.8125 
Q 48.828125 37.15625 52.796875 32.3125 
Q 56.78125 27.484375 56.78125 20.515625 
Q 56.78125 9.90625 50.3125 4.234375 
Q 43.84375 -1.421875 31.78125 -1.421875 
Q 19.734375 -1.421875 13.25 4.234375 
Q 6.78125 9.90625 6.78125 20.515625 
Q 6.78125 27.484375 10.78125 32.3125 
Q 14.796875 37.15625 21.921875 38.8125 
z
M 18.3125 54.390625 
Q 18.3125 48.734375 21.84375 45.5625 
Q 25.390625 42.390625 31.78125 42.390625 
Q 38.140625 42.390625 41.71875 45.5625 
Q 45.3125 48.734375 45.3125 54.390625 
Q 45.3125 60.0625 41.71875 63.234375 
Q 38.140625 66.40625 31.78125 66.40625 
Q 25.390625 66.40625 21.84375 63.234375 
Q 18.3125 60.0625 18.3125 54.390625 
z
" id="DejaVuSans-56"/>
      </defs>
      <g transform="translate(216.402447 325.588928)scale(0.1 -0.1)">
       <use xlink:href="#DejaVuSans-56"/>
       <use x="63.623047" xlink:href="#DejaVuSans-48"/>
      </g>
     </g>
    </g>
    <g id="xtick_10">
     <g id="line2d_10">
      <g>
       <use style="stroke:#000000;stroke-width:0.8;" x="242.560956" xlink:href="#mbd080ddef2" y="310.99049"/>
      </g>
     </g>
     <g id="text_10">
      <!-- 90 -->
      <defs>
       <path d="M 10.984375 1.515625 
L 10.984375 10.5 
Q 14.703125 8.734375 18.5 7.8125 
Q 22.3125 6.890625 25.984375 6.890625 
Q 35.75 6.890625 40.890625 13.453125 
Q 46.046875 20.015625 46.78125 33.40625 
Q 43.953125 29.203125 39.59375 26.953125 
Q 35.25 24.703125 29.984375 24.703125 
Q 19.046875 24.703125 12.671875 31.3125 
Q 6.296875 37.9375 6.296875 49.421875 
Q 6.296875 60.640625 12.9375 67.421875 
Q 19.578125 74.21875 30.609375 74.21875 
Q 43.265625 74.21875 49.921875 64.515625 
Q 56.59375 54.828125 56.59375 36.375 
Q 56.59375 19.140625 48.40625 8.859375 
Q 40.234375 -1.421875 26.421875 -1.421875 
Q 22.703125 -1.421875 18.890625 -0.6875 
Q 15.09375 0.046875 10.984375 1.515625 
z
M 30.609375 32.421875 
Q 37.25 32.421875 41.125 36.953125 
Q 45.015625 41.5 45.015625 49.421875 
Q 45.015625 57.28125 41.125 61.84375 
Q 37.25 66.40625 30.609375 66.40625 
Q 23.96875 66.40625 20.09375 61.84375 
Q 16.21875 57.28125 16.21875 49.421875 
Q 16.21875 41.5 20.09375 36.953125 
Q 23.96875 32.421875 30.609375 32.421875 
z
" id="DejaVuSans-57"/>
      </defs>
      <g transform="translate(236.198456 325.588928)scale(0.1 -0.1)">
       <use xlink:href="#DejaVuSans-57"/>
       <use x="63.623047" xlink:href="#DejaVuSans-48"/>
      </g>
     </g>
    </g>
    <g id="xtick_11">
     <g id="line2d_11">
      <g>
       <use style="stroke:#000000;stroke-width:0.8;" x="262.356965" xlink:href="#mbd080ddef2" y="310.99049"/>
      </g>
     </g>
     <g id="text_11">
      <!-- 100 -->
      <g transform="translate(252.813215 325.588928)scale(0.1 -0.1)">
       <use xlink:href="#DejaVuSans-49"/>
       <use x="63.623047" xlink:href="#DejaVuSans-48"/>
       <use x="127.246094" xlink:href="#DejaVuSans-48"/>
      </g>
     </g>
    </g>
    <g id="xtick_12">
     <g id="line2d_12">
      <g>
       <use style="stroke:#000000;stroke-width:0.8;" x="282.152974" xlink:href="#mbd080ddef2" y="310.99049"/>
      </g>
     </g>
     <g id="text_12">
      <!-- 110 -->
      <g transform="translate(272.609224 325.588928)scale(0.1 -0.1)">
       <use xlink:href="#DejaVuSans-49"/>
       <use x="63.623047" xlink:href="#DejaVuSans-49"/>
       <use x="127.246094" xlink:href="#DejaVuSans-48"/>
      </g>
     </g>
    </g>
    <g id="xtick_13">
     <g id="line2d_13">
      <g>
       <use style="stroke:#000000;stroke-width:0.8;" x="301.948983" xlink:href="#mbd080ddef2" y="310.99049"/>
      </g>
     </g>
     <g id="text_13">
      <!-- 120 -->
      <g transform="translate(292.405233 325.588928)scale(0.1 -0.1)">
       <use xlink:href="#DejaVuSans-49"/>
       <use x="63.623047" xlink:href="#DejaVuSans-50"/>
       <use x="127.246094" xlink:href="#DejaVuSans-48"/>
      </g>
     </g>
    </g>
    <g id="xtick_14">
     <g id="line2d_14">
      <g>
       <use style="stroke:#000000;stroke-width:0.8;" x="321.744992" xlink:href="#mbd080ddef2" y="310.99049"/>
      </g>
     </g>
     <g id="text_14">
      <!-- 130 -->
      <g transform="translate(312.201242 325.588928)scale(0.1 -0.1)">
       <use xlink:href="#DejaVuSans-49"/>
       <use x="63.623047" xlink:href="#DejaVuSans-51"/>
       <use x="127.246094" xlink:href="#DejaVuSans-48"/>
      </g>
     </g>
    </g>
    <g id="xtick_15">
     <g id="line2d_15">
      <g>
       <use style="stroke:#000000;stroke-width:0.8;" x="341.541001" xlink:href="#mbd080ddef2" y="310.99049"/>
      </g>
     </g>
     <g id="text_15">
      <!-- 140 -->
      <g transform="translate(331.997251 325.588928)scale(0.1 -0.1)">
       <use xlink:href="#DejaVuSans-49"/>
       <use x="63.623047" xlink:href="#DejaVuSans-52"/>
       <use x="127.246094" xlink:href="#DejaVuSans-48"/>
      </g>
     </g>
    </g>
    <g id="xtick_16">
     <g id="line2d_16">
      <g>
       <use style="stroke:#000000;stroke-width:0.8;" x="361.337009" xlink:href="#mbd080ddef2" y="310.99049"/>
      </g>
     </g>
     <g id="text_16">
      <!-- 150 -->
      <g transform="translate(351.793259 325.588928)scale(0.1 -0.1)">
       <use xlink:href="#DejaVuSans-49"/>
       <use x="63.623047" xlink:href="#DejaVuSans-53"/>
       <use x="127.246094" xlink:href="#DejaVuSans-48"/>
      </g>
     </g>
    </g>
    <g id="xtick_17">
     <g id="line2d_17">
      <g>
       <use style="stroke:#000000;stroke-width:0.8;" x="381.133018" xlink:href="#mbd080ddef2" y="310.99049"/>
      </g>
     </g>
     <g id="text_17">
      <!-- 160 -->
      <g transform="translate(371.589268 325.588928)scale(0.1 -0.1)">
       <use xlink:href="#DejaVuSans-49"/>
       <use x="63.623047" xlink:href="#DejaVuSans-54"/>
       <use x="127.246094" xlink:href="#DejaVuSans-48"/>
      </g>
     </g>
    </g>
    <g id="xtick_18">
     <g id="line2d_18">
      <g>
       <use style="stroke:#000000;stroke-width:0.8;" x="400.929027" xlink:href="#mbd080ddef2" y="310.99049"/>
      </g>
     </g>
     <g id="text_18">
      <!-- 170 -->
      <g transform="translate(391.385277 325.588928)scale(0.1 -0.1)">
       <use xlink:href="#DejaVuSans-49"/>
       <use x="63.623047" xlink:href="#DejaVuSans-55"/>
       <use x="127.246094" xlink:href="#DejaVuSans-48"/>
      </g>
     </g>
    </g>
    <g id="xtick_19">
     <g id="line2d_19">
      <defs>
       <path d="M 0 0 
L 0 2 
" id="m51dcef76c5" style="stroke:#000000;stroke-width:0.6;"/>
      </defs>
      <g>
       <use style="stroke:#000000;stroke-width:0.6;" x="50.53967" xlink:href="#m51dcef76c5" y="310.99049"/>
      </g>
     </g>
    </g>
    <g id="xtick_20">
     <g id="line2d_20">
      <g>
       <use style="stroke:#000000;stroke-width:0.6;" x="52.519271" xlink:href="#m51dcef76c5" y="310.99049"/>
      </g>
     </g>
    </g>
    <g id="xtick_21">
     <g id="line2d_21">
      <g>
       <use style="stroke:#000000;stroke-width:0.6;" x="54.498872" xlink:href="#m51dcef76c5" y="310.99049"/>
      </g>
     </g>
    </g>
    <g id="xtick_22">
     <g id="line2d_22">
      <g>
       <use style="stroke:#000000;stroke-width:0.6;" x="56.478473" xlink:href="#m51dcef76c5" y="310.99049"/>
      </g>
     </g>
    </g>
    <g id="xtick_23">
     <g id="line2d_23">
      <g>
       <use style="stroke:#000000;stroke-width:0.6;" x="58.458074" xlink:href="#m51dcef76c5" y="310.99049"/>
      </g>
     </g>
    </g>
    <g id="xtick_24">
     <g id="line2d_24">
      <g>
       <use style="stroke:#000000;stroke-width:0.6;" x="60.437675" xlink:href="#m51dcef76c5" y="310.99049"/>
      </g>
     </g>
    </g>
    <g id="xtick_25">
     <g id="line2d_25">
      <g>
       <use style="stroke:#000000;stroke-width:0.6;" x="62.417275" xlink:href="#m51dcef76c5" y="310.99049"/>
      </g>
     </g>
    </g>
    <g id="xtick_26">
     <g id="line2d_26">
      <g>
       <use style="stroke:#000000;stroke-width:0.6;" x="66.376477" xlink:href="#m51dcef76c5" y="310.99049"/>
      </g>
     </g>
    </g>
    <g id="xtick_27">
     <g id="line2d_27">
      <g>
       <use style="stroke:#000000;stroke-width:0.6;" x="68.356078" xlink:href="#m51dcef76c5" y="310.99049"/>
      </g>
     </g>
    </g>
    <g id="xtick_28">
     <g id="line2d_28">
      <g>
       <use style="stroke:#000000;stroke-width:0.6;" x="70.335679" xlink:href="#m51dcef76c5" y="310.99049"/>
      </g>
     </g>
    </g>
    <g id="xtick_29">
     <g id="line2d_29">
      <g>
       <use style="stroke:#000000;stroke-width:0.6;" x="72.31528" xlink:href="#m51dcef76c5" y="310.99049"/>
      </g>
     </g>
    </g>
    <g id="xtick_30">
     <g id="line2d_30">
      <g>
       <use style="stroke:#000000;stroke-width:0.6;" x="74.294881" xlink:href="#m51dcef76c5" y="310.99049"/>
      </g>
     </g>
    </g>
    <g id="xtick_31">
     <g id="line2d_31">
      <g>
       <use style="stroke:#000000;stroke-width:0.6;" x="76.274482" xlink:href="#m51dcef76c5" y="310.99049"/>
      </g>
     </g>
    </g>
    <g id="xtick_32">
     <g id="line2d_32">
      <g>
       <use style="stroke:#000000;stroke-width:0.6;" x="78.254083" xlink:href="#m51dcef76c5" y="310.99049"/>
      </g>
     </g>
    </g>
    <g id="xtick_33">
     <g id="line2d_33">
      <g>
       <use style="stroke:#000000;stroke-width:0.6;" x="80.233683" xlink:href="#m51dcef76c5" y="310.99049"/>
      </g>
     </g>
    </g>
    <g id="xtick_34">
     <g id="line2d_34">
      <g>
       <use style="stroke:#000000;stroke-width:0.6;" x="82.213284" xlink:href="#m51dcef76c5" y="310.99049"/>
      </g>
     </g>
    </g>
    <g id="xtick_35">
     <g id="line2d_35">
      <g>
       <use style="stroke:#000000;stroke-width:0.6;" x="86.172486" xlink:href="#m51dcef76c5" y="310.99049"/>
      </g>
     </g>
    </g>
    <g id="xtick_36">
     <g id="line2d_36">
      <g>
       <use style="stroke:#000000;stroke-width:0.6;" x="88.152087" xlink:href="#m51dcef76c5" y="310.99049"/>
      </g>
     </g>
    </g>
    <g id="xtick_37">
     <g id="line2d_37">
      <g>
       <use style="stroke:#000000;stroke-width:0.6;" x="90.131688" xlink:href="#m51dcef76c5" y="310.99049"/>
      </g>
     </g>
    </g>
    <g id="xtick_38">
     <g id="line2d_38">
      <g>
       <use style="stroke:#000000;stroke-width:0.6;" x="92.111289" xlink:href="#m51dcef76c5" y="310.99049"/>
      </g>
     </g>
    </g>
    <g id="xtick_39">
     <g id="line2d_39">
      <g>
       <use style="stroke:#000000;stroke-width:0.6;" x="94.09089" xlink:href="#m51dcef76c5" y="310.99049"/>
      </g>
     </g>
    </g>
    <g id="xtick_40">
     <g id="line2d_40">
      <g>
       <use style="stroke:#000000;stroke-width:0.6;" x="96.070491" xlink:href="#m51dcef76c5" y="310.99049"/>
      </g>
     </g>
    </g>
    <g id="xtick_41">
     <g id="line2d_41">
      <g>
       <use style="stroke:#000000;stroke-width:0.6;" x="98.050091" xlink:href="#m51dcef76c5" y="310.99049"/>
      </g>
     </g>
    </g>
    <g id="xtick_42">
     <g id="line2d_42">
      <g>
       <use style="stroke:#000000;stroke-width:0.6;" x="100.029692" xlink:href="#m51dcef76c5" y="310.99049"/>
      </g>
     </g>
    </g>
    <g id="xtick_43">
     <g id="line2d_43">
      <g>
       <use style="stroke:#000000;stroke-width:0.6;" x="102.009293" xlink:href="#m51dcef76c5" y="310.99049"/>
      </g>
     </g>
    </g>
    <g id="xtick_44">
     <g id="line2d_44">
      <g>
       <use style="stroke:#000000;stroke-width:0.6;" x="105.968495" xlink:href="#m51dcef76c5" y="310.99049"/>
      </g>
     </g>
    </g>
    <g id="xtick_45">
     <g id="line2d_45">
      <g>
       <use style="stroke:#000000;stroke-width:0.6;" x="107.948096" xlink:href="#m51dcef76c5" y="310.99049"/>
      </g>
     </g>
    </g>
    <g id="xtick_46">
     <g id="line2d_46">
      <g>
       <use style="stroke:#000000;stroke-width:0.6;" x="109.927697" xlink:href="#m51dcef76c5" y="310.99049"/>
      </g>
     </g>
    </g>
    <g id="xtick_47">
     <g id="line2d_47">
      <g>
       <use style="stroke:#000000;stroke-width:0.6;" x="111.907298" xlink:href="#m51dcef76c5" y="310.99049"/>
      </g>
     </g>
    </g>
    <g id="xtick_48">
     <g id="line2d_48">
      <g>
       <use style="stroke:#000000;stroke-width:0.6;" x="113.886899" xlink:href="#m51dcef76c5" y="310.99049"/>
      </g>
     </g>
    </g>
    <g id="xtick_49">
     <g id="line2d_49">
      <g>
       <use style="stroke:#000000;stroke-width:0.6;" x="115.866499" xlink:href="#m51dcef76c5" y="310.99049"/>
      </g>
     </g>
    </g>
    <g id="xtick_50">
     <g id="line2d_50">
      <g>
       <use style="stroke:#000000;stroke-width:0.6;" x="117.8461" xlink:href="#m51dcef76c5" y="310.99049"/>
      </g>
     </g>
    </g>
    <g id="xtick_51">
     <g id="line2d_51">
      <g>
       <use style="stroke:#000000;stroke-width:0.6;" x="119.825701" xlink:href="#m51dcef76c5" y="310.99049"/>
      </g>
     </g>
    </g>
    <g id="xtick_52">
     <g id="line2d_52">
      <g>
       <use style="stroke:#000000;stroke-width:0.6;" x="121.805302" xlink:href="#m51dcef76c5" y="310.99049"/>
      </g>
     </g>
    </g>
    <g id="xtick_53">
     <g id="line2d_53">
      <g>
       <use style="stroke:#000000;stroke-width:0.6;" x="125.764504" xlink:href="#m51dcef76c5" y="310.99049"/>
      </g>
     </g>
    </g>
    <g id="xtick_54">
     <g id="line2d_54">
      <g>
       <use style="stroke:#000000;stroke-width:0.6;" x="127.744105" xlink:href="#m51dcef76c5" y="310.99049"/>
      </g>
     </g>
    </g>
    <g id="xtick_55">
     <g id="line2d_55">
      <g>
       <use style="stroke:#000000;stroke-width:0.6;" x="129.723706" xlink:href="#m51dcef76c5" y="310.99049"/>
      </g>
     </g>
    </g>
    <g id="xtick_56">
     <g id="line2d_56">
      <g>
       <use style="stroke:#000000;stroke-width:0.6;" x="131.703307" xlink:href="#m51dcef76c5" y="310.99049"/>
      </g>
     </g>
    </g>
    <g id="xtick_57">
     <g id="line2d_57">
      <g>
       <use style="stroke:#000000;stroke-width:0.6;" x="133.682907" xlink:href="#m51dcef76c5" y="310.99049"/>
      </g>
     </g>
    </g>
    <g id="xtick_58">
     <g id="line2d_58">
      <g>
       <use style="stroke:#000000;stroke-width:0.6;" x="135.662508" xlink:href="#m51dcef76c5" y="310.99049"/>
      </g>
     </g>
    </g>
    <g id="xtick_59">
     <g id="line2d_59">
      <g>
       <use style="stroke:#000000;stroke-width:0.6;" x="137.642109" xlink:href="#m51dcef76c5" y="310.99049"/>
      </g>
     </g>
    </g>
    <g id="xtick_60">
     <g id="line2d_60">
      <g>
       <use style="stroke:#000000;stroke-width:0.6;" x="139.62171" xlink:href="#m51dcef76c5" y="310.99049"/>
      </g>
     </g>
    </g>
    <g id="xtick_61">
     <g id="line2d_61">
      <g>
       <use style="stroke:#000000;stroke-width:0.6;" x="141.601311" xlink:href="#m51dcef76c5" y="310.99049"/>
      </g>
     </g>
    </g>
    <g id="xtick_62">
     <g id="line2d_62">
      <g>
       <use style="stroke:#000000;stroke-width:0.6;" x="145.560513" xlink:href="#m51dcef76c5" y="310.99049"/>
      </g>
     </g>
    </g>
    <g id="xtick_63">
     <g id="line2d_63">
      <g>
       <use style="stroke:#000000;stroke-width:0.6;" x="147.540114" xlink:href="#m51dcef76c5" y="310.99049"/>
      </g>
     </g>
    </g>
    <g id="xtick_64">
     <g id="line2d_64">
      <g>
       <use style="stroke:#000000;stroke-width:0.6;" x="149.519715" xlink:href="#m51dcef76c5" y="310.99049"/>
      </g>
     </g>
    </g>
    <g id="xtick_65">
     <g id="line2d_65">
      <g>
       <use style="stroke:#000000;stroke-width:0.6;" x="151.499315" xlink:href="#m51dcef76c5" y="310.99049"/>
      </g>
     </g>
    </g>
    <g id="xtick_66">
     <g id="line2d_66">
      <g>
       <use style="stroke:#000000;stroke-width:0.6;" x="153.478916" xlink:href="#m51dcef76c5" y="310.99049"/>
      </g>
     </g>
    </g>
    <g id="xtick_67">
     <g id="line2d_67">
      <g>
       <use style="stroke:#000000;stroke-width:0.6;" x="155.458517" xlink:href="#m51dcef76c5" y="310.99049"/>
      </g>
     </g>
    </g>
    <g id="xtick_68">
     <g id="line2d_68">
      <g>
       <use style="stroke:#000000;stroke-width:0.6;" x="157.438118" xlink:href="#m51dcef76c5" y="310.99049"/>
      </g>
     </g>
    </g>
    <g id="xtick_69">
     <g id="line2d_69">
      <g>
       <use style="stroke:#000000;stroke-width:0.6;" x="159.417719" xlink:href="#m51dcef76c5" y="310.99049"/>
      </g>
     </g>
    </g>
    <g id="xtick_70">
     <g id="line2d_70">
      <g>
       <use style="stroke:#000000;stroke-width:0.6;" x="161.39732" xlink:href="#m51dcef76c5" y="310.99049"/>
      </g>
     </g>
    </g>
    <g id="xtick_71">
     <g id="line2d_71">
      <g>
       <use style="stroke:#000000;stroke-width:0.6;" x="165.356522" xlink:href="#m51dcef76c5" y="310.99049"/>
      </g>
     </g>
    </g>
    <g id="xtick_72">
     <g id="line2d_72">
      <g>
       <use style="stroke:#000000;stroke-width:0.6;" x="167.336123" xlink:href="#m51dcef76c5" y="310.99049"/>
      </g>
     </g>
    </g>
    <g id="xtick_73">
     <g id="line2d_73">
      <g>
       <use style="stroke:#000000;stroke-width:0.6;" x="169.315723" xlink:href="#m51dcef76c5" y="310.99049"/>
      </g>
     </g>
    </g>
    <g id="xtick_74">
     <g id="line2d_74">
      <g>
       <use style="stroke:#000000;stroke-width:0.6;" x="171.295324" xlink:href="#m51dcef76c5" y="310.99049"/>
      </g>
     </g>
    </g>
    <g id="xtick_75">
     <g id="line2d_75">
      <g>
       <use style="stroke:#000000;stroke-width:0.6;" x="173.274925" xlink:href="#m51dcef76c5" y="310.99049"/>
      </g>
     </g>
    </g>
    <g id="xtick_76">
     <g id="line2d_76">
      <g>
       <use style="stroke:#000000;stroke-width:0.6;" x="175.254526" xlink:href="#m51dcef76c5" y="310.99049"/>
      </g>
     </g>
    </g>
    <g id="xtick_77">
     <g id="line2d_77">
      <g>
       <use style="stroke:#000000;stroke-width:0.6;" x="177.234127" xlink:href="#m51dcef76c5" y="310.99049"/>
      </g>
     </g>
    </g>
    <g id="xtick_78">
     <g id="line2d_78">
      <g>
       <use style="stroke:#000000;stroke-width:0.6;" x="179.213728" xlink:href="#m51dcef76c5" y="310.99049"/>
      </g>
     </g>
    </g>
    <g id="xtick_79">
     <g id="line2d_79">
      <g>
       <use style="stroke:#000000;stroke-width:0.6;" x="181.193329" xlink:href="#m51dcef76c5" y="310.99049"/>
      </g>
     </g>
    </g>
    <g id="xtick_80">
     <g id="line2d_80">
      <g>
       <use style="stroke:#000000;stroke-width:0.6;" x="185.15253" xlink:href="#m51dcef76c5" y="310.99049"/>
      </g>
     </g>
    </g>
    <g id="xtick_81">
     <g id="line2d_81">
      <g>
       <use style="stroke:#000000;stroke-width:0.6;" x="187.132131" xlink:href="#m51dcef76c5" y="310.99049"/>
      </g>
     </g>
    </g>
    <g id="xtick_82">
     <g id="line2d_82">
      <g>
       <use style="stroke:#000000;stroke-width:0.6;" x="189.111732" xlink:href="#m51dcef76c5" y="310.99049"/>
      </g>
     </g>
    </g>
    <g id="xtick_83">
     <g id="line2d_83">
      <g>
       <use style="stroke:#000000;stroke-width:0.6;" x="191.091333" xlink:href="#m51dcef76c5" y="310.99049"/>
      </g>
     </g>
    </g>
    <g id="xtick_84">
     <g id="line2d_84">
      <g>
       <use style="stroke:#000000;stroke-width:0.6;" x="193.070934" xlink:href="#m51dcef76c5" y="310.99049"/>
      </g>
     </g>
    </g>
    <g id="xtick_85">
     <g id="line2d_85">
      <g>
       <use style="stroke:#000000;stroke-width:0.6;" x="195.050535" xlink:href="#m51dcef76c5" y="310.99049"/>
      </g>
     </g>
    </g>
    <g id="xtick_86">
     <g id="line2d_86">
      <g>
       <use style="stroke:#000000;stroke-width:0.6;" x="197.030136" xlink:href="#m51dcef76c5" y="310.99049"/>
      </g>
     </g>
    </g>
    <g id="xtick_87">
     <g id="line2d_87">
      <g>
       <use style="stroke:#000000;stroke-width:0.6;" x="199.009737" xlink:href="#m51dcef76c5" y="310.99049"/>
      </g>
     </g>
    </g>
    <g id="xtick_88">
     <g id="line2d_88">
      <g>
       <use style="stroke:#000000;stroke-width:0.6;" x="200.989338" xlink:href="#m51dcef76c5" y="310.99049"/>
      </g>
     </g>
    </g>
    <g id="xtick_89">
     <g id="line2d_89">
      <g>
       <use style="stroke:#000000;stroke-width:0.6;" x="204.948539" xlink:href="#m51dcef76c5" y="310.99049"/>
      </g>
     </g>
    </g>
    <g id="xtick_90">
     <g id="line2d_90">
      <g>
       <use style="stroke:#000000;stroke-width:0.6;" x="206.92814" xlink:href="#m51dcef76c5" y="310.99049"/>
      </g>
     </g>
    </g>
    <g id="xtick_91">
     <g id="line2d_91">
      <g>
       <use style="stroke:#000000;stroke-width:0.6;" x="208.907741" xlink:href="#m51dcef76c5" y="310.99049"/>
      </g>
     </g>
    </g>
    <g id="xtick_92">
     <g id="line2d_92">
      <g>
       <use style="stroke:#000000;stroke-width:0.6;" x="210.887342" xlink:href="#m51dcef76c5" y="310.99049"/>
      </g>
     </g>
    </g>
    <g id="xtick_93">
     <g id="line2d_93">
      <g>
       <use style="stroke:#000000;stroke-width:0.6;" x="212.866943" xlink:href="#m51dcef76c5" y="310.99049"/>
      </g>
     </g>
    </g>
    <g id="xtick_94">
     <g id="line2d_94">
      <g>
       <use style="stroke:#000000;stroke-width:0.6;" x="214.846544" xlink:href="#m51dcef76c5" y="310.99049"/>
      </g>
     </g>
    </g>
    <g id="xtick_95">
     <g id="line2d_95">
      <g>
       <use style="stroke:#000000;stroke-width:0.6;" x="216.826145" xlink:href="#m51dcef76c5" y="310.99049"/>
      </g>
     </g>
    </g>
    <g id="xtick_96">
     <g id="line2d_96">
      <g>
       <use style="stroke:#000000;stroke-width:0.6;" x="218.805746" xlink:href="#m51dcef76c5" y="310.99049"/>
      </g>
     </g>
    </g>
    <g id="xtick_97">
     <g id="line2d_97">
      <g>
       <use style="stroke:#000000;stroke-width:0.6;" x="220.785346" xlink:href="#m51dcef76c5" y="310.99049"/>
      </g>
     </g>
    </g>
    <g id="xtick_98">
     <g id="line2d_98">
      <g>
       <use style="stroke:#000000;stroke-width:0.6;" x="224.744548" xlink:href="#m51dcef76c5" y="310.99049"/>
      </g>
     </g>
    </g>
    <g id="xtick_99">
     <g id="line2d_99">
      <g>
       <use style="stroke:#000000;stroke-width:0.6;" x="226.724149" xlink:href="#m51dcef76c5" y="310.99049"/>
      </g>
     </g>
    </g>
    <g id="xtick_100">
     <g id="line2d_100">
      <g>
       <use style="stroke:#000000;stroke-width:0.6;" x="228.70375" xlink:href="#m51dcef76c5" y="310.99049"/>
      </g>
     </g>
    </g>
    <g id="xtick_101">
     <g id="line2d_101">
      <g>
       <use style="stroke:#000000;stroke-width:0.6;" x="230.683351" xlink:href="#m51dcef76c5" y="310.99049"/>
      </g>
     </g>
    </g>
    <g id="xtick_102">
     <g id="line2d_102">
      <g>
       <use style="stroke:#000000;stroke-width:0.6;" x="232.662952" xlink:href="#m51dcef76c5" y="310.99049"/>
      </g>
     </g>
    </g>
    <g id="xtick_103">
     <g id="line2d_103">
      <g>
       <use style="stroke:#000000;stroke-width:0.6;" x="234.642553" xlink:href="#m51dcef76c5" y="310.99049"/>
      </g>
     </g>
    </g>
    <g id="xtick_104">
     <g id="line2d_104">
      <g>
       <use style="stroke:#000000;stroke-width:0.6;" x="236.622154" xlink:href="#m51dcef76c5" y="310.99049"/>
      </g>
     </g>
    </g>
    <g id="xtick_105">
     <g id="line2d_105">
      <g>
       <use style="stroke:#000000;stroke-width:0.6;" x="238.601754" xlink:href="#m51dcef76c5" y="310.99049"/>
      </g>
     </g>
    </g>
    <g id="xtick_106">
     <g id="line2d_106">
      <g>
       <use style="stroke:#000000;stroke-width:0.6;" x="240.581355" xlink:href="#m51dcef76c5" y="310.99049"/>
      </g>
     </g>
    </g>
    <g id="xtick_107">
     <g id="line2d_107">
      <g>
       <use style="stroke:#000000;stroke-width:0.6;" x="244.540557" xlink:href="#m51dcef76c5" y="310.99049"/>
      </g>
     </g>
    </g>
    <g id="xtick_108">
     <g id="line2d_108">
      <g>
       <use style="stroke:#000000;stroke-width:0.6;" x="246.520158" xlink:href="#m51dcef76c5" y="310.99049"/>
      </g>
     </g>
    </g>
    <g id="xtick_109">
     <g id="line2d_109">
      <g>
       <use style="stroke:#000000;stroke-width:0.6;" x="248.499759" xlink:href="#m51dcef76c5" y="310.99049"/>
      </g>
     </g>
    </g>
    <g id="xtick_110">
     <g id="line2d_110">
      <g>
       <use style="stroke:#000000;stroke-width:0.6;" x="250.47936" xlink:href="#m51dcef76c5" y="310.99049"/>
      </g>
     </g>
    </g>
    <g id="xtick_111">
     <g id="line2d_111">
      <g>
       <use style="stroke:#000000;stroke-width:0.6;" x="252.458961" xlink:href="#m51dcef76c5" y="310.99049"/>
      </g>
     </g>
    </g>
    <g id="xtick_112">
     <g id="line2d_112">
      <g>
       <use style="stroke:#000000;stroke-width:0.6;" x="254.438562" xlink:href="#m51dcef76c5" y="310.99049"/>
      </g>
     </g>
    </g>
    <g id="xtick_113">
     <g id="line2d_113">
      <g>
       <use style="stroke:#000000;stroke-width:0.6;" x="256.418162" xlink:href="#m51dcef76c5" y="310.99049"/>
      </g>
     </g>
    </g>
    <g id="xtick_114">
     <g id="line2d_114">
      <g>
       <use style="stroke:#000000;stroke-width:0.6;" x="258.397763" xlink:href="#m51dcef76c5" y="310.99049"/>
      </g>
     </g>
    </g>
    <g id="xtick_115">
     <g id="line2d_115">
      <g>
       <use style="stroke:#000000;stroke-width:0.6;" x="260.377364" xlink:href="#m51dcef76c5" y="310.99049"/>
      </g>
     </g>
    </g>
    <g id="xtick_116">
     <g id="line2d_116">
      <g>
       <use style="stroke:#000000;stroke-width:0.6;" x="264.336566" xlink:href="#m51dcef76c5" y="310.99049"/>
      </g>
     </g>
    </g>
    <g id="xtick_117">
     <g id="line2d_117">
      <g>
       <use style="stroke:#000000;stroke-width:0.6;" x="266.316167" xlink:href="#m51dcef76c5" y="310.99049"/>
      </g>
     </g>
    </g>
    <g id="xtick_118">
     <g id="line2d_118">
      <g>
       <use style="stroke:#000000;stroke-width:0.6;" x="268.295768" xlink:href="#m51dcef76c5" y="310.99049"/>
      </g>
     </g>
    </g>
    <g id="xtick_119">
     <g id="line2d_119">
      <g>
       <use style="stroke:#000000;stroke-width:0.6;" x="270.275369" xlink:href="#m51dcef76c5" y="310.99049"/>
      </g>
     </g>
    </g>
    <g id="xtick_120">
     <g id="line2d_120">
      <g>
       <use style="stroke:#000000;stroke-width:0.6;" x="272.25497" xlink:href="#m51dcef76c5" y="310.99049"/>
      </g>
     </g>
    </g>
    <g id="xtick_121">
     <g id="line2d_121">
      <g>
       <use style="stroke:#000000;stroke-width:0.6;" x="274.23457" xlink:href="#m51dcef76c5" y="310.99049"/>
      </g>
     </g>
    </g>
    <g id="xtick_122">
     <g id="line2d_122">
      <g>
       <use style="stroke:#000000;stroke-width:0.6;" x="276.214171" xlink:href="#m51dcef76c5" y="310.99049"/>
      </g>
     </g>
    </g>
    <g id="xtick_123">
     <g id="line2d_123">
      <g>
       <use style="stroke:#000000;stroke-width:0.6;" x="278.193772" xlink:href="#m51dcef76c5" y="310.99049"/>
      </g>
     </g>
    </g>
    <g id="xtick_124">
     <g id="line2d_124">
      <g>
       <use style="stroke:#000000;stroke-width:0.6;" x="280.173373" xlink:href="#m51dcef76c5" y="310.99049"/>
      </g>
     </g>
    </g>
    <g id="xtick_125">
     <g id="line2d_125">
      <g>
       <use style="stroke:#000000;stroke-width:0.6;" x="284.132575" xlink:href="#m51dcef76c5" y="310.99049"/>
      </g>
     </g>
    </g>
    <g id="xtick_126">
     <g id="line2d_126">
      <g>
       <use style="stroke:#000000;stroke-width:0.6;" x="286.112176" xlink:href="#m51dcef76c5" y="310.99049"/>
      </g>
     </g>
    </g>
    <g id="xtick_127">
     <g id="line2d_127">
      <g>
       <use style="stroke:#000000;stroke-width:0.6;" x="288.091777" xlink:href="#m51dcef76c5" y="310.99049"/>
      </g>
     </g>
    </g>
    <g id="xtick_128">
     <g id="line2d_128">
      <g>
       <use style="stroke:#000000;stroke-width:0.6;" x="290.071377" xlink:href="#m51dcef76c5" y="310.99049"/>
      </g>
     </g>
    </g>
    <g id="xtick_129">
     <g id="line2d_129">
      <g>
       <use style="stroke:#000000;stroke-width:0.6;" x="292.050978" xlink:href="#m51dcef76c5" y="310.99049"/>
      </g>
     </g>
    </g>
    <g id="xtick_130">
     <g id="line2d_130">
      <g>
       <use style="stroke:#000000;stroke-width:0.6;" x="294.030579" xlink:href="#m51dcef76c5" y="310.99049"/>
      </g>
     </g>
    </g>
    <g id="xtick_131">
     <g id="line2d_131">
      <g>
       <use style="stroke:#000000;stroke-width:0.6;" x="296.01018" xlink:href="#m51dcef76c5" y="310.99049"/>
      </g>
     </g>
    </g>
    <g id="xtick_132">
     <g id="line2d_132">
      <g>
       <use style="stroke:#000000;stroke-width:0.6;" x="297.989781" xlink:href="#m51dcef76c5" y="310.99049"/>
      </g>
     </g>
    </g>
    <g id="xtick_133">
     <g id="line2d_133">
      <g>
       <use style="stroke:#000000;stroke-width:0.6;" x="299.969382" xlink:href="#m51dcef76c5" y="310.99049"/>
      </g>
     </g>
    </g>
    <g id="xtick_134">
     <g id="line2d_134">
      <g>
       <use style="stroke:#000000;stroke-width:0.6;" x="303.928584" xlink:href="#m51dcef76c5" y="310.99049"/>
      </g>
     </g>
    </g>
    <g id="xtick_135">
     <g id="line2d_135">
      <g>
       <use style="stroke:#000000;stroke-width:0.6;" x="305.908185" xlink:href="#m51dcef76c5" y="310.99049"/>
      </g>
     </g>
    </g>
    <g id="xtick_136">
     <g id="line2d_136">
      <g>
       <use style="stroke:#000000;stroke-width:0.6;" x="307.887785" xlink:href="#m51dcef76c5" y="310.99049"/>
      </g>
     </g>
    </g>
    <g id="xtick_137">
     <g id="line2d_137">
      <g>
       <use style="stroke:#000000;stroke-width:0.6;" x="309.867386" xlink:href="#m51dcef76c5" y="310.99049"/>
      </g>
     </g>
    </g>
    <g id="xtick_138">
     <g id="line2d_138">
      <g>
       <use style="stroke:#000000;stroke-width:0.6;" x="311.846987" xlink:href="#m51dcef76c5" y="310.99049"/>
      </g>
     </g>
    </g>
    <g id="xtick_139">
     <g id="line2d_139">
      <g>
       <use style="stroke:#000000;stroke-width:0.6;" x="313.826588" xlink:href="#m51dcef76c5" y="310.99049"/>
      </g>
     </g>
    </g>
    <g id="xtick_140">
     <g id="line2d_140">
      <g>
       <use style="stroke:#000000;stroke-width:0.6;" x="315.806189" xlink:href="#m51dcef76c5" y="310.99049"/>
      </g>
     </g>
    </g>
    <g id="xtick_141">
     <g id="line2d_141">
      <g>
       <use style="stroke:#000000;stroke-width:0.6;" x="317.78579" xlink:href="#m51dcef76c5" y="310.99049"/>
      </g>
     </g>
    </g>
    <g id="xtick_142">
     <g id="line2d_142">
      <g>
       <use style="stroke:#000000;stroke-width:0.6;" x="319.765391" xlink:href="#m51dcef76c5" y="310.99049"/>
      </g>
     </g>
    </g>
    <g id="xtick_143">
     <g id="line2d_143">
      <g>
       <use style="stroke:#000000;stroke-width:0.6;" x="323.724593" xlink:href="#m51dcef76c5" y="310.99049"/>
      </g>
     </g>
    </g>
    <g id="xtick_144">
     <g id="line2d_144">
      <g>
       <use style="stroke:#000000;stroke-width:0.6;" x="325.704193" xlink:href="#m51dcef76c5" y="310.99049"/>
      </g>
     </g>
    </g>
    <g id="xtick_145">
     <g id="line2d_145">
      <g>
       <use style="stroke:#000000;stroke-width:0.6;" x="327.683794" xlink:href="#m51dcef76c5" y="310.99049"/>
      </g>
     </g>
    </g>
    <g id="xtick_146">
     <g id="line2d_146">
      <g>
       <use style="stroke:#000000;stroke-width:0.6;" x="329.663395" xlink:href="#m51dcef76c5" y="310.99049"/>
      </g>
     </g>
    </g>
    <g id="xtick_147">
     <g id="line2d_147">
      <g>
       <use style="stroke:#000000;stroke-width:0.6;" x="331.642996" xlink:href="#m51dcef76c5" y="310.99049"/>
      </g>
     </g>
    </g>
    <g id="xtick_148">
     <g id="line2d_148">
      <g>
       <use style="stroke:#000000;stroke-width:0.6;" x="333.622597" xlink:href="#m51dcef76c5" y="310.99049"/>
      </g>
     </g>
    </g>
    <g id="xtick_149">
     <g id="line2d_149">
      <g>
       <use style="stroke:#000000;stroke-width:0.6;" x="335.602198" xlink:href="#m51dcef76c5" y="310.99049"/>
      </g>
     </g>
    </g>
    <g id="xtick_150">
     <g id="line2d_150">
      <g>
       <use style="stroke:#000000;stroke-width:0.6;" x="337.581799" xlink:href="#m51dcef76c5" y="310.99049"/>
      </g>
     </g>
    </g>
    <g id="xtick_151">
     <g id="line2d_151">
      <g>
       <use style="stroke:#000000;stroke-width:0.6;" x="339.5614" xlink:href="#m51dcef76c5" y="310.99049"/>
      </g>
     </g>
    </g>
    <g id="xtick_152">
     <g id="line2d_152">
      <g>
       <use style="stroke:#000000;stroke-width:0.6;" x="343.520601" xlink:href="#m51dcef76c5" y="310.99049"/>
      </g>
     </g>
    </g>
    <g id="xtick_153">
     <g id="line2d_153">
      <g>
       <use style="stroke:#000000;stroke-width:0.6;" x="345.500202" xlink:href="#m51dcef76c5" y="310.99049"/>
      </g>
     </g>
    </g>
    <g id="xtick_154">
     <g id="line2d_154">
      <g>
       <use style="stroke:#000000;stroke-width:0.6;" x="347.479803" xlink:href="#m51dcef76c5" y="310.99049"/>
      </g>
     </g>
    </g>
    <g id="xtick_155">
     <g id="line2d_155">
      <g>
       <use style="stroke:#000000;stroke-width:0.6;" x="349.459404" xlink:href="#m51dcef76c5" y="310.99049"/>
      </g>
     </g>
    </g>
    <g id="xtick_156">
     <g id="line2d_156">
      <g>
       <use style="stroke:#000000;stroke-width:0.6;" x="351.439005" xlink:href="#m51dcef76c5" y="310.99049"/>
      </g>
     </g>
    </g>
    <g id="xtick_157">
     <g id="line2d_157">
      <g>
       <use style="stroke:#000000;stroke-width:0.6;" x="353.418606" xlink:href="#m51dcef76c5" y="310.99049"/>
      </g>
     </g>
    </g>
    <g id="xtick_158">
     <g id="line2d_158">
      <g>
       <use style="stroke:#000000;stroke-width:0.6;" x="355.398207" xlink:href="#m51dcef76c5" y="310.99049"/>
      </g>
     </g>
    </g>
    <g id="xtick_159">
     <g id="line2d_159">
      <g>
       <use style="stroke:#000000;stroke-width:0.6;" x="357.377808" xlink:href="#m51dcef76c5" y="310.99049"/>
      </g>
     </g>
    </g>
    <g id="xtick_160">
     <g id="line2d_160">
      <g>
       <use style="stroke:#000000;stroke-width:0.6;" x="359.357409" xlink:href="#m51dcef76c5" y="310.99049"/>
      </g>
     </g>
    </g>
    <g id="xtick_161">
     <g id="line2d_161">
      <g>
       <use style="stroke:#000000;stroke-width:0.6;" x="363.31661" xlink:href="#m51dcef76c5" y="310.99049"/>
      </g>
     </g>
    </g>
    <g id="xtick_162">
     <g id="line2d_162">
      <g>
       <use style="stroke:#000000;stroke-width:0.6;" x="365.296211" xlink:href="#m51dcef76c5" y="310.99049"/>
      </g>
     </g>
    </g>
    <g id="xtick_163">
     <g id="line2d_163">
      <g>
       <use style="stroke:#000000;stroke-width:0.6;" x="367.275812" xlink:href="#m51dcef76c5" y="310.99049"/>
      </g>
     </g>
    </g>
    <g id="xtick_164">
     <g id="line2d_164">
      <g>
       <use style="stroke:#000000;stroke-width:0.6;" x="369.255413" xlink:href="#m51dcef76c5" y="310.99049"/>
      </g>
     </g>
    </g>
    <g id="xtick_165">
     <g id="line2d_165">
      <g>
       <use style="stroke:#000000;stroke-width:0.6;" x="371.235014" xlink:href="#m51dcef76c5" y="310.99049"/>
      </g>
     </g>
    </g>
    <g id="xtick_166">
     <g id="line2d_166">
      <g>
       <use style="stroke:#000000;stroke-width:0.6;" x="373.214615" xlink:href="#m51dcef76c5" y="310.99049"/>
      </g>
     </g>
    </g>
    <g id="xtick_167">
     <g id="line2d_167">
      <g>
       <use style="stroke:#000000;stroke-width:0.6;" x="375.194216" xlink:href="#m51dcef76c5" y="310.99049"/>
      </g>
     </g>
    </g>
    <g id="xtick_168">
     <g id="line2d_168">
      <g>
       <use style="stroke:#000000;stroke-width:0.6;" x="377.173817" xlink:href="#m51dcef76c5" y="310.99049"/>
      </g>
     </g>
    </g>
    <g id="xtick_169">
     <g id="line2d_169">
      <g>
       <use style="stroke:#000000;stroke-width:0.6;" x="379.153417" xlink:href="#m51dcef76c5" y="310.99049"/>
      </g>
     </g>
    </g>
    <g id="xtick_170">
     <g id="line2d_170">
      <g>
       <use style="stroke:#000000;stroke-width:0.6;" x="383.112619" xlink:href="#m51dcef76c5" y="310.99049"/>
      </g>
     </g>
    </g>
    <g id="xtick_171">
     <g id="line2d_171">
      <g>
       <use style="stroke:#000000;stroke-width:0.6;" x="385.09222" xlink:href="#m51dcef76c5" y="310.99049"/>
      </g>
     </g>
    </g>
    <g id="xtick_172">
     <g id="line2d_172">
      <g>
       <use style="stroke:#000000;stroke-width:0.6;" x="387.071821" xlink:href="#m51dcef76c5" y="310.99049"/>
      </g>
     </g>
    </g>
    <g id="xtick_173">
     <g id="line2d_173">
      <g>
       <use style="stroke:#000000;stroke-width:0.6;" x="389.051422" xlink:href="#m51dcef76c5" y="310.99049"/>
      </g>
     </g>
    </g>
    <g id="xtick_174">
     <g id="line2d_174">
      <g>
       <use style="stroke:#000000;stroke-width:0.6;" x="391.031023" xlink:href="#m51dcef76c5" y="310.99049"/>
      </g>
     </g>
    </g>
    <g id="xtick_175">
     <g id="line2d_175">
      <g>
       <use style="stroke:#000000;stroke-width:0.6;" x="393.010624" xlink:href="#m51dcef76c5" y="310.99049"/>
      </g>
     </g>
    </g>
    <g id="xtick_176">
     <g id="line2d_176">
      <g>
       <use style="stroke:#000000;stroke-width:0.6;" x="394.990225" xlink:href="#m51dcef76c5" y="310.99049"/>
      </g>
     </g>
    </g>
    <g id="xtick_177">
     <g id="line2d_177">
      <g>
       <use style="stroke:#000000;stroke-width:0.6;" x="396.969825" xlink:href="#m51dcef76c5" y="310.99049"/>
      </g>
     </g>
    </g>
    <g id="xtick_178">
     <g id="line2d_178">
      <g>
       <use style="stroke:#000000;stroke-width:0.6;" x="398.949426" xlink:href="#m51dcef76c5" y="310.99049"/>
      </g>
     </g>
    </g>
    <g id="xtick_179">
     <g id="line2d_179">
      <g>
       <use style="stroke:#000000;stroke-width:0.6;" x="402.908628" xlink:href="#m51dcef76c5" y="310.99049"/>
      </g>
     </g>
    </g>
    <g id="xtick_180">
     <g id="line2d_180">
      <g>
       <use style="stroke:#000000;stroke-width:0.6;" x="404.888229" xlink:href="#m51dcef76c5" y="310.99049"/>
      </g>
     </g>
    </g>
    <g id="xtick_181">
     <g id="line2d_181">
      <g>
       <use style="stroke:#000000;stroke-width:0.6;" x="406.86783" xlink:href="#m51dcef76c5" y="310.99049"/>
      </g>
     </g>
    </g>
    <g id="text_19">
     <!-- Residue Number -->
     <defs>
      <path d="M 44.390625 34.1875 
Q 47.5625 33.109375 50.5625 29.59375 
Q 53.5625 26.078125 56.59375 19.921875 
L 66.609375 0 
L 56 0 
L 46.6875 18.703125 
Q 43.0625 26.03125 39.671875 28.421875 
Q 36.28125 30.8125 30.421875 30.8125 
L 19.671875 30.8125 
L 19.671875 0 
L 9.8125 0 
L 9.8125 72.90625 
L 32.078125 72.90625 
Q 44.578125 72.90625 50.734375 67.671875 
Q 56.890625 62.453125 56.890625 51.90625 
Q 56.890625 45.015625 53.6875 40.46875 
Q 50.484375 35.9375 44.390625 34.1875 
z
M 19.671875 64.796875 
L 19.671875 38.921875 
L 32.078125 38.921875 
Q 39.203125 38.921875 42.84375 42.21875 
Q 46.484375 45.515625 46.484375 51.90625 
Q 46.484375 58.296875 42.84375 61.546875 
Q 39.203125 64.796875 32.078125 64.796875 
z
" id="DejaVuSans-82"/>
      <path d="M 56.203125 29.59375 
L 56.203125 25.203125 
L 14.890625 25.203125 
Q 15.484375 15.921875 20.484375 11.0625 
Q 25.484375 6.203125 34.421875 6.203125 
Q 39.59375 6.203125 44.453125 7.46875 
Q 49.3125 8.734375 54.109375 11.28125 
L 54.109375 2.78125 
Q 49.265625 0.734375 44.1875 -0.34375 
Q 39.109375 -1.421875 33.890625 -1.421875 
Q 20.796875 -1.421875 13.15625 6.1875 
Q 5.515625 13.8125 5.515625 26.8125 
Q 5.515625 40.234375 12.765625 48.109375 
Q 20.015625 56 32.328125 56 
Q 43.359375 56 49.78125 48.890625 
Q 56.203125 41.796875 56.203125 29.59375 
z
M 47.21875 32.234375 
Q 47.125 39.59375 43.09375 43.984375 
Q 39.0625 48.390625 32.421875 48.390625 
Q 24.90625 48.390625 20.390625 44.140625 
Q 15.875 39.890625 15.1875 32.171875 
z
" id="DejaVuSans-101"/>
      <path d="M 44.28125 53.078125 
L 44.28125 44.578125 
Q 40.484375 46.53125 36.375 47.5 
Q 32.28125 48.484375 27.875 48.484375 
Q 21.1875 48.484375 17.84375 46.4375 
Q 14.5 44.390625 14.5 40.28125 
Q 14.5 37.15625 16.890625 35.375 
Q 19.28125 33.59375 26.515625 31.984375 
L 29.59375 31.296875 
Q 39.15625 29.25 43.1875 25.515625 
Q 47.21875 21.78125 47.21875 15.09375 
Q 47.21875 7.46875 41.1875 3.015625 
Q 35.15625 -1.421875 24.609375 -1.421875 
Q 20.21875 -1.421875 15.453125 -0.5625 
Q 10.6875 0.296875 5.421875 2 
L 5.421875 11.28125 
Q 10.40625 8.6875 15.234375 7.390625 
Q 20.0625 6.109375 24.8125 6.109375 
Q 31.15625 6.109375 34.5625 8.28125 
Q 37.984375 10.453125 37.984375 14.40625 
Q 37.984375 18.0625 35.515625 20.015625 
Q 33.0625 21.96875 24.703125 23.78125 
L 21.578125 24.515625 
Q 13.234375 26.265625 9.515625 29.90625 
Q 5.8125 33.546875 5.8125 39.890625 
Q 5.8125 47.609375 11.28125 51.796875 
Q 16.75 56 26.8125 56 
Q 31.78125 56 36.171875 55.265625 
Q 40.578125 54.546875 44.28125 53.078125 
z
" id="DejaVuSans-115"/>
      <path d="M 9.421875 54.6875 
L 18.40625 54.6875 
L 18.40625 0 
L 9.421875 0 
z
M 9.421875 75.984375 
L 18.40625 75.984375 
L 18.40625 64.59375 
L 9.421875 64.59375 
z
" id="DejaVuSans-105"/>
      <path d="M 45.40625 46.390625 
L 45.40625 75.984375 
L 54.390625 75.984375 
L 54.390625 0 
L 45.40625 0 
L 45.40625 8.203125 
Q 42.578125 3.328125 38.25 0.953125 
Q 33.9375 -1.421875 27.875 -1.421875 
Q 17.96875 -1.421875 11.734375 6.484375 
Q 5.515625 14.40625 5.515625 27.296875 
Q 5.515625 40.1875 11.734375 48.09375 
Q 17.96875 56 27.875 56 
Q 33.9375 56 38.25 53.625 
Q 42.578125 51.265625 45.40625 46.390625 
z
M 14.796875 27.296875 
Q 14.796875 17.390625 18.875 11.75 
Q 22.953125 6.109375 30.078125 6.109375 
Q 37.203125 6.109375 41.296875 11.75 
Q 45.40625 17.390625 45.40625 27.296875 
Q 45.40625 37.203125 41.296875 42.84375 
Q 37.203125 48.484375 30.078125 48.484375 
Q 22.953125 48.484375 18.875 42.84375 
Q 14.796875 37.203125 14.796875 27.296875 
z
" id="DejaVuSans-100"/>
      <path d="M 8.5 21.578125 
L 8.5 54.6875 
L 17.484375 54.6875 
L 17.484375 21.921875 
Q 17.484375 14.15625 20.5 10.265625 
Q 23.53125 6.390625 29.59375 6.390625 
Q 36.859375 6.390625 41.078125 11.03125 
Q 45.3125 15.671875 45.3125 23.6875 
L 45.3125 54.6875 
L 54.296875 54.6875 
L 54.296875 0 
L 45.3125 0 
L 45.3125 8.40625 
Q 42.046875 3.421875 37.71875 1 
Q 33.40625 -1.421875 27.6875 -1.421875 
Q 18.265625 -1.421875 13.375 4.4375 
Q 8.5 10.296875 8.5 21.578125 
z
M 31.109375 56 
z
" id="DejaVuSans-117"/>
      <path id="DejaVuSans-32"/>
      <path d="M 9.8125 72.90625 
L 23.09375 72.90625 
L 55.421875 11.921875 
L 55.421875 72.90625 
L 64.984375 72.90625 
L 64.984375 0 
L 51.703125 0 
L 19.390625 60.984375 
L 19.390625 0 
L 9.8125 0 
z
" id="DejaVuSans-78"/>
      <path d="M 52 44.1875 
Q 55.375 50.25 60.0625 53.125 
Q 64.75 56 71.09375 56 
Q 79.640625 56 84.28125 50.015625 
Q 88.921875 44.046875 88.921875 33.015625 
L 88.921875 0 
L 79.890625 0 
L 79.890625 32.71875 
Q 79.890625 40.578125 77.09375 44.375 
Q 74.3125 48.1875 68.609375 48.1875 
Q 61.625 48.1875 57.5625 43.546875 
Q 53.515625 38.921875 53.515625 30.90625 
L 53.515625 0 
L 44.484375 0 
L 44.484375 32.71875 
Q 44.484375 40.625 41.703125 44.40625 
Q 38.921875 48.1875 33.109375 48.1875 
Q 26.21875 48.1875 22.15625 43.53125 
Q 18.109375 38.875 18.109375 30.90625 
L 18.109375 0 
L 9.078125 0 
L 9.078125 54.6875 
L 18.109375 54.6875 
L 18.109375 46.1875 
Q 21.1875 51.21875 25.484375 53.609375 
Q 29.78125 56 35.6875 56 
Q 41.65625 56 45.828125 52.96875 
Q 50 49.953125 52 44.1875 
z
" id="DejaVuSans-109"/>
      <path d="M 48.6875 27.296875 
Q 48.6875 37.203125 44.609375 42.84375 
Q 40.53125 48.484375 33.40625 48.484375 
Q 26.265625 48.484375 22.1875 42.84375 
Q 18.109375 37.203125 18.109375 27.296875 
Q 18.109375 17.390625 22.1875 11.75 
Q 26.265625 6.109375 33.40625 6.109375 
Q 40.53125 6.109375 44.609375 11.75 
Q 48.6875 17.390625 48.6875 27.296875 
z
M 18.109375 46.390625 
Q 20.953125 51.265625 25.265625 53.625 
Q 29.59375 56 35.59375 56 
Q 45.5625 56 51.78125 48.09375 
Q 58.015625 40.1875 58.015625 27.296875 
Q 58.015625 14.40625 51.78125 6.484375 
Q 45.5625 -1.421875 35.59375 -1.421875 
Q 29.59375 -1.421875 25.265625 0.953125 
Q 20.953125 3.328125 18.109375 8.203125 
L 18.109375 0 
L 9.078125 0 
L 9.078125 75.984375 
L 18.109375 75.984375 
z
" id="DejaVuSans-98"/>
      <path d="M 41.109375 46.296875 
Q 39.59375 47.171875 37.8125 47.578125 
Q 36.03125 48 33.890625 48 
Q 26.265625 48 22.1875 43.046875 
Q 18.109375 38.09375 18.109375 28.8125 
L 18.109375 0 
L 9.078125 0 
L 9.078125 54.6875 
L 18.109375 54.6875 
L 18.109375 46.1875 
Q 20.953125 51.171875 25.484375 53.578125 
Q 30.03125 56 36.53125 56 
Q 37.453125 56 38.578125 55.875 
Q 39.703125 55.765625 41.0625 55.515625 
z
" id="DejaVuSans-114"/>
     </defs>
     <g transform="translate(187.067813 339.267052)scale(0.1 -0.1)">
      <use xlink:href="#DejaVuSans-82"/>
      <use x="69.419922" xlink:href="#DejaVuSans-101"/>
      <use x="130.943359" xlink:href="#DejaVuSans-115"/>
      <use x="183.042969" xlink:href="#DejaVuSans-105"/>
      <use x="210.826172" xlink:href="#DejaVuSans-100"/>
      <use x="274.302734" xlink:href="#DejaVuSans-117"/>
      <use x="337.681641" xlink:href="#DejaVuSans-101"/>
      <use x="399.205078" xlink:href="#DejaVuSans-32"/>
      <use x="430.992188" xlink:href="#DejaVuSans-78"/>
      <use x="505.796875" xlink:href="#DejaVuSans-117"/>
      <use x="569.175781" xlink:href="#DejaVuSans-109"/>
      <use x="666.587891" xlink:href="#DejaVuSans-98"/>
      <use x="730.064453" xlink:href="#DejaVuSans-101"/>
      <use x="791.587891" xlink:href="#DejaVuSans-114"/>
     </g>
    </g>
   </g>
   <g id="matplotlib.axis_2">
    <g id="ytick_1">
     <g id="line2d_182">
      <defs>
       <path d="M 0 0 
L -3.5 0 
" id="m0593afdac8" style="stroke:#000000;stroke-width:0.8;"/>
      </defs>
      <g>
       <use style="stroke:#000000;stroke-width:0.8;" x="50.14375" xlink:href="#m0593afdac8" y="310.99049"/>
      </g>
     </g>
     <g id="text_20">
      <!-- 0 -->
      <g transform="translate(36.78125 314.789709)scale(0.1 -0.1)">
       <use xlink:href="#DejaVuSans-48"/>
      </g>
     </g>
    </g>
    <g id="ytick_2">
     <g id="line2d_183">
      <g>
       <use style="stroke:#000000;stroke-width:0.8;" x="50.14375" xlink:href="#m0593afdac8" y="284.37929"/>
      </g>
     </g>
     <g id="text_21">
      <!-- 0.1 -->
      <defs>
       <path d="M 10.6875 12.40625 
L 21 12.40625 
L 21 0 
L 10.6875 0 
z
" id="DejaVuSans-46"/>
      </defs>
      <g transform="translate(27.240625 288.178509)scale(0.1 -0.1)">
       <use xlink:href="#DejaVuSans-48"/>
       <use x="63.623047" xlink:href="#DejaVuSans-46"/>
       <use x="95.410156" xlink:href="#DejaVuSans-49"/>
      </g>
     </g>
    </g>
    <g id="ytick_3">
     <g id="line2d_184">
      <g>
       <use style="stroke:#000000;stroke-width:0.8;" x="50.14375" xlink:href="#m0593afdac8" y="257.76809"/>
      </g>
     </g>
     <g id="text_22">
      <!-- 0.2 -->
      <g transform="translate(27.240625 261.567309)scale(0.1 -0.1)">
       <use xlink:href="#DejaVuSans-48"/>
       <use x="63.623047" xlink:href="#DejaVuSans-46"/>
       <use x="95.410156" xlink:href="#DejaVuSans-50"/>
      </g>
     </g>
    </g>
    <g id="ytick_4">
     <g id="line2d_185">
      <g>
       <use style="stroke:#000000;stroke-width:0.8;" x="50.14375" xlink:href="#m0593afdac8" y="231.15689"/>
      </g>
     </g>
     <g id="text_23">
      <!-- 0.3 -->
      <g transform="translate(27.240625 234.956109)scale(0.1 -0.1)">
       <use xlink:href="#DejaVuSans-48"/>
       <use x="63.623047" xlink:href="#DejaVuSans-46"/>
       <use x="95.410156" xlink:href="#DejaVuSans-51"/>
      </g>
     </g>
    </g>
    <g id="ytick_5">
     <g id="line2d_186">
      <g>
       <use style="stroke:#000000;stroke-width:0.8;" x="50.14375" xlink:href="#m0593afdac8" y="204.54569"/>
      </g>
     </g>
     <g id="text_24">
      <!-- 0.4 -->
      <g transform="translate(27.240625 208.344909)scale(0.1 -0.1)">
       <use xlink:href="#DejaVuSans-48"/>
       <use x="63.623047" xlink:href="#DejaVuSans-46"/>
       <use x="95.410156" xlink:href="#DejaVuSans-52"/>
      </g>
     </g>
    </g>
    <g id="ytick_6">
     <g id="line2d_187">
      <g>
       <use style="stroke:#000000;stroke-width:0.8;" x="50.14375" xlink:href="#m0593afdac8" y="177.93449"/>
      </g>
     </g>
     <g id="text_25">
      <!-- 0.5 -->
      <g transform="translate(27.240625 181.733709)scale(0.1 -0.1)">
       <use xlink:href="#DejaVuSans-48"/>
       <use x="63.623047" xlink:href="#DejaVuSans-46"/>
       <use x="95.410156" xlink:href="#DejaVuSans-53"/>
      </g>
     </g>
    </g>
    <g id="ytick_7">
     <g id="line2d_188">
      <g>
       <use style="stroke:#000000;stroke-width:0.8;" x="50.14375" xlink:href="#m0593afdac8" y="151.32329"/>
      </g>
     </g>
     <g id="text_26">
      <!-- 0.6 -->
      <g transform="translate(27.240625 155.122509)scale(0.1 -0.1)">
       <use xlink:href="#DejaVuSans-48"/>
       <use x="63.623047" xlink:href="#DejaVuSans-46"/>
       <use x="95.410156" xlink:href="#DejaVuSans-54"/>
      </g>
     </g>
    </g>
    <g id="ytick_8">
     <g id="line2d_189">
      <g>
       <use style="stroke:#000000;stroke-width:0.8;" x="50.14375" xlink:href="#m0593afdac8" y="124.71209"/>
      </g>
     </g>
     <g id="text_27">
      <!-- 0.7 -->
      <g transform="translate(27.240625 128.511309)scale(0.1 -0.1)">
       <use xlink:href="#DejaVuSans-48"/>
       <use x="63.623047" xlink:href="#DejaVuSans-46"/>
       <use x="95.410156" xlink:href="#DejaVuSans-55"/>
      </g>
     </g>
    </g>
    <g id="ytick_9">
     <g id="line2d_190">
      <g>
       <use style="stroke:#000000;stroke-width:0.8;" x="50.14375" xlink:href="#m0593afdac8" y="98.10089"/>
      </g>
     </g>
     <g id="text_28">
      <!-- 0.8 -->
      <g transform="translate(27.240625 101.900109)scale(0.1 -0.1)">
       <use xlink:href="#DejaVuSans-48"/>
       <use x="63.623047" xlink:href="#DejaVuSans-46"/>
       <use x="95.410156" xlink:href="#DejaVuSans-56"/>
      </g>
     </g>
    </g>
    <g id="ytick_10">
     <g id="line2d_191">
      <g>
       <use style="stroke:#000000;stroke-width:0.8;" x="50.14375" xlink:href="#m0593afdac8" y="305.753765"/>
      </g>
     </g>
     <g id="text_29">
      <!-- 0.02 -->
      <g transform="translate(20.878125 309.552984)scale(0.1 -0.1)">
       <use xlink:href="#DejaVuSans-48"/>
       <use x="63.623047" xlink:href="#DejaVuSans-46"/>
       <use x="95.410156" xlink:href="#DejaVuSans-48"/>
       <use x="159.033203" xlink:href="#DejaVuSans-50"/>
      </g>
     </g>
    </g>
    <g id="text_30">
     <!-- Backbone Discrimination Score -->
     <defs>
      <path d="M 19.671875 34.8125 
L 19.671875 8.109375 
L 35.5 8.109375 
Q 43.453125 8.109375 47.28125 11.40625 
Q 51.125 14.703125 51.125 21.484375 
Q 51.125 28.328125 47.28125 31.5625 
Q 43.453125 34.8125 35.5 34.8125 
z
M 19.671875 64.796875 
L 19.671875 42.828125 
L 34.28125 42.828125 
Q 41.5 42.828125 45.03125 45.53125 
Q 48.578125 48.25 48.578125 53.8125 
Q 48.578125 59.328125 45.03125 62.0625 
Q 41.5 64.796875 34.28125 64.796875 
z
M 9.8125 72.90625 
L 35.015625 72.90625 
Q 46.296875 72.90625 52.390625 68.21875 
Q 58.5 63.53125 58.5 54.890625 
Q 58.5 48.1875 55.375 44.234375 
Q 52.25 40.28125 46.1875 39.3125 
Q 53.46875 37.75 57.5 32.78125 
Q 61.53125 27.828125 61.53125 20.40625 
Q 61.53125 10.640625 54.890625 5.3125 
Q 48.25 0 35.984375 0 
L 9.8125 0 
z
" id="DejaVuSans-66"/>
      <path d="M 34.28125 27.484375 
Q 23.390625 27.484375 19.1875 25 
Q 14.984375 22.515625 14.984375 16.5 
Q 14.984375 11.71875 18.140625 8.90625 
Q 21.296875 6.109375 26.703125 6.109375 
Q 34.1875 6.109375 38.703125 11.40625 
Q 43.21875 16.703125 43.21875 25.484375 
L 43.21875 27.484375 
z
M 52.203125 31.203125 
L 52.203125 0 
L 43.21875 0 
L 43.21875 8.296875 
Q 40.140625 3.328125 35.546875 0.953125 
Q 30.953125 -1.421875 24.3125 -1.421875 
Q 15.921875 -1.421875 10.953125 3.296875 
Q 6 8.015625 6 15.921875 
Q 6 25.140625 12.171875 29.828125 
Q 18.359375 34.515625 30.609375 34.515625 
L 43.21875 34.515625 
L 43.21875 35.40625 
Q 43.21875 41.609375 39.140625 45 
Q 35.0625 48.390625 27.6875 48.390625 
Q 23 48.390625 18.546875 47.265625 
Q 14.109375 46.140625 10.015625 43.890625 
L 10.015625 52.203125 
Q 14.9375 54.109375 19.578125 55.046875 
Q 24.21875 56 28.609375 56 
Q 40.484375 56 46.34375 49.84375 
Q 52.203125 43.703125 52.203125 31.203125 
z
" id="DejaVuSans-97"/>
      <path d="M 48.78125 52.59375 
L 48.78125 44.1875 
Q 44.96875 46.296875 41.140625 47.34375 
Q 37.3125 48.390625 33.40625 48.390625 
Q 24.65625 48.390625 19.8125 42.84375 
Q 14.984375 37.3125 14.984375 27.296875 
Q 14.984375 17.28125 19.8125 11.734375 
Q 24.65625 6.203125 33.40625 6.203125 
Q 37.3125 6.203125 41.140625 7.25 
Q 44.96875 8.296875 48.78125 10.40625 
L 48.78125 2.09375 
Q 45.015625 0.34375 40.984375 -0.53125 
Q 36.96875 -1.421875 32.421875 -1.421875 
Q 20.0625 -1.421875 12.78125 6.34375 
Q 5.515625 14.109375 5.515625 27.296875 
Q 5.515625 40.671875 12.859375 48.328125 
Q 20.21875 56 33.015625 56 
Q 37.15625 56 41.109375 55.140625 
Q 45.0625 54.296875 48.78125 52.59375 
z
" id="DejaVuSans-99"/>
      <path d="M 9.078125 75.984375 
L 18.109375 75.984375 
L 18.109375 31.109375 
L 44.921875 54.6875 
L 56.390625 54.6875 
L 27.390625 29.109375 
L 57.625 0 
L 45.90625 0 
L 18.109375 26.703125 
L 18.109375 0 
L 9.078125 0 
z
" id="DejaVuSans-107"/>
      <path d="M 30.609375 48.390625 
Q 23.390625 48.390625 19.1875 42.75 
Q 14.984375 37.109375 14.984375 27.296875 
Q 14.984375 17.484375 19.15625 11.84375 
Q 23.34375 6.203125 30.609375 6.203125 
Q 37.796875 6.203125 41.984375 11.859375 
Q 46.1875 17.53125 46.1875 27.296875 
Q 46.1875 37.015625 41.984375 42.703125 
Q 37.796875 48.390625 30.609375 48.390625 
z
M 30.609375 56 
Q 42.328125 56 49.015625 48.375 
Q 55.71875 40.765625 55.71875 27.296875 
Q 55.71875 13.875 49.015625 6.21875 
Q 42.328125 -1.421875 30.609375 -1.421875 
Q 18.84375 -1.421875 12.171875 6.21875 
Q 5.515625 13.875 5.515625 27.296875 
Q 5.515625 40.765625 12.171875 48.375 
Q 18.84375 56 30.609375 56 
z
" id="DejaVuSans-111"/>
      <path d="M 54.890625 33.015625 
L 54.890625 0 
L 45.90625 0 
L 45.90625 32.71875 
Q 45.90625 40.484375 42.875 44.328125 
Q 39.84375 48.1875 33.796875 48.1875 
Q 26.515625 48.1875 22.3125 43.546875 
Q 18.109375 38.921875 18.109375 30.90625 
L 18.109375 0 
L 9.078125 0 
L 9.078125 54.6875 
L 18.109375 54.6875 
L 18.109375 46.1875 
Q 21.34375 51.125 25.703125 53.5625 
Q 30.078125 56 35.796875 56 
Q 45.21875 56 50.046875 50.171875 
Q 54.890625 44.34375 54.890625 33.015625 
z
" id="DejaVuSans-110"/>
      <path d="M 19.671875 64.796875 
L 19.671875 8.109375 
L 31.59375 8.109375 
Q 46.6875 8.109375 53.6875 14.9375 
Q 60.6875 21.78125 60.6875 36.53125 
Q 60.6875 51.171875 53.6875 57.984375 
Q 46.6875 64.796875 31.59375 64.796875 
z
M 9.8125 72.90625 
L 30.078125 72.90625 
Q 51.265625 72.90625 61.171875 64.09375 
Q 71.09375 55.28125 71.09375 36.53125 
Q 71.09375 17.671875 61.125 8.828125 
Q 51.171875 0 30.078125 0 
L 9.8125 0 
z
" id="DejaVuSans-68"/>
      <path d="M 18.3125 70.21875 
L 18.3125 54.6875 
L 36.8125 54.6875 
L 36.8125 47.703125 
L 18.3125 47.703125 
L 18.3125 18.015625 
Q 18.3125 11.328125 20.140625 9.421875 
Q 21.96875 7.515625 27.59375 7.515625 
L 36.8125 7.515625 
L 36.8125 0 
L 27.59375 0 
Q 17.1875 0 13.234375 3.875 
Q 9.28125 7.765625 9.28125 18.015625 
L 9.28125 47.703125 
L 2.6875 47.703125 
L 2.6875 54.6875 
L 9.28125 54.6875 
L 9.28125 70.21875 
z
" id="DejaVuSans-116"/>
      <path d="M 53.515625 70.515625 
L 53.515625 60.890625 
Q 47.90625 63.578125 42.921875 64.890625 
Q 37.9375 66.21875 33.296875 66.21875 
Q 25.25 66.21875 20.875 63.09375 
Q 16.5 59.96875 16.5 54.203125 
Q 16.5 49.359375 19.40625 46.890625 
Q 22.3125 44.4375 30.421875 42.921875 
L 36.375 41.703125 
Q 47.40625 39.59375 52.65625 34.296875 
Q 57.90625 29 57.90625 20.125 
Q 57.90625 9.515625 50.796875 4.046875 
Q 43.703125 -1.421875 29.984375 -1.421875 
Q 24.8125 -1.421875 18.96875 -0.25 
Q 13.140625 0.921875 6.890625 3.21875 
L 6.890625 13.375 
Q 12.890625 10.015625 18.65625 8.296875 
Q 24.421875 6.59375 29.984375 6.59375 
Q 38.421875 6.59375 43.015625 9.90625 
Q 47.609375 13.234375 47.609375 19.390625 
Q 47.609375 24.75 44.3125 27.78125 
Q 41.015625 30.8125 33.5 32.328125 
L 27.484375 33.5 
Q 16.453125 35.6875 11.515625 40.375 
Q 6.59375 45.0625 6.59375 53.421875 
Q 6.59375 63.09375 13.40625 68.65625 
Q 20.21875 74.21875 32.171875 74.21875 
Q 37.3125 74.21875 42.625 73.28125 
Q 47.953125 72.359375 53.515625 70.515625 
z
" id="DejaVuSans-83"/>
     </defs>
     <g transform="translate(14.798438 255.950896)rotate(-90)scale(0.1 -0.1)">
      <use xlink:href="#DejaVuSans-66"/>
      <use x="68.603516" xlink:href="#DejaVuSans-97"/>
      <use x="129.882812" xlink:href="#DejaVuSans-99"/>
      <use x="184.863281" xlink:href="#DejaVuSans-107"/>
      <use x="242.773438" xlink:href="#DejaVuSans-98"/>
      <use x="306.25" xlink:href="#DejaVuSans-111"/>
      <use x="367.431641" xlink:href="#DejaVuSans-110"/>
      <use x="430.810547" xlink:href="#DejaVuSans-101"/>
      <use x="492.333984" xlink:href="#DejaVuSans-32"/>
      <use x="524.121094" xlink:href="#DejaVuSans-68"/>
      <use x="601.123047" xlink:href="#DejaVuSans-105"/>
      <use x="628.90625" xlink:href="#DejaVuSans-115"/>
      <use x="681.005859" xlink:href="#DejaVuSans-99"/>
      <use x="735.986328" xlink:href="#DejaVuSans-114"/>
      <use x="777.099609" xlink:href="#DejaVuSans-105"/>
      <use x="804.882812" xlink:href="#DejaVuSans-109"/>
      <use x="902.294922" xlink:href="#DejaVuSans-105"/>
      <use x="930.078125" xlink:href="#DejaVuSans-110"/>
      <use x="993.457031" xlink:href="#DejaVuSans-97"/>
      <use x="1054.736328" xlink:href="#DejaVuSans-116"/>
      <use x="1093.945312" xlink:href="#DejaVuSans-105"/>
      <use x="1121.728516" xlink:href="#DejaVuSans-111"/>
      <use x="1182.910156" xlink:href="#DejaVuSans-110"/>
      <use x="1246.289062" xlink:href="#DejaVuSans-32"/>
      <use x="1278.076172" xlink:href="#DejaVuSans-83"/>
      <use x="1341.552734" xlink:href="#DejaVuSans-99"/>
      <use x="1396.533203" xlink:href="#DejaVuSans-111"/>
      <use x="1457.714844" xlink:href="#DejaVuSans-114"/>
      <use x="1498.796875" xlink:href="#DejaVuSans-101"/>
     </g>
    </g>
   </g>
   <g id="line2d_192">
    <path clip-path="url(#p1b40655d90)" d="M 66.376477 288.803988 
L 68.356078 287.916868 
L 70.335679 275.976943 
L 72.31528 291.657296 
L 74.294881 312.881832 
L 76.274482 297.471913 
L 78.254083 258.362781 
L 80.233683 281.062975 
L 82.213284 311.832139 
L 84.192885 281.666633 
L 86.172486 299.322433 
L 88.152087 278.486401 
L 90.131688 306.021962 
L 92.111289 278.904783 
L 94.09089 263.605146 
L 96.070491 263.594261 
L 98.050091 266.294516 
L 100.029692 270.988962 
L 103.988894 295.062078 
L 105.968495 309.466978 
L 107.948096 317.821141 
L 109.927697 319.080306 
L 111.907298 307.410339 
L 113.886899 299.377421 
L 115.866499 297.978111 
L 117.8461 302.915146 
L 119.825701 316.38276 
L 121.805302 312.28466 
L 123.784903 313.822209 
L 125.764504 312.113251 
L 127.744105 293.061319 
L 129.723706 298.741206 
L 131.703307 314.900838 
L 133.682907 301.141835 
L 135.662508 294.514364 
L 137.642109 287.053072 
L 139.62171 305.159578 
L 141.601311 317.605495 
L 143.580912 293.970079 
L 145.560513 304.147155 
L 147.540114 313.533775 
L 149.519715 314.205628 
L 151.499315 310.590755 
L 153.478916 311.311331 
L 155.458517 318.78818 
L 157.438118 315.570249 
L 159.417719 299.256632 
L 163.376921 225.794267 
L 165.356522 249.773288 
L 167.336123 303.054601 
L 169.315723 314.706633 
L 171.295324 316.306742 
L 173.274925 291.756548 
L 175.254526 280.49418 
L 177.234127 317.981995 
L 179.213728 315.048824 
L 181.193329 302.513782 
L 183.17293 308.054049 
L 185.15253 300.3225 
L 187.132131 288.036306 
L 189.111732 301.822195 
L 191.091333 306.224578 
L 193.070934 285.432161 
L 195.050535 301.020706 
L 197.030136 290.862549 
L 199.009737 286.176588 
L 200.989338 280.0311 
L 202.968938 303.649655 
L 204.948539 312.6767 
L 206.92814 314.84644 
L 208.907741 315.638714 
L 210.887342 302.806845 
L 212.866943 311.606395 
L 214.846544 309.689462 
L 216.826145 320.866232 
L 218.805746 299.392987 
L 220.785346 295.480113 
L 222.764947 292.47486 
L 224.744548 307.004377 
L 226.724149 298.370995 
L 228.70375 311.748316 
L 230.683351 319.20387 
L 232.662952 302.127553 
L 234.642553 295.153429 
L 236.622154 322.417162 
L 238.601754 294.508482 
L 240.581355 292.53184 
L 242.560956 314.36679 
L 244.540557 306.405622 
L 246.520158 313.811126 
L 248.499759 286.704689 
L 250.47936 288.223323 
L 252.458961 303.039421 
L 254.438562 308.452048 
L 256.418162 312.38064 
L 258.397763 306.845944 
L 260.377364 307.400576 
L 262.356965 299.872005 
L 264.336566 295.383102 
L 266.316167 305.843122 
L 268.295768 313.793833 
L 270.275369 304.228849 
L 272.25497 290.704768 
L 274.23457 274.75754 
L 276.214171 304.453287 
L 278.193772 311.965125 
L 280.173373 309.635846 
L 282.152974 297.087368 
L 284.132575 293.626314 
L 286.112176 308.204633 
L 288.091777 297.216708 
L 292.050978 326.28376 
L 294.030579 329.430775 
L 296.01018 311.459413 
L 297.989781 301.162578 
L 299.969382 303.63388 
L 301.948983 312.81013 
L 303.928584 301.416457 
L 305.908185 296.850263 
L 307.887785 302.256823 
L 309.867386 275.615518 
L 311.846987 260.654304 
L 313.826588 318.379956 
L 315.806189 310.788431 
L 317.78579 316.874771 
L 319.765391 309.814844 
L 321.744992 310.700045 
L 323.724593 317.853693 
L 325.704193 312.006646 
L 327.683794 320.607143 
L 329.663395 323.624706 
L 331.642996 321.520618 
L 333.622597 305.803679 
L 335.602198 284.469357 
L 337.581799 301.80096 
L 339.5614 306.387902 
L 341.541001 297.679337 
L 343.520601 309.558946 
L 345.500202 314.276102 
L 347.479803 301.694463 
L 349.459404 269.585051 
L 351.439005 309.729693 
L 353.418606 256.298172 
L 355.398207 215.082524 
L 357.377808 193.258332 
L 359.357409 201.625624 
L 361.337009 221.207406 
L 363.31661 237.036575 
L 365.296211 295.678554 
L 367.275812 307.933833 
L 369.255413 317.864893 
L 371.235014 314.282558 
L 373.214615 315.361344 
L 375.194216 297.77393 
L 377.173817 297.540703 
L 379.153417 267.238579 
L 381.133018 315.013507 
L 383.112619 312.593272 
L 385.09222 284.145486 
L 387.071821 294.277663 
L 389.051422 295.093301 
L 391.031023 301.830212 
L 391.031023 301.830212 
" style="fill:none;stroke:#377eb8;stroke-linecap:square;stroke-opacity:0.4;stroke-width:1.5;"/>
   </g>
   <g id="line2d_193">
    <path clip-path="url(#p1b40655d90)" d="M 68.356078 306.696133 
L 70.335679 335.530587 
L 72.31528 304.924428 
L 74.294881 277.052263 
L 76.274482 302.917136 
L 78.254083 269.664721 
L 80.233683 308.809457 
L 82.213284 290.516473 
L 84.192885 311.354973 
L 86.172486 323.295565 
L 88.152087 333.392667 
L 90.131688 321.668819 
L 92.111289 292.446454 
L 94.09089 335.123474 
L 96.070491 326.771062 
L 98.050091 305.352257 
L 100.029692 308.328569 
L 102.009293 296.678374 
L 103.988894 290.011588 
L 105.968495 319.335122 
L 107.948096 309.665966 
L 109.927697 300.928217 
L 111.907298 315.860652 
L 113.886899 316.412297 
L 115.866499 317.451154 
L 117.8461 298.085015 
L 119.825701 303.432275 
L 121.805302 290.423809 
L 123.784903 331.611044 
L 125.764504 303.109026 
L 127.744105 325.827044 
L 129.723706 308.406771 
L 131.703307 307.29204 
L 133.682907 331.142965 
L 135.662508 325.482541 
L 137.642109 327.16745 
L 139.62171 301.140123 
L 141.601311 312.425807 
L 143.580912 313.490106 
L 145.560513 296.894965 
L 147.540114 274.322915 
L 149.519715 290.60119 
L 151.499315 323.791884 
L 153.478916 290.0216 
L 155.458517 319.18834 
L 157.438118 329.51569 
L 159.417719 319.714175 
L 163.376921 311.890226 
L 165.356522 303.460572 
L 167.336123 306.345969 
L 169.315723 323.056826 
L 171.295324 335.332299 
L 173.274925 301.884529 
L 175.254526 304.046781 
L 177.234127 311.148426 
L 179.213728 334.64738 
L 181.193329 309.847744 
L 183.17293 310.419616 
L 185.15253 317.560869 
L 187.132131 309.775266 
L 189.111732 317.579332 
L 191.091333 286.994697 
L 193.070934 297.942527 
L 195.050535 303.017856 
L 197.030136 323.962638 
L 199.009737 316.609775 
L 200.989338 322.577851 
L 202.968938 324.551639 
L 204.948539 296.129459 
L 206.92814 247.337918 
L 208.907741 302.437902 
L 212.866943 229.160189 
L 214.846544 323.915412 
L 216.826145 328.375354 
L 218.805746 337.216569 
L 220.785346 320.724573 
L 222.764947 317.922995 
L 224.744548 326.8065 
L 226.724149 337.091402 
L 228.70375 325.704847 
L 230.683351 322.048224 
L 232.662952 334.325166 
L 234.642553 299.538498 
L 236.622154 320.414697 
L 238.601754 334.15357 
L 240.581355 296.780009 
L 242.560956 305.345569 
L 244.540557 328.05928 
L 246.520158 315.180053 
L 248.499759 321.984094 
L 250.47936 296.176919 
L 252.458961 313.545411 
L 254.438562 299.704801 
L 256.418162 305.629916 
L 258.397763 329.43623 
L 260.377364 319.297905 
L 262.356965 285.020211 
L 264.336566 315.391469 
L 266.316167 324.614242 
L 270.275369 272.093283 
L 272.25497 263.543889 
L 276.214171 313.983771 
L 278.193772 330.737427 
L 280.173373 329.475242 
L 282.152974 325.598934 
L 284.132575 305.533673 
L 286.112176 316.771168 
L 288.091777 282.748256 
L 290.071377 240.364126 
L 292.050978 250.226189 
L 294.030579 324.775304 
L 296.01018 331.905657 
L 297.989781 299.733509 
L 299.969382 259.862334 
L 301.948983 288.155948 
L 303.928584 324.382667 
L 305.908185 323.91829 
L 307.887785 290.327928 
L 309.867386 323.854322 
L 311.846987 262.344943 
L 313.826588 278.180122 
L 315.806189 317.510727 
L 317.78579 274.962724 
L 319.765391 293.523161 
L 321.744992 305.661719 
L 323.724593 315.690459 
L 325.704193 334.29529 
L 327.683794 299.442402 
L 329.663395 311.963039 
L 331.642996 316.024798 
L 333.622597 293.984895 
L 335.602198 306.123191 
L 337.581799 307.742688 
L 339.5614 308.773899 
L 341.541001 271.908087 
L 343.520601 329.055851 
L 345.500202 317.132567 
L 347.479803 317.956936 
L 349.459404 318.3763 
L 351.439005 297.617 
L 353.418606 256.69427 
L 355.398207 140.929348 
L 357.377808 131.79302 
L 359.357409 229.49328 
L 361.337009 218.820858 
L 363.31661 281.25828 
L 365.296211 303.491692 
L 367.275812 313.911623 
L 369.255413 313.508936 
L 371.235014 307.676326 
L 373.214615 327.897922 
L 375.194216 322.400035 
L 377.173817 323.92952 
L 379.153417 278.258761 
L 381.133018 313.873103 
L 383.112619 312.854662 
L 385.09222 313.201381 
L 387.071821 282.674814 
L 389.051422 306.238631 
L 389.051422 306.238631 
" style="fill:none;stroke:#4daf4a;stroke-linecap:square;stroke-opacity:0.4;stroke-width:1.5;"/>
   </g>
   <g id="line2d_194">
    <path clip-path="url(#p1b40655d90)" d="M 68.356078 297.3065 
L 70.335679 305.753765 
L 72.31528 298.290862 
L 74.294881 294.967048 
L 76.274482 300.194524 
L 78.254083 264.013751 
L 80.233683 294.936216 
L 82.213284 301.174306 
L 84.192885 296.510803 
L 86.172486 311.308999 
L 88.152087 305.939534 
L 90.131688 313.845391 
L 92.111289 285.675618 
L 94.09089 299.36431 
L 96.070491 295.182662 
L 98.050091 285.823386 
L 100.029692 289.658766 
L 102.009293 289.899219 
L 103.988894 292.536833 
L 105.968495 314.40105 
L 107.948096 313.743554 
L 109.927697 310.004261 
L 111.907298 311.635495 
L 113.886899 307.894859 
L 115.866499 307.714632 
L 117.8461 300.50008 
L 119.825701 309.907517 
L 121.805302 301.354235 
L 123.784903 322.716626 
L 125.764504 307.611139 
L 127.744105 309.444181 
L 129.723706 303.573989 
L 131.703307 311.096439 
L 133.682907 316.1424 
L 135.662508 309.998453 
L 137.642109 307.110261 
L 139.62171 303.14985 
L 141.601311 315.015651 
L 143.580912 303.730092 
L 145.560513 300.52106 
L 147.540114 293.928345 
L 149.519715 302.403409 
L 151.499315 317.19132 
L 153.478916 300.666465 
L 155.458517 318.98826 
L 157.438118 322.542969 
L 159.417719 309.485404 
L 163.376921 268.842246 
L 165.356522 276.61693 
L 167.336123 304.700285 
L 169.315723 318.88173 
L 171.295324 325.81952 
L 173.274925 296.820538 
L 175.254526 292.270481 
L 177.234127 314.565211 
L 179.213728 324.848102 
L 181.193329 306.180763 
L 183.17293 309.236833 
L 185.15253 308.941685 
L 187.132131 298.905786 
L 189.111732 309.700763 
L 191.091333 296.609638 
L 193.070934 291.687344 
L 195.050535 302.019281 
L 197.030136 307.412593 
L 199.009737 301.393181 
L 200.989338 301.304476 
L 202.968938 314.100647 
L 204.948539 304.403079 
L 206.92814 281.092179 
L 208.907741 309.038308 
L 210.887342 283.928277 
L 212.866943 270.383292 
L 214.846544 316.802437 
L 216.826145 324.620793 
L 218.805746 318.304778 
L 220.785346 308.102343 
L 222.764947 305.198927 
L 224.744548 316.905439 
L 226.724149 317.731199 
L 228.70375 318.726581 
L 230.683351 320.626047 
L 232.662952 318.22636 
L 234.642553 297.345964 
L 236.622154 321.41593 
L 238.601754 314.331026 
L 240.581355 294.655924 
L 242.560956 309.85618 
L 244.540557 317.232451 
L 246.520158 314.495589 
L 248.499759 304.344391 
L 250.47936 292.200121 
L 252.458961 308.292416 
L 254.438562 304.078425 
L 256.418162 309.005278 
L 258.397763 318.141087 
L 260.377364 313.349241 
L 262.356965 292.446108 
L 264.336566 305.387285 
L 266.316167 315.228682 
L 268.295768 305.848796 
L 270.275369 288.161066 
L 272.25497 277.124328 
L 274.23457 282.063031 
L 276.214171 309.218529 
L 278.193772 321.351276 
L 280.173373 319.555544 
L 282.152974 311.343151 
L 284.132575 299.579993 
L 286.112176 312.487901 
L 288.091777 289.982482 
L 290.071377 275.960023 
L 292.050978 288.254975 
L 294.030579 327.103039 
L 296.01018 321.682535 
L 297.989781 300.448044 
L 299.969382 281.748107 
L 301.948983 300.483039 
L 303.928584 312.899562 
L 305.908185 310.384277 
L 307.887785 296.292376 
L 309.867386 299.73492 
L 311.846987 261.499624 
L 313.826588 298.280039 
L 315.806189 314.149579 
L 317.78579 295.918747 
L 319.765391 301.669003 
L 321.744992 308.180882 
L 323.724593 316.772076 
L 325.704193 323.150968 
L 327.683794 310.024772 
L 329.663395 317.793872 
L 331.642996 318.772708 
L 333.622597 299.894287 
L 335.602198 295.296274 
L 337.581799 304.771824 
L 339.5614 307.5809 
L 341.541001 284.793712 
L 343.520601 319.307399 
L 345.500202 315.704334 
L 347.479803 309.825699 
L 349.459404 293.980676 
L 351.439005 303.673346 
L 353.418606 256.496221 
L 355.398207 178.005936 
L 357.377808 162.525676 
L 359.357409 215.559452 
L 361.337009 220.014132 
L 365.296211 299.585123 
L 367.275812 310.922728 
L 369.255413 315.686915 
L 371.235014 310.979442 
L 373.214615 321.629633 
L 375.194216 310.086982 
L 377.173817 310.735111 
L 379.153417 272.74867 
L 381.133018 314.443305 
L 383.112619 312.723967 
L 385.09222 298.673434 
L 387.071821 288.476239 
L 389.051422 300.665966 
L 389.051422 300.665966 
" style="fill:none;stroke:#e41a1c;stroke-linecap:square;stroke-width:1.5;"/>
   </g>
   <g id="line2d_195">
    <path clip-path="url(#p1b40655d90)" d="M 50.14375 305.753765 
L 407.26375 305.753765 
" style="fill:none;stroke:#000000;stroke-linecap:square;stroke-width:1.5;"/>
   </g>
   <g id="patch_3">
    <path d="M 50.14375 310.99049 
L 50.14375 44.87849 
" style="fill:none;stroke:#000000;stroke-linecap:square;stroke-linejoin:miter;stroke-width:0.8;"/>
   </g>
   <g id="patch_4">
    <path d="M 407.26375 310.99049 
L 407.26375 44.87849 
" style="fill:none;stroke:#000000;stroke-linecap:square;stroke-linejoin:miter;stroke-width:0.8;"/>
   </g>
   <g id="patch_5">
    <path d="M 50.14375 310.99049 
L 407.26375 310.99049 
" style="fill:none;stroke:#000000;stroke-linecap:square;stroke-linejoin:miter;stroke-width:0.8;"/>
   </g>
   <g id="patch_6">
    <path d="M 50.14375 44.87849 
L 407.26375 44.87849 
" style="fill:none;stroke:#000000;stroke-linecap:square;stroke-linejoin:miter;stroke-width:0.8;"/>
   </g>
   <g id="legend_1">
    <g id="patch_7">
     <path d="M 52.14375 39.55625 
L 405.26375 39.55625 
Q 407.26375 39.55625 407.26375 37.55625 
L 407.26375 9.2 
Q 407.26375 7.2 405.26375 7.2 
L 52.14375 7.2 
Q 50.14375 7.2 50.14375 9.2 
L 50.14375 37.55625 
Q 50.14375 39.55625 52.14375 39.55625 
z
" style="fill:#ffffff;opacity:0.8;stroke:#cccccc;stroke-linejoin:miter;"/>
    </g>
    <g id="line2d_196">
     <path d="M 54.14375 15.298437 
L 74.14375 15.298437 
" style="fill:none;stroke:#377eb8;stroke-linecap:square;stroke-opacity:0.4;stroke-width:1.5;"/>
    </g>
    <g id="line2d_197"/>
    <g id="text_31">
     <!-- Global Discrimination Score -->
     <defs>
      <path d="M 59.515625 10.40625 
L 59.515625 29.984375 
L 43.40625 29.984375 
L 43.40625 38.09375 
L 69.28125 38.09375 
L 69.28125 6.78125 
Q 63.578125 2.734375 56.6875 0.65625 
Q 49.8125 -1.421875 42 -1.421875 
Q 24.90625 -1.421875 15.25 8.5625 
Q 5.609375 18.5625 5.609375 36.375 
Q 5.609375 54.25 15.25 64.234375 
Q 24.90625 74.21875 42 74.21875 
Q 49.125 74.21875 55.546875 72.453125 
Q 61.96875 70.703125 67.390625 67.28125 
L 67.390625 56.78125 
Q 61.921875 61.421875 55.765625 63.765625 
Q 49.609375 66.109375 42.828125 66.109375 
Q 29.4375 66.109375 22.71875 58.640625 
Q 16.015625 51.171875 16.015625 36.375 
Q 16.015625 21.625 22.71875 14.15625 
Q 29.4375 6.6875 42.828125 6.6875 
Q 48.046875 6.6875 52.140625 7.59375 
Q 56.25 8.5 59.515625 10.40625 
z
" id="DejaVuSans-71"/>
      <path d="M 9.421875 75.984375 
L 18.40625 75.984375 
L 18.40625 0 
L 9.421875 0 
z
" id="DejaVuSans-108"/>
     </defs>
     <g transform="translate(82.14375 18.798437)scale(0.1 -0.1)">
      <use xlink:href="#DejaVuSans-71"/>
      <use x="77.490234" xlink:href="#DejaVuSans-108"/>
      <use x="105.273438" xlink:href="#DejaVuSans-111"/>
      <use x="166.455078" xlink:href="#DejaVuSans-98"/>
      <use x="229.931641" xlink:href="#DejaVuSans-97"/>
      <use x="291.210938" xlink:href="#DejaVuSans-108"/>
      <use x="318.994141" xlink:href="#DejaVuSans-32"/>
      <use x="350.78125" xlink:href="#DejaVuSans-68"/>
      <use x="427.783203" xlink:href="#DejaVuSans-105"/>
      <use x="455.566406" xlink:href="#DejaVuSans-115"/>
      <use x="507.666016" xlink:href="#DejaVuSans-99"/>
      <use x="562.646484" xlink:href="#DejaVuSans-114"/>
      <use x="603.759766" xlink:href="#DejaVuSans-105"/>
      <use x="631.542969" xlink:href="#DejaVuSans-109"/>
      <use x="728.955078" xlink:href="#DejaVuSans-105"/>
      <use x="756.738281" xlink:href="#DejaVuSans-110"/>
      <use x="820.117188" xlink:href="#DejaVuSans-97"/>
      <use x="881.396484" xlink:href="#DejaVuSans-116"/>
      <use x="920.605469" xlink:href="#DejaVuSans-105"/>
      <use x="948.388672" xlink:href="#DejaVuSans-111"/>
      <use x="1009.570312" xlink:href="#DejaVuSans-110"/>
      <use x="1072.949219" xlink:href="#DejaVuSans-32"/>
      <use x="1104.736328" xlink:href="#DejaVuSans-83"/>
      <use x="1168.212891" xlink:href="#DejaVuSans-99"/>
      <use x="1223.193359" xlink:href="#DejaVuSans-111"/>
      <use x="1284.375" xlink:href="#DejaVuSans-114"/>
      <use x="1325.457031" xlink:href="#DejaVuSans-101"/>
     </g>
    </g>
    <g id="line2d_198">
     <path d="M 54.14375 29.976562 
L 74.14375 29.976562 
" style="fill:none;stroke:#4daf4a;stroke-linecap:square;stroke-opacity:0.4;stroke-width:1.5;"/>
    </g>
    <g id="line2d_199"/>
    <g id="text_32">
     <!-- LODR Discrimination Score -->
     <defs>
      <path d="M 9.8125 72.90625 
L 19.671875 72.90625 
L 19.671875 8.296875 
L 55.171875 8.296875 
L 55.171875 0 
L 9.8125 0 
z
" id="DejaVuSans-76"/>
      <path d="M 39.40625 66.21875 
Q 28.65625 66.21875 22.328125 58.203125 
Q 16.015625 50.203125 16.015625 36.375 
Q 16.015625 22.609375 22.328125 14.59375 
Q 28.65625 6.59375 39.40625 6.59375 
Q 50.140625 6.59375 56.421875 14.59375 
Q 62.703125 22.609375 62.703125 36.375 
Q 62.703125 50.203125 56.421875 58.203125 
Q 50.140625 66.21875 39.40625 66.21875 
z
M 39.40625 74.21875 
Q 54.734375 74.21875 63.90625 63.9375 
Q 73.09375 53.65625 73.09375 36.375 
Q 73.09375 19.140625 63.90625 8.859375 
Q 54.734375 -1.421875 39.40625 -1.421875 
Q 24.03125 -1.421875 14.8125 8.828125 
Q 5.609375 19.09375 5.609375 36.375 
Q 5.609375 53.65625 14.8125 63.9375 
Q 24.03125 74.21875 39.40625 74.21875 
z
" id="DejaVuSans-79"/>
     </defs>
     <g transform="translate(82.14375 33.476562)scale(0.1 -0.1)">
      <use xlink:href="#DejaVuSans-76"/>
      <use x="55.666016" xlink:href="#DejaVuSans-79"/>
      <use x="134.376953" xlink:href="#DejaVuSans-68"/>
      <use x="211.378906" xlink:href="#DejaVuSans-82"/>
      <use x="280.861328" xlink:href="#DejaVuSans-32"/>
      <use x="312.648438" xlink:href="#DejaVuSans-68"/>
      <use x="389.650391" xlink:href="#DejaVuSans-105"/>
      <use x="417.433594" xlink:href="#DejaVuSans-115"/>
      <use x="469.533203" xlink:href="#DejaVuSans-99"/>
      <use x="524.513672" xlink:href="#DejaVuSans-114"/>
      <use x="565.626953" xlink:href="#DejaVuSans-105"/>
      <use x="593.410156" xlink:href="#DejaVuSans-109"/>
      <use x="690.822266" xlink:href="#DejaVuSans-105"/>
      <use x="718.605469" xlink:href="#DejaVuSans-110"/>
      <use x="781.984375" xlink:href="#DejaVuSans-97"/>
      <use x="843.263672" xlink:href="#DejaVuSans-116"/>
      <use x="882.472656" xlink:href="#DejaVuSans-105"/>
      <use x="910.255859" xlink:href="#DejaVuSans-111"/>
      <use x="971.4375" xlink:href="#DejaVuSans-110"/>
      <use x="1034.816406" xlink:href="#DejaVuSans-32"/>
      <use x="1066.603516" xlink:href="#DejaVuSans-83"/>
      <use x="1130.080078" xlink:href="#DejaVuSans-99"/>
      <use x="1185.060547" xlink:href="#DejaVuSans-111"/>
      <use x="1246.242188" xlink:href="#DejaVuSans-114"/>
      <use x="1287.324219" xlink:href="#DejaVuSans-101"/>
     </g>
    </g>
    <g id="line2d_200">
     <path d="M 241.22 15.298437 
L 261.22 15.298437 
" style="fill:none;stroke:#e41a1c;stroke-linecap:square;stroke-width:1.5;"/>
    </g>
    <g id="line2d_201"/>
    <g id="text_33">
     <!-- Mean Discrimination Score -->
     <defs>
      <path d="M 9.8125 72.90625 
L 24.515625 72.90625 
L 43.109375 23.296875 
L 61.8125 72.90625 
L 76.515625 72.90625 
L 76.515625 0 
L 66.890625 0 
L 66.890625 64.015625 
L 48.09375 14.015625 
L 38.1875 14.015625 
L 19.390625 64.015625 
L 19.390625 0 
L 9.8125 0 
z
" id="DejaVuSans-77"/>
     </defs>
     <g transform="translate(269.22 18.798437)scale(0.1 -0.1)">
      <use xlink:href="#DejaVuSans-77"/>
      <use x="86.279297" xlink:href="#DejaVuSans-101"/>
      <use x="147.802734" xlink:href="#DejaVuSans-97"/>
      <use x="209.082031" xlink:href="#DejaVuSans-110"/>
      <use x="272.460938" xlink:href="#DejaVuSans-32"/>
      <use x="304.248047" xlink:href="#DejaVuSans-68"/>
      <use x="381.25" xlink:href="#DejaVuSans-105"/>
      <use x="409.033203" xlink:href="#DejaVuSans-115"/>
      <use x="461.132812" xlink:href="#DejaVuSans-99"/>
      <use x="516.113281" xlink:href="#DejaVuSans-114"/>
      <use x="557.226562" xlink:href="#DejaVuSans-105"/>
      <use x="585.009766" xlink:href="#DejaVuSans-109"/>
      <use x="682.421875" xlink:href="#DejaVuSans-105"/>
      <use x="710.205078" xlink:href="#DejaVuSans-110"/>
      <use x="773.583984" xlink:href="#DejaVuSans-97"/>
      <use x="834.863281" xlink:href="#DejaVuSans-116"/>
      <use x="874.072266" xlink:href="#DejaVuSans-105"/>
      <use x="901.855469" xlink:href="#DejaVuSans-111"/>
      <use x="963.037109" xlink:href="#DejaVuSans-110"/>
      <use x="1026.416016" xlink:href="#DejaVuSans-32"/>
      <use x="1058.203125" xlink:href="#DejaVuSans-83"/>
      <use x="1121.679688" xlink:href="#DejaVuSans-99"/>
      <use x="1176.660156" xlink:href="#DejaVuSans-111"/>
      <use x="1237.841797" xlink:href="#DejaVuSans-114"/>
      <use x="1278.923828" xlink:href="#DejaVuSans-101"/>
     </g>
    </g>
   </g>
  </g>
 </g>
 <defs>
  <clipPath id="p1b40655d90">
   <rect height="266.112" width="357.12" x="50.14375" y="44.87849"/>
  </clipPath>
 </defs>
</svg>
