<?xml version="1.0" encoding="utf-8" standalone="no"?>
<!DOCTYPE svg PUBLIC "-//W3C//DTD SVG 1.1//EN"
  "http://www.w3.org/Graphics/SVG/1.1/DTD/svg11.dtd">
<!-- Created with matplotlib (https://matplotlib.org/) -->
<svg height="348.54674pt" version="1.1" viewBox="0 0 411.310277 348.54674" width="411.310277pt" xmlns="http://www.w3.org/2000/svg" xmlns:xlink="http://www.w3.org/1999/xlink">
 <defs>
  <style type="text/css">
*{stroke-linecap:butt;stroke-linejoin:round;}
  </style>
 </defs>
 <g id="figure_1">
  <g id="patch_1">
   <path d="M 0 348.54674 
L 411.310277 348.54674 
L 411.310277 0 
L 0 0 
z
" style="fill:#ffffff;"/>
  </g>
  <g id="axes_1">
   <g id="patch_2">
    <path d="M 43.78125 310.99049 
L 400.90125 310.99049 
L 400.90125 44.87849 
L 43.78125 44.87849 
z
" style="fill:#ffffff;"/>
   </g>
   <g id="matplotlib.axis_1">
    <g id="xtick_1">
     <g id="line2d_1">
      <defs>
       <path d="M 0 0 
L 0 3.5 
" id="me14cea0287" style="stroke:#000000;stroke-width:0.8;"/>
      </defs>
      <g>
       <use style="stroke:#000000;stroke-width:0.8;" x="58.034376" xlink:href="#me14cea0287" y="310.99049"/>
      </g>
     </g>
     <g id="text_1">
      <!-- 0 -->
      <defs>
       <path d="M 31.78125 66.40625 
Q 24.171875 66.40625 20.328125 58.90625 
Q 16.5 51.421875 16.5 36.375 
Q 16.5 21.390625 20.328125 13.890625 
Q 24.171875 6.390625 31.78125 6.390625 
Q 39.453125 6.390625 43.28125 13.890625 
Q 47.125 21.390625 47.125 36.375 
Q 47.125 51.421875 43.28125 58.90625 
Q 39.453125 66.40625 31.78125 66.40625 
z
M 31.78125 74.21875 
Q 44.046875 74.21875 50.515625 64.515625 
Q 56.984375 54.828125 56.984375 36.375 
Q 56.984375 17.96875 50.515625 8.265625 
Q 44.046875 -1.421875 31.78125 -1.421875 
Q 19.53125 -1.421875 13.0625 8.265625 
Q 6.59375 17.96875 6.59375 36.375 
Q 6.59375 54.828125 13.0625 64.515625 
Q 19.53125 74.21875 31.78125 74.21875 
z
" id="DejaVuSans-48"/>
      </defs>
      <g transform="translate(54.853126 325.588928)scale(0.1 -0.1)">
       <use xlink:href="#DejaVuSans-48"/>
      </g>
     </g>
    </g>
    <g id="xtick_2">
     <g id="line2d_2">
      <g>
       <use style="stroke:#000000;stroke-width:0.8;" x="77.830385" xlink:href="#me14cea0287" y="310.99049"/>
      </g>
     </g>
     <g id="text_2">
      <!-- 10 -->
      <defs>
       <path d="M 12.40625 8.296875 
L 28.515625 8.296875 
L 28.515625 63.921875 
L 10.984375 60.40625 
L 10.984375 69.390625 
L 28.421875 72.90625 
L 38.28125 72.90625 
L 38.28125 8.296875 
L 54.390625 8.296875 
L 54.390625 0 
L 12.40625 0 
z
" id="DejaVuSans-49"/>
      </defs>
      <g transform="translate(71.467885 325.588928)scale(0.1 -0.1)">
       <use xlink:href="#DejaVuSans-49"/>
       <use x="63.623047" xlink:href="#DejaVuSans-48"/>
      </g>
     </g>
    </g>
    <g id="xtick_3">
     <g id="line2d_3">
      <g>
       <use style="stroke:#000000;stroke-width:0.8;" x="97.626394" xlink:href="#me14cea0287" y="310.99049"/>
      </g>
     </g>
     <g id="text_3">
      <!-- 20 -->
      <defs>
       <path d="M 19.1875 8.296875 
L 53.609375 8.296875 
L 53.609375 0 
L 7.328125 0 
L 7.328125 8.296875 
Q 12.9375 14.109375 22.625 23.890625 
Q 32.328125 33.6875 34.8125 36.53125 
Q 39.546875 41.84375 41.421875 45.53125 
Q 43.3125 49.21875 43.3125 52.78125 
Q 43.3125 58.59375 39.234375 62.25 
Q 35.15625 65.921875 28.609375 65.921875 
Q 23.96875 65.921875 18.8125 64.3125 
Q 13.671875 62.703125 7.8125 59.421875 
L 7.8125 69.390625 
Q 13.765625 71.78125 18.9375 73 
Q 24.125 74.21875 28.421875 74.21875 
Q 39.75 74.21875 46.484375 68.546875 
Q 53.21875 62.890625 53.21875 53.421875 
Q 53.21875 48.921875 51.53125 44.890625 
Q 49.859375 40.875 45.40625 35.40625 
Q 44.1875 33.984375 37.640625 27.21875 
Q 31.109375 20.453125 19.1875 8.296875 
z
" id="DejaVuSans-50"/>
      </defs>
      <g transform="translate(91.263894 325.588928)scale(0.1 -0.1)">
       <use xlink:href="#DejaVuSans-50"/>
       <use x="63.623047" xlink:href="#DejaVuSans-48"/>
      </g>
     </g>
    </g>
    <g id="xtick_4">
     <g id="line2d_4">
      <g>
       <use style="stroke:#000000;stroke-width:0.8;" x="117.422403" xlink:href="#me14cea0287" y="310.99049"/>
      </g>
     </g>
     <g id="text_4">
      <!-- 30 -->
      <defs>
       <path d="M 40.578125 39.3125 
Q 47.65625 37.796875 51.625 33 
Q 55.609375 28.21875 55.609375 21.1875 
Q 55.609375 10.40625 48.1875 4.484375 
Q 40.765625 -1.421875 27.09375 -1.421875 
Q 22.515625 -1.421875 17.65625 -0.515625 
Q 12.796875 0.390625 7.625 2.203125 
L 7.625 11.71875 
Q 11.71875 9.328125 16.59375 8.109375 
Q 21.484375 6.890625 26.8125 6.890625 
Q 36.078125 6.890625 40.9375 10.546875 
Q 45.796875 14.203125 45.796875 21.1875 
Q 45.796875 27.640625 41.28125 31.265625 
Q 36.765625 34.90625 28.71875 34.90625 
L 20.21875 34.90625 
L 20.21875 43.015625 
L 29.109375 43.015625 
Q 36.375 43.015625 40.234375 45.921875 
Q 44.09375 48.828125 44.09375 54.296875 
Q 44.09375 59.90625 40.109375 62.90625 
Q 36.140625 65.921875 28.71875 65.921875 
Q 24.65625 65.921875 20.015625 65.03125 
Q 15.375 64.15625 9.8125 62.3125 
L 9.8125 71.09375 
Q 15.4375 72.65625 20.34375 73.4375 
Q 25.25 74.21875 29.59375 74.21875 
Q 40.828125 74.21875 47.359375 69.109375 
Q 53.90625 64.015625 53.90625 55.328125 
Q 53.90625 49.265625 50.4375 45.09375 
Q 46.96875 40.921875 40.578125 39.3125 
z
" id="DejaVuSans-51"/>
      </defs>
      <g transform="translate(111.059903 325.588928)scale(0.1 -0.1)">
       <use xlink:href="#DejaVuSans-51"/>
       <use x="63.623047" xlink:href="#DejaVuSans-48"/>
      </g>
     </g>
    </g>
    <g id="xtick_5">
     <g id="line2d_5">
      <g>
       <use style="stroke:#000000;stroke-width:0.8;" x="137.218412" xlink:href="#me14cea0287" y="310.99049"/>
      </g>
     </g>
     <g id="text_5">
      <!-- 40 -->
      <defs>
       <path d="M 37.796875 64.3125 
L 12.890625 25.390625 
L 37.796875 25.390625 
z
M 35.203125 72.90625 
L 47.609375 72.90625 
L 47.609375 25.390625 
L 58.015625 25.390625 
L 58.015625 17.1875 
L 47.609375 17.1875 
L 47.609375 0 
L 37.796875 0 
L 37.796875 17.1875 
L 4.890625 17.1875 
L 4.890625 26.703125 
z
" id="DejaVuSans-52"/>
      </defs>
      <g transform="translate(130.855912 325.588928)scale(0.1 -0.1)">
       <use xlink:href="#DejaVuSans-52"/>
       <use x="63.623047" xlink:href="#DejaVuSans-48"/>
      </g>
     </g>
    </g>
    <g id="xtick_6">
     <g id="line2d_6">
      <g>
       <use style="stroke:#000000;stroke-width:0.8;" x="157.014421" xlink:href="#me14cea0287" y="310.99049"/>
      </g>
     </g>
     <g id="text_6">
      <!-- 50 -->
      <defs>
       <path d="M 10.796875 72.90625 
L 49.515625 72.90625 
L 49.515625 64.59375 
L 19.828125 64.59375 
L 19.828125 46.734375 
Q 21.96875 47.46875 24.109375 47.828125 
Q 26.265625 48.1875 28.421875 48.1875 
Q 40.625 48.1875 47.75 41.5 
Q 54.890625 34.8125 54.890625 23.390625 
Q 54.890625 11.625 47.5625 5.09375 
Q 40.234375 -1.421875 26.90625 -1.421875 
Q 22.3125 -1.421875 17.546875 -0.640625 
Q 12.796875 0.140625 7.71875 1.703125 
L 7.71875 11.625 
Q 12.109375 9.234375 16.796875 8.0625 
Q 21.484375 6.890625 26.703125 6.890625 
Q 35.15625 6.890625 40.078125 11.328125 
Q 45.015625 15.765625 45.015625 23.390625 
Q 45.015625 31 40.078125 35.4375 
Q 35.15625 39.890625 26.703125 39.890625 
Q 22.75 39.890625 18.8125 39.015625 
Q 14.890625 38.140625 10.796875 36.28125 
z
" id="DejaVuSans-53"/>
      </defs>
      <g transform="translate(150.651921 325.588928)scale(0.1 -0.1)">
       <use xlink:href="#DejaVuSans-53"/>
       <use x="63.623047" xlink:href="#DejaVuSans-48"/>
      </g>
     </g>
    </g>
    <g id="xtick_7">
     <g id="line2d_7">
      <g>
       <use style="stroke:#000000;stroke-width:0.8;" x="176.81043" xlink:href="#me14cea0287" y="310.99049"/>
      </g>
     </g>
     <g id="text_7">
      <!-- 60 -->
      <defs>
       <path d="M 33.015625 40.375 
Q 26.375 40.375 22.484375 35.828125 
Q 18.609375 31.296875 18.609375 23.390625 
Q 18.609375 15.53125 22.484375 10.953125 
Q 26.375 6.390625 33.015625 6.390625 
Q 39.65625 6.390625 43.53125 10.953125 
Q 47.40625 15.53125 47.40625 23.390625 
Q 47.40625 31.296875 43.53125 35.828125 
Q 39.65625 40.375 33.015625 40.375 
z
M 52.59375 71.296875 
L 52.59375 62.3125 
Q 48.875 64.0625 45.09375 64.984375 
Q 41.3125 65.921875 37.59375 65.921875 
Q 27.828125 65.921875 22.671875 59.328125 
Q 17.53125 52.734375 16.796875 39.40625 
Q 19.671875 43.65625 24.015625 45.921875 
Q 28.375 48.1875 33.59375 48.1875 
Q 44.578125 48.1875 50.953125 41.515625 
Q 57.328125 34.859375 57.328125 23.390625 
Q 57.328125 12.15625 50.6875 5.359375 
Q 44.046875 -1.421875 33.015625 -1.421875 
Q 20.359375 -1.421875 13.671875 8.265625 
Q 6.984375 17.96875 6.984375 36.375 
Q 6.984375 53.65625 15.1875 63.9375 
Q 23.390625 74.21875 37.203125 74.21875 
Q 40.921875 74.21875 44.703125 73.484375 
Q 48.484375 72.75 52.59375 71.296875 
z
" id="DejaVuSans-54"/>
      </defs>
      <g transform="translate(170.44793 325.588928)scale(0.1 -0.1)">
       <use xlink:href="#DejaVuSans-54"/>
       <use x="63.623047" xlink:href="#DejaVuSans-48"/>
      </g>
     </g>
    </g>
    <g id="xtick_8">
     <g id="line2d_8">
      <g>
       <use style="stroke:#000000;stroke-width:0.8;" x="196.606438" xlink:href="#me14cea0287" y="310.99049"/>
      </g>
     </g>
     <g id="text_8">
      <!-- 70 -->
      <defs>
       <path d="M 8.203125 72.90625 
L 55.078125 72.90625 
L 55.078125 68.703125 
L 28.609375 0 
L 18.3125 0 
L 43.21875 64.59375 
L 8.203125 64.59375 
z
" id="DejaVuSans-55"/>
      </defs>
      <g transform="translate(190.243938 325.588928)scale(0.1 -0.1)">
       <use xlink:href="#DejaVuSans-55"/>
       <use x="63.623047" xlink:href="#DejaVuSans-48"/>
      </g>
     </g>
    </g>
    <g id="xtick_9">
     <g id="line2d_9">
      <g>
       <use style="stroke:#000000;stroke-width:0.8;" x="216.402447" xlink:href="#me14cea0287" y="310.99049"/>
      </g>
     </g>
     <g id="text_9">
      <!-- 80 -->
      <defs>
       <path d="M 31.78125 34.625 
Q 24.75 34.625 20.71875 30.859375 
Q 16.703125 27.09375 16.703125 20.515625 
Q 16.703125 13.921875 20.71875 10.15625 
Q 24.75 6.390625 31.78125 6.390625 
Q 38.8125 6.390625 42.859375 10.171875 
Q 46.921875 13.96875 46.921875 20.515625 
Q 46.921875 27.09375 42.890625 30.859375 
Q 38.875 34.625 31.78125 34.625 
z
M 21.921875 38.8125 
Q 15.578125 40.375 12.03125 44.71875 
Q 8.5 49.078125 8.5 55.328125 
Q 8.5 64.0625 14.71875 69.140625 
Q 20.953125 74.21875 31.78125 74.21875 
Q 42.671875 74.21875 48.875 69.140625 
Q 55.078125 64.0625 55.078125 55.328125 
Q 55.078125 49.078125 51.53125 44.71875 
Q 48 40.375 41.703125 38.8125 
Q 48.828125 37.15625 52.796875 32.3125 
Q 56.78125 27.484375 56.78125 20.515625 
Q 56.78125 9.90625 50.3125 4.234375 
Q 43.84375 -1.421875 31.78125 -1.421875 
Q 19.734375 -1.421875 13.25 4.234375 
Q 6.78125 9.90625 6.78125 20.515625 
Q 6.78125 27.484375 10.78125 32.3125 
Q 14.796875 37.15625 21.921875 38.8125 
z
M 18.3125 54.390625 
Q 18.3125 48.734375 21.84375 45.5625 
Q 25.390625 42.390625 31.78125 42.390625 
Q 38.140625 42.390625 41.71875 45.5625 
Q 45.3125 48.734375 45.3125 54.390625 
Q 45.3125 60.0625 41.71875 63.234375 
Q 38.140625 66.40625 31.78125 66.40625 
Q 25.390625 66.40625 21.84375 63.234375 
Q 18.3125 60.0625 18.3125 54.390625 
z
" id="DejaVuSans-56"/>
      </defs>
      <g transform="translate(210.039947 325.588928)scale(0.1 -0.1)">
       <use xlink:href="#DejaVuSans-56"/>
       <use x="63.623047" xlink:href="#DejaVuSans-48"/>
      </g>
     </g>
    </g>
    <g id="xtick_10">
     <g id="line2d_10">
      <g>
       <use style="stroke:#000000;stroke-width:0.8;" x="236.198456" xlink:href="#me14cea0287" y="310.99049"/>
      </g>
     </g>
     <g id="text_10">
      <!-- 90 -->
      <defs>
       <path d="M 10.984375 1.515625 
L 10.984375 10.5 
Q 14.703125 8.734375 18.5 7.8125 
Q 22.3125 6.890625 25.984375 6.890625 
Q 35.75 6.890625 40.890625 13.453125 
Q 46.046875 20.015625 46.78125 33.40625 
Q 43.953125 29.203125 39.59375 26.953125 
Q 35.25 24.703125 29.984375 24.703125 
Q 19.046875 24.703125 12.671875 31.3125 
Q 6.296875 37.9375 6.296875 49.421875 
Q 6.296875 60.640625 12.9375 67.421875 
Q 19.578125 74.21875 30.609375 74.21875 
Q 43.265625 74.21875 49.921875 64.515625 
Q 56.59375 54.828125 56.59375 36.375 
Q 56.59375 19.140625 48.40625 8.859375 
Q 40.234375 -1.421875 26.421875 -1.421875 
Q 22.703125 -1.421875 18.890625 -0.6875 
Q 15.09375 0.046875 10.984375 1.515625 
z
M 30.609375 32.421875 
Q 37.25 32.421875 41.125 36.953125 
Q 45.015625 41.5 45.015625 49.421875 
Q 45.015625 57.28125 41.125 61.84375 
Q 37.25 66.40625 30.609375 66.40625 
Q 23.96875 66.40625 20.09375 61.84375 
Q 16.21875 57.28125 16.21875 49.421875 
Q 16.21875 41.5 20.09375 36.953125 
Q 23.96875 32.421875 30.609375 32.421875 
z
" id="DejaVuSans-57"/>
      </defs>
      <g transform="translate(229.835956 325.588928)scale(0.1 -0.1)">
       <use xlink:href="#DejaVuSans-57"/>
       <use x="63.623047" xlink:href="#DejaVuSans-48"/>
      </g>
     </g>
    </g>
    <g id="xtick_11">
     <g id="line2d_11">
      <g>
       <use style="stroke:#000000;stroke-width:0.8;" x="255.994465" xlink:href="#me14cea0287" y="310.99049"/>
      </g>
     </g>
     <g id="text_11">
      <!-- 100 -->
      <g transform="translate(246.450715 325.588928)scale(0.1 -0.1)">
       <use xlink:href="#DejaVuSans-49"/>
       <use x="63.623047" xlink:href="#DejaVuSans-48"/>
       <use x="127.246094" xlink:href="#DejaVuSans-48"/>
      </g>
     </g>
    </g>
    <g id="xtick_12">
     <g id="line2d_12">
      <g>
       <use style="stroke:#000000;stroke-width:0.8;" x="275.790474" xlink:href="#me14cea0287" y="310.99049"/>
      </g>
     </g>
     <g id="text_12">
      <!-- 110 -->
      <g transform="translate(266.246724 325.588928)scale(0.1 -0.1)">
       <use xlink:href="#DejaVuSans-49"/>
       <use x="63.623047" xlink:href="#DejaVuSans-49"/>
       <use x="127.246094" xlink:href="#DejaVuSans-48"/>
      </g>
     </g>
    </g>
    <g id="xtick_13">
     <g id="line2d_13">
      <g>
       <use style="stroke:#000000;stroke-width:0.8;" x="295.586483" xlink:href="#me14cea0287" y="310.99049"/>
      </g>
     </g>
     <g id="text_13">
      <!-- 120 -->
      <g transform="translate(286.042733 325.588928)scale(0.1 -0.1)">
       <use xlink:href="#DejaVuSans-49"/>
       <use x="63.623047" xlink:href="#DejaVuSans-50"/>
       <use x="127.246094" xlink:href="#DejaVuSans-48"/>
      </g>
     </g>
    </g>
    <g id="xtick_14">
     <g id="line2d_14">
      <g>
       <use style="stroke:#000000;stroke-width:0.8;" x="315.382492" xlink:href="#me14cea0287" y="310.99049"/>
      </g>
     </g>
     <g id="text_14">
      <!-- 130 -->
      <g transform="translate(305.838742 325.588928)scale(0.1 -0.1)">
       <use xlink:href="#DejaVuSans-49"/>
       <use x="63.623047" xlink:href="#DejaVuSans-51"/>
       <use x="127.246094" xlink:href="#DejaVuSans-48"/>
      </g>
     </g>
    </g>
    <g id="xtick_15">
     <g id="line2d_15">
      <g>
       <use style="stroke:#000000;stroke-width:0.8;" x="335.178501" xlink:href="#me14cea0287" y="310.99049"/>
      </g>
     </g>
     <g id="text_15">
      <!-- 140 -->
      <g transform="translate(325.634751 325.588928)scale(0.1 -0.1)">
       <use xlink:href="#DejaVuSans-49"/>
       <use x="63.623047" xlink:href="#DejaVuSans-52"/>
       <use x="127.246094" xlink:href="#DejaVuSans-48"/>
      </g>
     </g>
    </g>
    <g id="xtick_16">
     <g id="line2d_16">
      <g>
       <use style="stroke:#000000;stroke-width:0.8;" x="354.974509" xlink:href="#me14cea0287" y="310.99049"/>
      </g>
     </g>
     <g id="text_16">
      <!-- 150 -->
      <g transform="translate(345.430759 325.588928)scale(0.1 -0.1)">
       <use xlink:href="#DejaVuSans-49"/>
       <use x="63.623047" xlink:href="#DejaVuSans-53"/>
       <use x="127.246094" xlink:href="#DejaVuSans-48"/>
      </g>
     </g>
    </g>
    <g id="xtick_17">
     <g id="line2d_17">
      <g>
       <use style="stroke:#000000;stroke-width:0.8;" x="374.770518" xlink:href="#me14cea0287" y="310.99049"/>
      </g>
     </g>
     <g id="text_17">
      <!-- 160 -->
      <g transform="translate(365.226768 325.588928)scale(0.1 -0.1)">
       <use xlink:href="#DejaVuSans-49"/>
       <use x="63.623047" xlink:href="#DejaVuSans-54"/>
       <use x="127.246094" xlink:href="#DejaVuSans-48"/>
      </g>
     </g>
    </g>
    <g id="xtick_18">
     <g id="line2d_18">
      <g>
       <use style="stroke:#000000;stroke-width:0.8;" x="394.566527" xlink:href="#me14cea0287" y="310.99049"/>
      </g>
     </g>
     <g id="text_18">
      <!-- 170 -->
      <g transform="translate(385.022777 325.588928)scale(0.1 -0.1)">
       <use xlink:href="#DejaVuSans-49"/>
       <use x="63.623047" xlink:href="#DejaVuSans-55"/>
       <use x="127.246094" xlink:href="#DejaVuSans-48"/>
      </g>
     </g>
    </g>
    <g id="xtick_19">
     <g id="line2d_19">
      <defs>
       <path d="M 0 0 
L 0 2 
" id="m10bb7c65af" style="stroke:#000000;stroke-width:0.6;"/>
      </defs>
      <g>
       <use style="stroke:#000000;stroke-width:0.6;" x="44.17717" xlink:href="#m10bb7c65af" y="310.99049"/>
      </g>
     </g>
    </g>
    <g id="xtick_20">
     <g id="line2d_20">
      <g>
       <use style="stroke:#000000;stroke-width:0.6;" x="46.156771" xlink:href="#m10bb7c65af" y="310.99049"/>
      </g>
     </g>
    </g>
    <g id="xtick_21">
     <g id="line2d_21">
      <g>
       <use style="stroke:#000000;stroke-width:0.6;" x="48.136372" xlink:href="#m10bb7c65af" y="310.99049"/>
      </g>
     </g>
    </g>
    <g id="xtick_22">
     <g id="line2d_22">
      <g>
       <use style="stroke:#000000;stroke-width:0.6;" x="50.115973" xlink:href="#m10bb7c65af" y="310.99049"/>
      </g>
     </g>
    </g>
    <g id="xtick_23">
     <g id="line2d_23">
      <g>
       <use style="stroke:#000000;stroke-width:0.6;" x="52.095574" xlink:href="#m10bb7c65af" y="310.99049"/>
      </g>
     </g>
    </g>
    <g id="xtick_24">
     <g id="line2d_24">
      <g>
       <use style="stroke:#000000;stroke-width:0.6;" x="54.075175" xlink:href="#m10bb7c65af" y="310.99049"/>
      </g>
     </g>
    </g>
    <g id="xtick_25">
     <g id="line2d_25">
      <g>
       <use style="stroke:#000000;stroke-width:0.6;" x="56.054775" xlink:href="#m10bb7c65af" y="310.99049"/>
      </g>
     </g>
    </g>
    <g id="xtick_26">
     <g id="line2d_26">
      <g>
       <use style="stroke:#000000;stroke-width:0.6;" x="60.013977" xlink:href="#m10bb7c65af" y="310.99049"/>
      </g>
     </g>
    </g>
    <g id="xtick_27">
     <g id="line2d_27">
      <g>
       <use style="stroke:#000000;stroke-width:0.6;" x="61.993578" xlink:href="#m10bb7c65af" y="310.99049"/>
      </g>
     </g>
    </g>
    <g id="xtick_28">
     <g id="line2d_28">
      <g>
       <use style="stroke:#000000;stroke-width:0.6;" x="63.973179" xlink:href="#m10bb7c65af" y="310.99049"/>
      </g>
     </g>
    </g>
    <g id="xtick_29">
     <g id="line2d_29">
      <g>
       <use style="stroke:#000000;stroke-width:0.6;" x="65.95278" xlink:href="#m10bb7c65af" y="310.99049"/>
      </g>
     </g>
    </g>
    <g id="xtick_30">
     <g id="line2d_30">
      <g>
       <use style="stroke:#000000;stroke-width:0.6;" x="67.932381" xlink:href="#m10bb7c65af" y="310.99049"/>
      </g>
     </g>
    </g>
    <g id="xtick_31">
     <g id="line2d_31">
      <g>
       <use style="stroke:#000000;stroke-width:0.6;" x="69.911982" xlink:href="#m10bb7c65af" y="310.99049"/>
      </g>
     </g>
    </g>
    <g id="xtick_32">
     <g id="line2d_32">
      <g>
       <use style="stroke:#000000;stroke-width:0.6;" x="71.891583" xlink:href="#m10bb7c65af" y="310.99049"/>
      </g>
     </g>
    </g>
    <g id="xtick_33">
     <g id="line2d_33">
      <g>
       <use style="stroke:#000000;stroke-width:0.6;" x="73.871183" xlink:href="#m10bb7c65af" y="310.99049"/>
      </g>
     </g>
    </g>
    <g id="xtick_34">
     <g id="line2d_34">
      <g>
       <use style="stroke:#000000;stroke-width:0.6;" x="75.850784" xlink:href="#m10bb7c65af" y="310.99049"/>
      </g>
     </g>
    </g>
    <g id="xtick_35">
     <g id="line2d_35">
      <g>
       <use style="stroke:#000000;stroke-width:0.6;" x="79.809986" xlink:href="#m10bb7c65af" y="310.99049"/>
      </g>
     </g>
    </g>
    <g id="xtick_36">
     <g id="line2d_36">
      <g>
       <use style="stroke:#000000;stroke-width:0.6;" x="81.789587" xlink:href="#m10bb7c65af" y="310.99049"/>
      </g>
     </g>
    </g>
    <g id="xtick_37">
     <g id="line2d_37">
      <g>
       <use style="stroke:#000000;stroke-width:0.6;" x="83.769188" xlink:href="#m10bb7c65af" y="310.99049"/>
      </g>
     </g>
    </g>
    <g id="xtick_38">
     <g id="line2d_38">
      <g>
       <use style="stroke:#000000;stroke-width:0.6;" x="85.748789" xlink:href="#m10bb7c65af" y="310.99049"/>
      </g>
     </g>
    </g>
    <g id="xtick_39">
     <g id="line2d_39">
      <g>
       <use style="stroke:#000000;stroke-width:0.6;" x="87.72839" xlink:href="#m10bb7c65af" y="310.99049"/>
      </g>
     </g>
    </g>
    <g id="xtick_40">
     <g id="line2d_40">
      <g>
       <use style="stroke:#000000;stroke-width:0.6;" x="89.707991" xlink:href="#m10bb7c65af" y="310.99049"/>
      </g>
     </g>
    </g>
    <g id="xtick_41">
     <g id="line2d_41">
      <g>
       <use style="stroke:#000000;stroke-width:0.6;" x="91.687591" xlink:href="#m10bb7c65af" y="310.99049"/>
      </g>
     </g>
    </g>
    <g id="xtick_42">
     <g id="line2d_42">
      <g>
       <use style="stroke:#000000;stroke-width:0.6;" x="93.667192" xlink:href="#m10bb7c65af" y="310.99049"/>
      </g>
     </g>
    </g>
    <g id="xtick_43">
     <g id="line2d_43">
      <g>
       <use style="stroke:#000000;stroke-width:0.6;" x="95.646793" xlink:href="#m10bb7c65af" y="310.99049"/>
      </g>
     </g>
    </g>
    <g id="xtick_44">
     <g id="line2d_44">
      <g>
       <use style="stroke:#000000;stroke-width:0.6;" x="99.605995" xlink:href="#m10bb7c65af" y="310.99049"/>
      </g>
     </g>
    </g>
    <g id="xtick_45">
     <g id="line2d_45">
      <g>
       <use style="stroke:#000000;stroke-width:0.6;" x="101.585596" xlink:href="#m10bb7c65af" y="310.99049"/>
      </g>
     </g>
    </g>
    <g id="xtick_46">
     <g id="line2d_46">
      <g>
       <use style="stroke:#000000;stroke-width:0.6;" x="103.565197" xlink:href="#m10bb7c65af" y="310.99049"/>
      </g>
     </g>
    </g>
    <g id="xtick_47">
     <g id="line2d_47">
      <g>
       <use style="stroke:#000000;stroke-width:0.6;" x="105.544798" xlink:href="#m10bb7c65af" y="310.99049"/>
      </g>
     </g>
    </g>
    <g id="xtick_48">
     <g id="line2d_48">
      <g>
       <use style="stroke:#000000;stroke-width:0.6;" x="107.524399" xlink:href="#m10bb7c65af" y="310.99049"/>
      </g>
     </g>
    </g>
    <g id="xtick_49">
     <g id="line2d_49">
      <g>
       <use style="stroke:#000000;stroke-width:0.6;" x="109.503999" xlink:href="#m10bb7c65af" y="310.99049"/>
      </g>
     </g>
    </g>
    <g id="xtick_50">
     <g id="line2d_50">
      <g>
       <use style="stroke:#000000;stroke-width:0.6;" x="111.4836" xlink:href="#m10bb7c65af" y="310.99049"/>
      </g>
     </g>
    </g>
    <g id="xtick_51">
     <g id="line2d_51">
      <g>
       <use style="stroke:#000000;stroke-width:0.6;" x="113.463201" xlink:href="#m10bb7c65af" y="310.99049"/>
      </g>
     </g>
    </g>
    <g id="xtick_52">
     <g id="line2d_52">
      <g>
       <use style="stroke:#000000;stroke-width:0.6;" x="115.442802" xlink:href="#m10bb7c65af" y="310.99049"/>
      </g>
     </g>
    </g>
    <g id="xtick_53">
     <g id="line2d_53">
      <g>
       <use style="stroke:#000000;stroke-width:0.6;" x="119.402004" xlink:href="#m10bb7c65af" y="310.99049"/>
      </g>
     </g>
    </g>
    <g id="xtick_54">
     <g id="line2d_54">
      <g>
       <use style="stroke:#000000;stroke-width:0.6;" x="121.381605" xlink:href="#m10bb7c65af" y="310.99049"/>
      </g>
     </g>
    </g>
    <g id="xtick_55">
     <g id="line2d_55">
      <g>
       <use style="stroke:#000000;stroke-width:0.6;" x="123.361206" xlink:href="#m10bb7c65af" y="310.99049"/>
      </g>
     </g>
    </g>
    <g id="xtick_56">
     <g id="line2d_56">
      <g>
       <use style="stroke:#000000;stroke-width:0.6;" x="125.340807" xlink:href="#m10bb7c65af" y="310.99049"/>
      </g>
     </g>
    </g>
    <g id="xtick_57">
     <g id="line2d_57">
      <g>
       <use style="stroke:#000000;stroke-width:0.6;" x="127.320407" xlink:href="#m10bb7c65af" y="310.99049"/>
      </g>
     </g>
    </g>
    <g id="xtick_58">
     <g id="line2d_58">
      <g>
       <use style="stroke:#000000;stroke-width:0.6;" x="129.300008" xlink:href="#m10bb7c65af" y="310.99049"/>
      </g>
     </g>
    </g>
    <g id="xtick_59">
     <g id="line2d_59">
      <g>
       <use style="stroke:#000000;stroke-width:0.6;" x="131.279609" xlink:href="#m10bb7c65af" y="310.99049"/>
      </g>
     </g>
    </g>
    <g id="xtick_60">
     <g id="line2d_60">
      <g>
       <use style="stroke:#000000;stroke-width:0.6;" x="133.25921" xlink:href="#m10bb7c65af" y="310.99049"/>
      </g>
     </g>
    </g>
    <g id="xtick_61">
     <g id="line2d_61">
      <g>
       <use style="stroke:#000000;stroke-width:0.6;" x="135.238811" xlink:href="#m10bb7c65af" y="310.99049"/>
      </g>
     </g>
    </g>
    <g id="xtick_62">
     <g id="line2d_62">
      <g>
       <use style="stroke:#000000;stroke-width:0.6;" x="139.198013" xlink:href="#m10bb7c65af" y="310.99049"/>
      </g>
     </g>
    </g>
    <g id="xtick_63">
     <g id="line2d_63">
      <g>
       <use style="stroke:#000000;stroke-width:0.6;" x="141.177614" xlink:href="#m10bb7c65af" y="310.99049"/>
      </g>
     </g>
    </g>
    <g id="xtick_64">
     <g id="line2d_64">
      <g>
       <use style="stroke:#000000;stroke-width:0.6;" x="143.157215" xlink:href="#m10bb7c65af" y="310.99049"/>
      </g>
     </g>
    </g>
    <g id="xtick_65">
     <g id="line2d_65">
      <g>
       <use style="stroke:#000000;stroke-width:0.6;" x="145.136815" xlink:href="#m10bb7c65af" y="310.99049"/>
      </g>
     </g>
    </g>
    <g id="xtick_66">
     <g id="line2d_66">
      <g>
       <use style="stroke:#000000;stroke-width:0.6;" x="147.116416" xlink:href="#m10bb7c65af" y="310.99049"/>
      </g>
     </g>
    </g>
    <g id="xtick_67">
     <g id="line2d_67">
      <g>
       <use style="stroke:#000000;stroke-width:0.6;" x="149.096017" xlink:href="#m10bb7c65af" y="310.99049"/>
      </g>
     </g>
    </g>
    <g id="xtick_68">
     <g id="line2d_68">
      <g>
       <use style="stroke:#000000;stroke-width:0.6;" x="151.075618" xlink:href="#m10bb7c65af" y="310.99049"/>
      </g>
     </g>
    </g>
    <g id="xtick_69">
     <g id="line2d_69">
      <g>
       <use style="stroke:#000000;stroke-width:0.6;" x="153.055219" xlink:href="#m10bb7c65af" y="310.99049"/>
      </g>
     </g>
    </g>
    <g id="xtick_70">
     <g id="line2d_70">
      <g>
       <use style="stroke:#000000;stroke-width:0.6;" x="155.03482" xlink:href="#m10bb7c65af" y="310.99049"/>
      </g>
     </g>
    </g>
    <g id="xtick_71">
     <g id="line2d_71">
      <g>
       <use style="stroke:#000000;stroke-width:0.6;" x="158.994022" xlink:href="#m10bb7c65af" y="310.99049"/>
      </g>
     </g>
    </g>
    <g id="xtick_72">
     <g id="line2d_72">
      <g>
       <use style="stroke:#000000;stroke-width:0.6;" x="160.973623" xlink:href="#m10bb7c65af" y="310.99049"/>
      </g>
     </g>
    </g>
    <g id="xtick_73">
     <g id="line2d_73">
      <g>
       <use style="stroke:#000000;stroke-width:0.6;" x="162.953223" xlink:href="#m10bb7c65af" y="310.99049"/>
      </g>
     </g>
    </g>
    <g id="xtick_74">
     <g id="line2d_74">
      <g>
       <use style="stroke:#000000;stroke-width:0.6;" x="164.932824" xlink:href="#m10bb7c65af" y="310.99049"/>
      </g>
     </g>
    </g>
    <g id="xtick_75">
     <g id="line2d_75">
      <g>
       <use style="stroke:#000000;stroke-width:0.6;" x="166.912425" xlink:href="#m10bb7c65af" y="310.99049"/>
      </g>
     </g>
    </g>
    <g id="xtick_76">
     <g id="line2d_76">
      <g>
       <use style="stroke:#000000;stroke-width:0.6;" x="168.892026" xlink:href="#m10bb7c65af" y="310.99049"/>
      </g>
     </g>
    </g>
    <g id="xtick_77">
     <g id="line2d_77">
      <g>
       <use style="stroke:#000000;stroke-width:0.6;" x="170.871627" xlink:href="#m10bb7c65af" y="310.99049"/>
      </g>
     </g>
    </g>
    <g id="xtick_78">
     <g id="line2d_78">
      <g>
       <use style="stroke:#000000;stroke-width:0.6;" x="172.851228" xlink:href="#m10bb7c65af" y="310.99049"/>
      </g>
     </g>
    </g>
    <g id="xtick_79">
     <g id="line2d_79">
      <g>
       <use style="stroke:#000000;stroke-width:0.6;" x="174.830829" xlink:href="#m10bb7c65af" y="310.99049"/>
      </g>
     </g>
    </g>
    <g id="xtick_80">
     <g id="line2d_80">
      <g>
       <use style="stroke:#000000;stroke-width:0.6;" x="178.79003" xlink:href="#m10bb7c65af" y="310.99049"/>
      </g>
     </g>
    </g>
    <g id="xtick_81">
     <g id="line2d_81">
      <g>
       <use style="stroke:#000000;stroke-width:0.6;" x="180.769631" xlink:href="#m10bb7c65af" y="310.99049"/>
      </g>
     </g>
    </g>
    <g id="xtick_82">
     <g id="line2d_82">
      <g>
       <use style="stroke:#000000;stroke-width:0.6;" x="182.749232" xlink:href="#m10bb7c65af" y="310.99049"/>
      </g>
     </g>
    </g>
    <g id="xtick_83">
     <g id="line2d_83">
      <g>
       <use style="stroke:#000000;stroke-width:0.6;" x="184.728833" xlink:href="#m10bb7c65af" y="310.99049"/>
      </g>
     </g>
    </g>
    <g id="xtick_84">
     <g id="line2d_84">
      <g>
       <use style="stroke:#000000;stroke-width:0.6;" x="186.708434" xlink:href="#m10bb7c65af" y="310.99049"/>
      </g>
     </g>
    </g>
    <g id="xtick_85">
     <g id="line2d_85">
      <g>
       <use style="stroke:#000000;stroke-width:0.6;" x="188.688035" xlink:href="#m10bb7c65af" y="310.99049"/>
      </g>
     </g>
    </g>
    <g id="xtick_86">
     <g id="line2d_86">
      <g>
       <use style="stroke:#000000;stroke-width:0.6;" x="190.667636" xlink:href="#m10bb7c65af" y="310.99049"/>
      </g>
     </g>
    </g>
    <g id="xtick_87">
     <g id="line2d_87">
      <g>
       <use style="stroke:#000000;stroke-width:0.6;" x="192.647237" xlink:href="#m10bb7c65af" y="310.99049"/>
      </g>
     </g>
    </g>
    <g id="xtick_88">
     <g id="line2d_88">
      <g>
       <use style="stroke:#000000;stroke-width:0.6;" x="194.626838" xlink:href="#m10bb7c65af" y="310.99049"/>
      </g>
     </g>
    </g>
    <g id="xtick_89">
     <g id="line2d_89">
      <g>
       <use style="stroke:#000000;stroke-width:0.6;" x="198.586039" xlink:href="#m10bb7c65af" y="310.99049"/>
      </g>
     </g>
    </g>
    <g id="xtick_90">
     <g id="line2d_90">
      <g>
       <use style="stroke:#000000;stroke-width:0.6;" x="200.56564" xlink:href="#m10bb7c65af" y="310.99049"/>
      </g>
     </g>
    </g>
    <g id="xtick_91">
     <g id="line2d_91">
      <g>
       <use style="stroke:#000000;stroke-width:0.6;" x="202.545241" xlink:href="#m10bb7c65af" y="310.99049"/>
      </g>
     </g>
    </g>
    <g id="xtick_92">
     <g id="line2d_92">
      <g>
       <use style="stroke:#000000;stroke-width:0.6;" x="204.524842" xlink:href="#m10bb7c65af" y="310.99049"/>
      </g>
     </g>
    </g>
    <g id="xtick_93">
     <g id="line2d_93">
      <g>
       <use style="stroke:#000000;stroke-width:0.6;" x="206.504443" xlink:href="#m10bb7c65af" y="310.99049"/>
      </g>
     </g>
    </g>
    <g id="xtick_94">
     <g id="line2d_94">
      <g>
       <use style="stroke:#000000;stroke-width:0.6;" x="208.484044" xlink:href="#m10bb7c65af" y="310.99049"/>
      </g>
     </g>
    </g>
    <g id="xtick_95">
     <g id="line2d_95">
      <g>
       <use style="stroke:#000000;stroke-width:0.6;" x="210.463645" xlink:href="#m10bb7c65af" y="310.99049"/>
      </g>
     </g>
    </g>
    <g id="xtick_96">
     <g id="line2d_96">
      <g>
       <use style="stroke:#000000;stroke-width:0.6;" x="212.443246" xlink:href="#m10bb7c65af" y="310.99049"/>
      </g>
     </g>
    </g>
    <g id="xtick_97">
     <g id="line2d_97">
      <g>
       <use style="stroke:#000000;stroke-width:0.6;" x="214.422846" xlink:href="#m10bb7c65af" y="310.99049"/>
      </g>
     </g>
    </g>
    <g id="xtick_98">
     <g id="line2d_98">
      <g>
       <use style="stroke:#000000;stroke-width:0.6;" x="218.382048" xlink:href="#m10bb7c65af" y="310.99049"/>
      </g>
     </g>
    </g>
    <g id="xtick_99">
     <g id="line2d_99">
      <g>
       <use style="stroke:#000000;stroke-width:0.6;" x="220.361649" xlink:href="#m10bb7c65af" y="310.99049"/>
      </g>
     </g>
    </g>
    <g id="xtick_100">
     <g id="line2d_100">
      <g>
       <use style="stroke:#000000;stroke-width:0.6;" x="222.34125" xlink:href="#m10bb7c65af" y="310.99049"/>
      </g>
     </g>
    </g>
    <g id="xtick_101">
     <g id="line2d_101">
      <g>
       <use style="stroke:#000000;stroke-width:0.6;" x="224.320851" xlink:href="#m10bb7c65af" y="310.99049"/>
      </g>
     </g>
    </g>
    <g id="xtick_102">
     <g id="line2d_102">
      <g>
       <use style="stroke:#000000;stroke-width:0.6;" x="226.300452" xlink:href="#m10bb7c65af" y="310.99049"/>
      </g>
     </g>
    </g>
    <g id="xtick_103">
     <g id="line2d_103">
      <g>
       <use style="stroke:#000000;stroke-width:0.6;" x="228.280053" xlink:href="#m10bb7c65af" y="310.99049"/>
      </g>
     </g>
    </g>
    <g id="xtick_104">
     <g id="line2d_104">
      <g>
       <use style="stroke:#000000;stroke-width:0.6;" x="230.259654" xlink:href="#m10bb7c65af" y="310.99049"/>
      </g>
     </g>
    </g>
    <g id="xtick_105">
     <g id="line2d_105">
      <g>
       <use style="stroke:#000000;stroke-width:0.6;" x="232.239254" xlink:href="#m10bb7c65af" y="310.99049"/>
      </g>
     </g>
    </g>
    <g id="xtick_106">
     <g id="line2d_106">
      <g>
       <use style="stroke:#000000;stroke-width:0.6;" x="234.218855" xlink:href="#m10bb7c65af" y="310.99049"/>
      </g>
     </g>
    </g>
    <g id="xtick_107">
     <g id="line2d_107">
      <g>
       <use style="stroke:#000000;stroke-width:0.6;" x="238.178057" xlink:href="#m10bb7c65af" y="310.99049"/>
      </g>
     </g>
    </g>
    <g id="xtick_108">
     <g id="line2d_108">
      <g>
       <use style="stroke:#000000;stroke-width:0.6;" x="240.157658" xlink:href="#m10bb7c65af" y="310.99049"/>
      </g>
     </g>
    </g>
    <g id="xtick_109">
     <g id="line2d_109">
      <g>
       <use style="stroke:#000000;stroke-width:0.6;" x="242.137259" xlink:href="#m10bb7c65af" y="310.99049"/>
      </g>
     </g>
    </g>
    <g id="xtick_110">
     <g id="line2d_110">
      <g>
       <use style="stroke:#000000;stroke-width:0.6;" x="244.11686" xlink:href="#m10bb7c65af" y="310.99049"/>
      </g>
     </g>
    </g>
    <g id="xtick_111">
     <g id="line2d_111">
      <g>
       <use style="stroke:#000000;stroke-width:0.6;" x="246.096461" xlink:href="#m10bb7c65af" y="310.99049"/>
      </g>
     </g>
    </g>
    <g id="xtick_112">
     <g id="line2d_112">
      <g>
       <use style="stroke:#000000;stroke-width:0.6;" x="248.076062" xlink:href="#m10bb7c65af" y="310.99049"/>
      </g>
     </g>
    </g>
    <g id="xtick_113">
     <g id="line2d_113">
      <g>
       <use style="stroke:#000000;stroke-width:0.6;" x="250.055662" xlink:href="#m10bb7c65af" y="310.99049"/>
      </g>
     </g>
    </g>
    <g id="xtick_114">
     <g id="line2d_114">
      <g>
       <use style="stroke:#000000;stroke-width:0.6;" x="252.035263" xlink:href="#m10bb7c65af" y="310.99049"/>
      </g>
     </g>
    </g>
    <g id="xtick_115">
     <g id="line2d_115">
      <g>
       <use style="stroke:#000000;stroke-width:0.6;" x="254.014864" xlink:href="#m10bb7c65af" y="310.99049"/>
      </g>
     </g>
    </g>
    <g id="xtick_116">
     <g id="line2d_116">
      <g>
       <use style="stroke:#000000;stroke-width:0.6;" x="257.974066" xlink:href="#m10bb7c65af" y="310.99049"/>
      </g>
     </g>
    </g>
    <g id="xtick_117">
     <g id="line2d_117">
      <g>
       <use style="stroke:#000000;stroke-width:0.6;" x="259.953667" xlink:href="#m10bb7c65af" y="310.99049"/>
      </g>
     </g>
    </g>
    <g id="xtick_118">
     <g id="line2d_118">
      <g>
       <use style="stroke:#000000;stroke-width:0.6;" x="261.933268" xlink:href="#m10bb7c65af" y="310.99049"/>
      </g>
     </g>
    </g>
    <g id="xtick_119">
     <g id="line2d_119">
      <g>
       <use style="stroke:#000000;stroke-width:0.6;" x="263.912869" xlink:href="#m10bb7c65af" y="310.99049"/>
      </g>
     </g>
    </g>
    <g id="xtick_120">
     <g id="line2d_120">
      <g>
       <use style="stroke:#000000;stroke-width:0.6;" x="265.89247" xlink:href="#m10bb7c65af" y="310.99049"/>
      </g>
     </g>
    </g>
    <g id="xtick_121">
     <g id="line2d_121">
      <g>
       <use style="stroke:#000000;stroke-width:0.6;" x="267.87207" xlink:href="#m10bb7c65af" y="310.99049"/>
      </g>
     </g>
    </g>
    <g id="xtick_122">
     <g id="line2d_122">
      <g>
       <use style="stroke:#000000;stroke-width:0.6;" x="269.851671" xlink:href="#m10bb7c65af" y="310.99049"/>
      </g>
     </g>
    </g>
    <g id="xtick_123">
     <g id="line2d_123">
      <g>
       <use style="stroke:#000000;stroke-width:0.6;" x="271.831272" xlink:href="#m10bb7c65af" y="310.99049"/>
      </g>
     </g>
    </g>
    <g id="xtick_124">
     <g id="line2d_124">
      <g>
       <use style="stroke:#000000;stroke-width:0.6;" x="273.810873" xlink:href="#m10bb7c65af" y="310.99049"/>
      </g>
     </g>
    </g>
    <g id="xtick_125">
     <g id="line2d_125">
      <g>
       <use style="stroke:#000000;stroke-width:0.6;" x="277.770075" xlink:href="#m10bb7c65af" y="310.99049"/>
      </g>
     </g>
    </g>
    <g id="xtick_126">
     <g id="line2d_126">
      <g>
       <use style="stroke:#000000;stroke-width:0.6;" x="279.749676" xlink:href="#m10bb7c65af" y="310.99049"/>
      </g>
     </g>
    </g>
    <g id="xtick_127">
     <g id="line2d_127">
      <g>
       <use style="stroke:#000000;stroke-width:0.6;" x="281.729277" xlink:href="#m10bb7c65af" y="310.99049"/>
      </g>
     </g>
    </g>
    <g id="xtick_128">
     <g id="line2d_128">
      <g>
       <use style="stroke:#000000;stroke-width:0.6;" x="283.708877" xlink:href="#m10bb7c65af" y="310.99049"/>
      </g>
     </g>
    </g>
    <g id="xtick_129">
     <g id="line2d_129">
      <g>
       <use style="stroke:#000000;stroke-width:0.6;" x="285.688478" xlink:href="#m10bb7c65af" y="310.99049"/>
      </g>
     </g>
    </g>
    <g id="xtick_130">
     <g id="line2d_130">
      <g>
       <use style="stroke:#000000;stroke-width:0.6;" x="287.668079" xlink:href="#m10bb7c65af" y="310.99049"/>
      </g>
     </g>
    </g>
    <g id="xtick_131">
     <g id="line2d_131">
      <g>
       <use style="stroke:#000000;stroke-width:0.6;" x="289.64768" xlink:href="#m10bb7c65af" y="310.99049"/>
      </g>
     </g>
    </g>
    <g id="xtick_132">
     <g id="line2d_132">
      <g>
       <use style="stroke:#000000;stroke-width:0.6;" x="291.627281" xlink:href="#m10bb7c65af" y="310.99049"/>
      </g>
     </g>
    </g>
    <g id="xtick_133">
     <g id="line2d_133">
      <g>
       <use style="stroke:#000000;stroke-width:0.6;" x="293.606882" xlink:href="#m10bb7c65af" y="310.99049"/>
      </g>
     </g>
    </g>
    <g id="xtick_134">
     <g id="line2d_134">
      <g>
       <use style="stroke:#000000;stroke-width:0.6;" x="297.566084" xlink:href="#m10bb7c65af" y="310.99049"/>
      </g>
     </g>
    </g>
    <g id="xtick_135">
     <g id="line2d_135">
      <g>
       <use style="stroke:#000000;stroke-width:0.6;" x="299.545685" xlink:href="#m10bb7c65af" y="310.99049"/>
      </g>
     </g>
    </g>
    <g id="xtick_136">
     <g id="line2d_136">
      <g>
       <use style="stroke:#000000;stroke-width:0.6;" x="301.525285" xlink:href="#m10bb7c65af" y="310.99049"/>
      </g>
     </g>
    </g>
    <g id="xtick_137">
     <g id="line2d_137">
      <g>
       <use style="stroke:#000000;stroke-width:0.6;" x="303.504886" xlink:href="#m10bb7c65af" y="310.99049"/>
      </g>
     </g>
    </g>
    <g id="xtick_138">
     <g id="line2d_138">
      <g>
       <use style="stroke:#000000;stroke-width:0.6;" x="305.484487" xlink:href="#m10bb7c65af" y="310.99049"/>
      </g>
     </g>
    </g>
    <g id="xtick_139">
     <g id="line2d_139">
      <g>
       <use style="stroke:#000000;stroke-width:0.6;" x="307.464088" xlink:href="#m10bb7c65af" y="310.99049"/>
      </g>
     </g>
    </g>
    <g id="xtick_140">
     <g id="line2d_140">
      <g>
       <use style="stroke:#000000;stroke-width:0.6;" x="309.443689" xlink:href="#m10bb7c65af" y="310.99049"/>
      </g>
     </g>
    </g>
    <g id="xtick_141">
     <g id="line2d_141">
      <g>
       <use style="stroke:#000000;stroke-width:0.6;" x="311.42329" xlink:href="#m10bb7c65af" y="310.99049"/>
      </g>
     </g>
    </g>
    <g id="xtick_142">
     <g id="line2d_142">
      <g>
       <use style="stroke:#000000;stroke-width:0.6;" x="313.402891" xlink:href="#m10bb7c65af" y="310.99049"/>
      </g>
     </g>
    </g>
    <g id="xtick_143">
     <g id="line2d_143">
      <g>
       <use style="stroke:#000000;stroke-width:0.6;" x="317.362093" xlink:href="#m10bb7c65af" y="310.99049"/>
      </g>
     </g>
    </g>
    <g id="xtick_144">
     <g id="line2d_144">
      <g>
       <use style="stroke:#000000;stroke-width:0.6;" x="319.341693" xlink:href="#m10bb7c65af" y="310.99049"/>
      </g>
     </g>
    </g>
    <g id="xtick_145">
     <g id="line2d_145">
      <g>
       <use style="stroke:#000000;stroke-width:0.6;" x="321.321294" xlink:href="#m10bb7c65af" y="310.99049"/>
      </g>
     </g>
    </g>
    <g id="xtick_146">
     <g id="line2d_146">
      <g>
       <use style="stroke:#000000;stroke-width:0.6;" x="323.300895" xlink:href="#m10bb7c65af" y="310.99049"/>
      </g>
     </g>
    </g>
    <g id="xtick_147">
     <g id="line2d_147">
      <g>
       <use style="stroke:#000000;stroke-width:0.6;" x="325.280496" xlink:href="#m10bb7c65af" y="310.99049"/>
      </g>
     </g>
    </g>
    <g id="xtick_148">
     <g id="line2d_148">
      <g>
       <use style="stroke:#000000;stroke-width:0.6;" x="327.260097" xlink:href="#m10bb7c65af" y="310.99049"/>
      </g>
     </g>
    </g>
    <g id="xtick_149">
     <g id="line2d_149">
      <g>
       <use style="stroke:#000000;stroke-width:0.6;" x="329.239698" xlink:href="#m10bb7c65af" y="310.99049"/>
      </g>
     </g>
    </g>
    <g id="xtick_150">
     <g id="line2d_150">
      <g>
       <use style="stroke:#000000;stroke-width:0.6;" x="331.219299" xlink:href="#m10bb7c65af" y="310.99049"/>
      </g>
     </g>
    </g>
    <g id="xtick_151">
     <g id="line2d_151">
      <g>
       <use style="stroke:#000000;stroke-width:0.6;" x="333.1989" xlink:href="#m10bb7c65af" y="310.99049"/>
      </g>
     </g>
    </g>
    <g id="xtick_152">
     <g id="line2d_152">
      <g>
       <use style="stroke:#000000;stroke-width:0.6;" x="337.158101" xlink:href="#m10bb7c65af" y="310.99049"/>
      </g>
     </g>
    </g>
    <g id="xtick_153">
     <g id="line2d_153">
      <g>
       <use style="stroke:#000000;stroke-width:0.6;" x="339.137702" xlink:href="#m10bb7c65af" y="310.99049"/>
      </g>
     </g>
    </g>
    <g id="xtick_154">
     <g id="line2d_154">
      <g>
       <use style="stroke:#000000;stroke-width:0.6;" x="341.117303" xlink:href="#m10bb7c65af" y="310.99049"/>
      </g>
     </g>
    </g>
    <g id="xtick_155">
     <g id="line2d_155">
      <g>
       <use style="stroke:#000000;stroke-width:0.6;" x="343.096904" xlink:href="#m10bb7c65af" y="310.99049"/>
      </g>
     </g>
    </g>
    <g id="xtick_156">
     <g id="line2d_156">
      <g>
       <use style="stroke:#000000;stroke-width:0.6;" x="345.076505" xlink:href="#m10bb7c65af" y="310.99049"/>
      </g>
     </g>
    </g>
    <g id="xtick_157">
     <g id="line2d_157">
      <g>
       <use style="stroke:#000000;stroke-width:0.6;" x="347.056106" xlink:href="#m10bb7c65af" y="310.99049"/>
      </g>
     </g>
    </g>
    <g id="xtick_158">
     <g id="line2d_158">
      <g>
       <use style="stroke:#000000;stroke-width:0.6;" x="349.035707" xlink:href="#m10bb7c65af" y="310.99049"/>
      </g>
     </g>
    </g>
    <g id="xtick_159">
     <g id="line2d_159">
      <g>
       <use style="stroke:#000000;stroke-width:0.6;" x="351.015308" xlink:href="#m10bb7c65af" y="310.99049"/>
      </g>
     </g>
    </g>
    <g id="xtick_160">
     <g id="line2d_160">
      <g>
       <use style="stroke:#000000;stroke-width:0.6;" x="352.994909" xlink:href="#m10bb7c65af" y="310.99049"/>
      </g>
     </g>
    </g>
    <g id="xtick_161">
     <g id="line2d_161">
      <g>
       <use style="stroke:#000000;stroke-width:0.6;" x="356.95411" xlink:href="#m10bb7c65af" y="310.99049"/>
      </g>
     </g>
    </g>
    <g id="xtick_162">
     <g id="line2d_162">
      <g>
       <use style="stroke:#000000;stroke-width:0.6;" x="358.933711" xlink:href="#m10bb7c65af" y="310.99049"/>
      </g>
     </g>
    </g>
    <g id="xtick_163">
     <g id="line2d_163">
      <g>
       <use style="stroke:#000000;stroke-width:0.6;" x="360.913312" xlink:href="#m10bb7c65af" y="310.99049"/>
      </g>
     </g>
    </g>
    <g id="xtick_164">
     <g id="line2d_164">
      <g>
       <use style="stroke:#000000;stroke-width:0.6;" x="362.892913" xlink:href="#m10bb7c65af" y="310.99049"/>
      </g>
     </g>
    </g>
    <g id="xtick_165">
     <g id="line2d_165">
      <g>
       <use style="stroke:#000000;stroke-width:0.6;" x="364.872514" xlink:href="#m10bb7c65af" y="310.99049"/>
      </g>
     </g>
    </g>
    <g id="xtick_166">
     <g id="line2d_166">
      <g>
       <use style="stroke:#000000;stroke-width:0.6;" x="366.852115" xlink:href="#m10bb7c65af" y="310.99049"/>
      </g>
     </g>
    </g>
    <g id="xtick_167">
     <g id="line2d_167">
      <g>
       <use style="stroke:#000000;stroke-width:0.6;" x="368.831716" xlink:href="#m10bb7c65af" y="310.99049"/>
      </g>
     </g>
    </g>
    <g id="xtick_168">
     <g id="line2d_168">
      <g>
       <use style="stroke:#000000;stroke-width:0.6;" x="370.811317" xlink:href="#m10bb7c65af" y="310.99049"/>
      </g>
     </g>
    </g>
    <g id="xtick_169">
     <g id="line2d_169">
      <g>
       <use style="stroke:#000000;stroke-width:0.6;" x="372.790917" xlink:href="#m10bb7c65af" y="310.99049"/>
      </g>
     </g>
    </g>
    <g id="xtick_170">
     <g id="line2d_170">
      <g>
       <use style="stroke:#000000;stroke-width:0.6;" x="376.750119" xlink:href="#m10bb7c65af" y="310.99049"/>
      </g>
     </g>
    </g>
    <g id="xtick_171">
     <g id="line2d_171">
      <g>
       <use style="stroke:#000000;stroke-width:0.6;" x="378.72972" xlink:href="#m10bb7c65af" y="310.99049"/>
      </g>
     </g>
    </g>
    <g id="xtick_172">
     <g id="line2d_172">
      <g>
       <use style="stroke:#000000;stroke-width:0.6;" x="380.709321" xlink:href="#m10bb7c65af" y="310.99049"/>
      </g>
     </g>
    </g>
    <g id="xtick_173">
     <g id="line2d_173">
      <g>
       <use style="stroke:#000000;stroke-width:0.6;" x="382.688922" xlink:href="#m10bb7c65af" y="310.99049"/>
      </g>
     </g>
    </g>
    <g id="xtick_174">
     <g id="line2d_174">
      <g>
       <use style="stroke:#000000;stroke-width:0.6;" x="384.668523" xlink:href="#m10bb7c65af" y="310.99049"/>
      </g>
     </g>
    </g>
    <g id="xtick_175">
     <g id="line2d_175">
      <g>
       <use style="stroke:#000000;stroke-width:0.6;" x="386.648124" xlink:href="#m10bb7c65af" y="310.99049"/>
      </g>
     </g>
    </g>
    <g id="xtick_176">
     <g id="line2d_176">
      <g>
       <use style="stroke:#000000;stroke-width:0.6;" x="388.627725" xlink:href="#m10bb7c65af" y="310.99049"/>
      </g>
     </g>
    </g>
    <g id="xtick_177">
     <g id="line2d_177">
      <g>
       <use style="stroke:#000000;stroke-width:0.6;" x="390.607325" xlink:href="#m10bb7c65af" y="310.99049"/>
      </g>
     </g>
    </g>
    <g id="xtick_178">
     <g id="line2d_178">
      <g>
       <use style="stroke:#000000;stroke-width:0.6;" x="392.586926" xlink:href="#m10bb7c65af" y="310.99049"/>
      </g>
     </g>
    </g>
    <g id="xtick_179">
     <g id="line2d_179">
      <g>
       <use style="stroke:#000000;stroke-width:0.6;" x="396.546128" xlink:href="#m10bb7c65af" y="310.99049"/>
      </g>
     </g>
    </g>
    <g id="xtick_180">
     <g id="line2d_180">
      <g>
       <use style="stroke:#000000;stroke-width:0.6;" x="398.525729" xlink:href="#m10bb7c65af" y="310.99049"/>
      </g>
     </g>
    </g>
    <g id="xtick_181">
     <g id="line2d_181">
      <g>
       <use style="stroke:#000000;stroke-width:0.6;" x="400.50533" xlink:href="#m10bb7c65af" y="310.99049"/>
      </g>
     </g>
    </g>
    <g id="text_19">
     <!-- Residue Number -->
     <defs>
      <path d="M 44.390625 34.1875 
Q 47.5625 33.109375 50.5625 29.59375 
Q 53.5625 26.078125 56.59375 19.921875 
L 66.609375 0 
L 56 0 
L 46.6875 18.703125 
Q 43.0625 26.03125 39.671875 28.421875 
Q 36.28125 30.8125 30.421875 30.8125 
L 19.671875 30.8125 
L 19.671875 0 
L 9.8125 0 
L 9.8125 72.90625 
L 32.078125 72.90625 
Q 44.578125 72.90625 50.734375 67.671875 
Q 56.890625 62.453125 56.890625 51.90625 
Q 56.890625 45.015625 53.6875 40.46875 
Q 50.484375 35.9375 44.390625 34.1875 
z
M 19.671875 64.796875 
L 19.671875 38.921875 
L 32.078125 38.921875 
Q 39.203125 38.921875 42.84375 42.21875 
Q 46.484375 45.515625 46.484375 51.90625 
Q 46.484375 58.296875 42.84375 61.546875 
Q 39.203125 64.796875 32.078125 64.796875 
z
" id="DejaVuSans-82"/>
      <path d="M 56.203125 29.59375 
L 56.203125 25.203125 
L 14.890625 25.203125 
Q 15.484375 15.921875 20.484375 11.0625 
Q 25.484375 6.203125 34.421875 6.203125 
Q 39.59375 6.203125 44.453125 7.46875 
Q 49.3125 8.734375 54.109375 11.28125 
L 54.109375 2.78125 
Q 49.265625 0.734375 44.1875 -0.34375 
Q 39.109375 -1.421875 33.890625 -1.421875 
Q 20.796875 -1.421875 13.15625 6.1875 
Q 5.515625 13.8125 5.515625 26.8125 
Q 5.515625 40.234375 12.765625 48.109375 
Q 20.015625 56 32.328125 56 
Q 43.359375 56 49.78125 48.890625 
Q 56.203125 41.796875 56.203125 29.59375 
z
M 47.21875 32.234375 
Q 47.125 39.59375 43.09375 43.984375 
Q 39.0625 48.390625 32.421875 48.390625 
Q 24.90625 48.390625 20.390625 44.140625 
Q 15.875 39.890625 15.1875 32.171875 
z
" id="DejaVuSans-101"/>
      <path d="M 44.28125 53.078125 
L 44.28125 44.578125 
Q 40.484375 46.53125 36.375 47.5 
Q 32.28125 48.484375 27.875 48.484375 
Q 21.1875 48.484375 17.84375 46.4375 
Q 14.5 44.390625 14.5 40.28125 
Q 14.5 37.15625 16.890625 35.375 
Q 19.28125 33.59375 26.515625 31.984375 
L 29.59375 31.296875 
Q 39.15625 29.25 43.1875 25.515625 
Q 47.21875 21.78125 47.21875 15.09375 
Q 47.21875 7.46875 41.1875 3.015625 
Q 35.15625 -1.421875 24.609375 -1.421875 
Q 20.21875 -1.421875 15.453125 -0.5625 
Q 10.6875 0.296875 5.421875 2 
L 5.421875 11.28125 
Q 10.40625 8.6875 15.234375 7.390625 
Q 20.0625 6.109375 24.8125 6.109375 
Q 31.15625 6.109375 34.5625 8.28125 
Q 37.984375 10.453125 37.984375 14.40625 
Q 37.984375 18.0625 35.515625 20.015625 
Q 33.0625 21.96875 24.703125 23.78125 
L 21.578125 24.515625 
Q 13.234375 26.265625 9.515625 29.90625 
Q 5.8125 33.546875 5.8125 39.890625 
Q 5.8125 47.609375 11.28125 51.796875 
Q 16.75 56 26.8125 56 
Q 31.78125 56 36.171875 55.265625 
Q 40.578125 54.546875 44.28125 53.078125 
z
" id="DejaVuSans-115"/>
      <path d="M 9.421875 54.6875 
L 18.40625 54.6875 
L 18.40625 0 
L 9.421875 0 
z
M 9.421875 75.984375 
L 18.40625 75.984375 
L 18.40625 64.59375 
L 9.421875 64.59375 
z
" id="DejaVuSans-105"/>
      <path d="M 45.40625 46.390625 
L 45.40625 75.984375 
L 54.390625 75.984375 
L 54.390625 0 
L 45.40625 0 
L 45.40625 8.203125 
Q 42.578125 3.328125 38.25 0.953125 
Q 33.9375 -1.421875 27.875 -1.421875 
Q 17.96875 -1.421875 11.734375 6.484375 
Q 5.515625 14.40625 5.515625 27.296875 
Q 5.515625 40.1875 11.734375 48.09375 
Q 17.96875 56 27.875 56 
Q 33.9375 56 38.25 53.625 
Q 42.578125 51.265625 45.40625 46.390625 
z
M 14.796875 27.296875 
Q 14.796875 17.390625 18.875 11.75 
Q 22.953125 6.109375 30.078125 6.109375 
Q 37.203125 6.109375 41.296875 11.75 
Q 45.40625 17.390625 45.40625 27.296875 
Q 45.40625 37.203125 41.296875 42.84375 
Q 37.203125 48.484375 30.078125 48.484375 
Q 22.953125 48.484375 18.875 42.84375 
Q 14.796875 37.203125 14.796875 27.296875 
z
" id="DejaVuSans-100"/>
      <path d="M 8.5 21.578125 
L 8.5 54.6875 
L 17.484375 54.6875 
L 17.484375 21.921875 
Q 17.484375 14.15625 20.5 10.265625 
Q 23.53125 6.390625 29.59375 6.390625 
Q 36.859375 6.390625 41.078125 11.03125 
Q 45.3125 15.671875 45.3125 23.6875 
L 45.3125 54.6875 
L 54.296875 54.6875 
L 54.296875 0 
L 45.3125 0 
L 45.3125 8.40625 
Q 42.046875 3.421875 37.71875 1 
Q 33.40625 -1.421875 27.6875 -1.421875 
Q 18.265625 -1.421875 13.375 4.4375 
Q 8.5 10.296875 8.5 21.578125 
z
M 31.109375 56 
z
" id="DejaVuSans-117"/>
      <path id="DejaVuSans-32"/>
      <path d="M 9.8125 72.90625 
L 23.09375 72.90625 
L 55.421875 11.921875 
L 55.421875 72.90625 
L 64.984375 72.90625 
L 64.984375 0 
L 51.703125 0 
L 19.390625 60.984375 
L 19.390625 0 
L 9.8125 0 
z
" id="DejaVuSans-78"/>
      <path d="M 52 44.1875 
Q 55.375 50.25 60.0625 53.125 
Q 64.75 56 71.09375 56 
Q 79.640625 56 84.28125 50.015625 
Q 88.921875 44.046875 88.921875 33.015625 
L 88.921875 0 
L 79.890625 0 
L 79.890625 32.71875 
Q 79.890625 40.578125 77.09375 44.375 
Q 74.3125 48.1875 68.609375 48.1875 
Q 61.625 48.1875 57.5625 43.546875 
Q 53.515625 38.921875 53.515625 30.90625 
L 53.515625 0 
L 44.484375 0 
L 44.484375 32.71875 
Q 44.484375 40.625 41.703125 44.40625 
Q 38.921875 48.1875 33.109375 48.1875 
Q 26.21875 48.1875 22.15625 43.53125 
Q 18.109375 38.875 18.109375 30.90625 
L 18.109375 0 
L 9.078125 0 
L 9.078125 54.6875 
L 18.109375 54.6875 
L 18.109375 46.1875 
Q 21.1875 51.21875 25.484375 53.609375 
Q 29.78125 56 35.6875 56 
Q 41.65625 56 45.828125 52.96875 
Q 50 49.953125 52 44.1875 
z
" id="DejaVuSans-109"/>
      <path d="M 48.6875 27.296875 
Q 48.6875 37.203125 44.609375 42.84375 
Q 40.53125 48.484375 33.40625 48.484375 
Q 26.265625 48.484375 22.1875 42.84375 
Q 18.109375 37.203125 18.109375 27.296875 
Q 18.109375 17.390625 22.1875 11.75 
Q 26.265625 6.109375 33.40625 6.109375 
Q 40.53125 6.109375 44.609375 11.75 
Q 48.6875 17.390625 48.6875 27.296875 
z
M 18.109375 46.390625 
Q 20.953125 51.265625 25.265625 53.625 
Q 29.59375 56 35.59375 56 
Q 45.5625 56 51.78125 48.09375 
Q 58.015625 40.1875 58.015625 27.296875 
Q 58.015625 14.40625 51.78125 6.484375 
Q 45.5625 -1.421875 35.59375 -1.421875 
Q 29.59375 -1.421875 25.265625 0.953125 
Q 20.953125 3.328125 18.109375 8.203125 
L 18.109375 0 
L 9.078125 0 
L 9.078125 75.984375 
L 18.109375 75.984375 
z
" id="DejaVuSans-98"/>
      <path d="M 41.109375 46.296875 
Q 39.59375 47.171875 37.8125 47.578125 
Q 36.03125 48 33.890625 48 
Q 26.265625 48 22.1875 43.046875 
Q 18.109375 38.09375 18.109375 28.8125 
L 18.109375 0 
L 9.078125 0 
L 9.078125 54.6875 
L 18.109375 54.6875 
L 18.109375 46.1875 
Q 20.953125 51.171875 25.484375 53.578125 
Q 30.03125 56 36.53125 56 
Q 37.453125 56 38.578125 55.875 
Q 39.703125 55.765625 41.0625 55.515625 
z
" id="DejaVuSans-114"/>
     </defs>
     <g transform="translate(180.705312 339.267052)scale(0.1 -0.1)">
      <use xlink:href="#DejaVuSans-82"/>
      <use x="69.419922" xlink:href="#DejaVuSans-101"/>
      <use x="130.943359" xlink:href="#DejaVuSans-115"/>
      <use x="183.042969" xlink:href="#DejaVuSans-105"/>
      <use x="210.826172" xlink:href="#DejaVuSans-100"/>
      <use x="274.302734" xlink:href="#DejaVuSans-117"/>
      <use x="337.681641" xlink:href="#DejaVuSans-101"/>
      <use x="399.205078" xlink:href="#DejaVuSans-32"/>
      <use x="430.992188" xlink:href="#DejaVuSans-78"/>
      <use x="505.796875" xlink:href="#DejaVuSans-117"/>
      <use x="569.175781" xlink:href="#DejaVuSans-109"/>
      <use x="666.587891" xlink:href="#DejaVuSans-98"/>
      <use x="730.064453" xlink:href="#DejaVuSans-101"/>
      <use x="791.587891" xlink:href="#DejaVuSans-114"/>
     </g>
    </g>
   </g>
   <g id="matplotlib.axis_2">
    <g id="ytick_1">
     <g id="line2d_182">
      <defs>
       <path d="M 0 0 
L -3.5 0 
" id="m6e13a26c03" style="stroke:#000000;stroke-width:0.8;"/>
      </defs>
      <g>
       <use style="stroke:#000000;stroke-width:0.8;" x="43.78125" xlink:href="#m6e13a26c03" y="301.185721"/>
      </g>
     </g>
     <g id="text_20">
      <!-- 0.0 -->
      <defs>
       <path d="M 10.6875 12.40625 
L 21 12.40625 
L 21 0 
L 10.6875 0 
z
" id="DejaVuSans-46"/>
      </defs>
      <g transform="translate(20.878125 304.98494)scale(0.1 -0.1)">
       <use xlink:href="#DejaVuSans-48"/>
       <use x="63.623047" xlink:href="#DejaVuSans-46"/>
       <use x="95.410156" xlink:href="#DejaVuSans-48"/>
      </g>
     </g>
    </g>
    <g id="ytick_2">
     <g id="line2d_183">
      <g>
       <use style="stroke:#000000;stroke-width:0.8;" x="43.78125" xlink:href="#m6e13a26c03" y="267.745655"/>
      </g>
     </g>
     <g id="text_21">
      <!-- 0.5 -->
      <g transform="translate(20.878125 271.544873)scale(0.1 -0.1)">
       <use xlink:href="#DejaVuSans-48"/>
       <use x="63.623047" xlink:href="#DejaVuSans-46"/>
       <use x="95.410156" xlink:href="#DejaVuSans-53"/>
      </g>
     </g>
    </g>
    <g id="ytick_3">
     <g id="line2d_184">
      <g>
       <use style="stroke:#000000;stroke-width:0.8;" x="43.78125" xlink:href="#m6e13a26c03" y="234.305589"/>
      </g>
     </g>
     <g id="text_22">
      <!-- 1.0 -->
      <g transform="translate(20.878125 238.104807)scale(0.1 -0.1)">
       <use xlink:href="#DejaVuSans-49"/>
       <use x="63.623047" xlink:href="#DejaVuSans-46"/>
       <use x="95.410156" xlink:href="#DejaVuSans-48"/>
      </g>
     </g>
    </g>
    <g id="ytick_4">
     <g id="line2d_185">
      <g>
       <use style="stroke:#000000;stroke-width:0.8;" x="43.78125" xlink:href="#m6e13a26c03" y="200.865522"/>
      </g>
     </g>
     <g id="text_23">
      <!-- 1.5 -->
      <g transform="translate(20.878125 204.664741)scale(0.1 -0.1)">
       <use xlink:href="#DejaVuSans-49"/>
       <use x="63.623047" xlink:href="#DejaVuSans-46"/>
       <use x="95.410156" xlink:href="#DejaVuSans-53"/>
      </g>
     </g>
    </g>
    <g id="ytick_5">
     <g id="line2d_186">
      <g>
       <use style="stroke:#000000;stroke-width:0.8;" x="43.78125" xlink:href="#m6e13a26c03" y="167.425456"/>
      </g>
     </g>
     <g id="text_24">
      <!-- 2.0 -->
      <g transform="translate(20.878125 171.224675)scale(0.1 -0.1)">
       <use xlink:href="#DejaVuSans-50"/>
       <use x="63.623047" xlink:href="#DejaVuSans-46"/>
       <use x="95.410156" xlink:href="#DejaVuSans-48"/>
      </g>
     </g>
    </g>
    <g id="ytick_6">
     <g id="line2d_187">
      <g>
       <use style="stroke:#000000;stroke-width:0.8;" x="43.78125" xlink:href="#m6e13a26c03" y="133.98539"/>
      </g>
     </g>
     <g id="text_25">
      <!-- 2.5 -->
      <g transform="translate(20.878125 137.784609)scale(0.1 -0.1)">
       <use xlink:href="#DejaVuSans-50"/>
       <use x="63.623047" xlink:href="#DejaVuSans-46"/>
       <use x="95.410156" xlink:href="#DejaVuSans-53"/>
      </g>
     </g>
    </g>
    <g id="ytick_7">
     <g id="line2d_188">
      <g>
       <use style="stroke:#000000;stroke-width:0.8;" x="43.78125" xlink:href="#m6e13a26c03" y="100.545324"/>
      </g>
     </g>
     <g id="text_26">
      <!-- 3.0 -->
      <g transform="translate(20.878125 104.344542)scale(0.1 -0.1)">
       <use xlink:href="#DejaVuSans-51"/>
       <use x="63.623047" xlink:href="#DejaVuSans-46"/>
       <use x="95.410156" xlink:href="#DejaVuSans-48"/>
      </g>
     </g>
    </g>
    <g id="ytick_8">
     <g id="line2d_189">
      <g>
       <use style="stroke:#000000;stroke-width:0.8;" x="43.78125" xlink:href="#m6e13a26c03" y="67.105258"/>
      </g>
     </g>
     <g id="text_27">
      <!-- 3.5 -->
      <g transform="translate(20.878125 70.904476)scale(0.1 -0.1)">
       <use xlink:href="#DejaVuSans-51"/>
       <use x="63.623047" xlink:href="#DejaVuSans-46"/>
       <use x="95.410156" xlink:href="#DejaVuSans-53"/>
      </g>
     </g>
    </g>
    <g id="text_28">
     <!-- Backbone rmsd -->
     <defs>
      <path d="M 19.671875 34.8125 
L 19.671875 8.109375 
L 35.5 8.109375 
Q 43.453125 8.109375 47.28125 11.40625 
Q 51.125 14.703125 51.125 21.484375 
Q 51.125 28.328125 47.28125 31.5625 
Q 43.453125 34.8125 35.5 34.8125 
z
M 19.671875 64.796875 
L 19.671875 42.828125 
L 34.28125 42.828125 
Q 41.5 42.828125 45.03125 45.53125 
Q 48.578125 48.25 48.578125 53.8125 
Q 48.578125 59.328125 45.03125 62.0625 
Q 41.5 64.796875 34.28125 64.796875 
z
M 9.8125 72.90625 
L 35.015625 72.90625 
Q 46.296875 72.90625 52.390625 68.21875 
Q 58.5 63.53125 58.5 54.890625 
Q 58.5 48.1875 55.375 44.234375 
Q 52.25 40.28125 46.1875 39.3125 
Q 53.46875 37.75 57.5 32.78125 
Q 61.53125 27.828125 61.53125 20.40625 
Q 61.53125 10.640625 54.890625 5.3125 
Q 48.25 0 35.984375 0 
L 9.8125 0 
z
" id="DejaVuSans-66"/>
      <path d="M 34.28125 27.484375 
Q 23.390625 27.484375 19.1875 25 
Q 14.984375 22.515625 14.984375 16.5 
Q 14.984375 11.71875 18.140625 8.90625 
Q 21.296875 6.109375 26.703125 6.109375 
Q 34.1875 6.109375 38.703125 11.40625 
Q 43.21875 16.703125 43.21875 25.484375 
L 43.21875 27.484375 
z
M 52.203125 31.203125 
L 52.203125 0 
L 43.21875 0 
L 43.21875 8.296875 
Q 40.140625 3.328125 35.546875 0.953125 
Q 30.953125 -1.421875 24.3125 -1.421875 
Q 15.921875 -1.421875 10.953125 3.296875 
Q 6 8.015625 6 15.921875 
Q 6 25.140625 12.171875 29.828125 
Q 18.359375 34.515625 30.609375 34.515625 
L 43.21875 34.515625 
L 43.21875 35.40625 
Q 43.21875 41.609375 39.140625 45 
Q 35.0625 48.390625 27.6875 48.390625 
Q 23 48.390625 18.546875 47.265625 
Q 14.109375 46.140625 10.015625 43.890625 
L 10.015625 52.203125 
Q 14.9375 54.109375 19.578125 55.046875 
Q 24.21875 56 28.609375 56 
Q 40.484375 56 46.34375 49.84375 
Q 52.203125 43.703125 52.203125 31.203125 
z
" id="DejaVuSans-97"/>
      <path d="M 48.78125 52.59375 
L 48.78125 44.1875 
Q 44.96875 46.296875 41.140625 47.34375 
Q 37.3125 48.390625 33.40625 48.390625 
Q 24.65625 48.390625 19.8125 42.84375 
Q 14.984375 37.3125 14.984375 27.296875 
Q 14.984375 17.28125 19.8125 11.734375 
Q 24.65625 6.203125 33.40625 6.203125 
Q 37.3125 6.203125 41.140625 7.25 
Q 44.96875 8.296875 48.78125 10.40625 
L 48.78125 2.09375 
Q 45.015625 0.34375 40.984375 -0.53125 
Q 36.96875 -1.421875 32.421875 -1.421875 
Q 20.0625 -1.421875 12.78125 6.34375 
Q 5.515625 14.109375 5.515625 27.296875 
Q 5.515625 40.671875 12.859375 48.328125 
Q 20.21875 56 33.015625 56 
Q 37.15625 56 41.109375 55.140625 
Q 45.0625 54.296875 48.78125 52.59375 
z
" id="DejaVuSans-99"/>
      <path d="M 9.078125 75.984375 
L 18.109375 75.984375 
L 18.109375 31.109375 
L 44.921875 54.6875 
L 56.390625 54.6875 
L 27.390625 29.109375 
L 57.625 0 
L 45.90625 0 
L 18.109375 26.703125 
L 18.109375 0 
L 9.078125 0 
z
" id="DejaVuSans-107"/>
      <path d="M 30.609375 48.390625 
Q 23.390625 48.390625 19.1875 42.75 
Q 14.984375 37.109375 14.984375 27.296875 
Q 14.984375 17.484375 19.15625 11.84375 
Q 23.34375 6.203125 30.609375 6.203125 
Q 37.796875 6.203125 41.984375 11.859375 
Q 46.1875 17.53125 46.1875 27.296875 
Q 46.1875 37.015625 41.984375 42.703125 
Q 37.796875 48.390625 30.609375 48.390625 
z
M 30.609375 56 
Q 42.328125 56 49.015625 48.375 
Q 55.71875 40.765625 55.71875 27.296875 
Q 55.71875 13.875 49.015625 6.21875 
Q 42.328125 -1.421875 30.609375 -1.421875 
Q 18.84375 -1.421875 12.171875 6.21875 
Q 5.515625 13.875 5.515625 27.296875 
Q 5.515625 40.765625 12.171875 48.375 
Q 18.84375 56 30.609375 56 
z
" id="DejaVuSans-111"/>
      <path d="M 54.890625 33.015625 
L 54.890625 0 
L 45.90625 0 
L 45.90625 32.71875 
Q 45.90625 40.484375 42.875 44.328125 
Q 39.84375 48.1875 33.796875 48.1875 
Q 26.515625 48.1875 22.3125 43.546875 
Q 18.109375 38.921875 18.109375 30.90625 
L 18.109375 0 
L 9.078125 0 
L 9.078125 54.6875 
L 18.109375 54.6875 
L 18.109375 46.1875 
Q 21.34375 51.125 25.703125 53.5625 
Q 30.078125 56 35.796875 56 
Q 45.21875 56 50.046875 50.171875 
Q 54.890625 44.34375 54.890625 33.015625 
z
" id="DejaVuSans-110"/>
     </defs>
     <g transform="translate(14.798438 216.845428)rotate(-90)scale(0.1 -0.1)">
      <use xlink:href="#DejaVuSans-66"/>
      <use x="68.603516" xlink:href="#DejaVuSans-97"/>
      <use x="129.882812" xlink:href="#DejaVuSans-99"/>
      <use x="184.863281" xlink:href="#DejaVuSans-107"/>
      <use x="242.773438" xlink:href="#DejaVuSans-98"/>
      <use x="306.25" xlink:href="#DejaVuSans-111"/>
      <use x="367.431641" xlink:href="#DejaVuSans-110"/>
      <use x="430.810547" xlink:href="#DejaVuSans-101"/>
      <use x="492.333984" xlink:href="#DejaVuSans-32"/>
      <use x="524.121094" xlink:href="#DejaVuSans-114"/>
      <use x="565.21875" xlink:href="#DejaVuSans-109"/>
      <use x="662.630859" xlink:href="#DejaVuSans-115"/>
      <use x="714.730469" xlink:href="#DejaVuSans-100"/>
     </g>
    </g>
   </g>
   <g id="line2d_190">
    <path clip-path="url(#pf4797f62e5)" d="M 60.013977 56.97449 
L 61.993578 188.268126 
L 63.973179 251.52575 
L 65.95278 260.381999 
L 67.932381 274.793328 
L 69.911982 274.541595 
L 71.891583 269.497974 
L 73.871183 254.713458 
L 75.850784 267.532702 
L 77.830385 273.854852 
L 79.809986 264.44815 
L 81.789587 267.092731 
L 83.769188 254.619949 
L 85.748789 263.528679 
L 87.72839 261.377277 
L 89.707991 263.098698 
L 91.687591 269.729112 
L 93.667192 263.832457 
L 95.646793 259.53095 
L 97.626394 263.207568 
L 99.605995 269.361904 
L 101.585596 269.106203 
L 103.565197 277.785104 
L 105.544798 276.909553 
L 107.524399 272.843676 
L 109.503999 270.160995 
L 111.4836 257.038974 
L 115.442802 273.412461 
L 117.422403 266.54272 
L 119.402004 266.39028 
L 121.381605 275.367316 
L 123.361206 274.293457 
L 125.340807 272.509171 
L 127.320407 270.006614 
L 129.300008 270.845826 
L 131.279609 277.829108 
L 133.25921 275.011865 
L 135.238811 269.223856 
L 137.218412 260.605896 
L 139.198013 256.836639 
L 141.177614 258.19686 
L 143.157215 250.705575 
L 145.136815 248.422968 
L 147.116416 228.543638 
L 149.096017 246.081644 
L 151.075618 246.964168 
L 153.055219 254.203769 
L 155.03482 255.22187 
L 157.014421 252.145405 
L 158.994022 206.525881 
L 160.973623 236.674508 
L 162.953223 256.319095 
L 164.932824 258.814357 
L 166.912425 264.158847 
L 168.892026 278.436109 
L 170.871627 275.345329 
L 172.851228 269.284891 
L 174.830829 270.317839 
L 176.81043 277.60912 
L 178.79003 276.245905 
L 180.769631 273.18447 
L 182.749232 268.900475 
L 184.728833 226.800326 
L 186.708434 230.662795 
L 188.688035 211.151394 
L 190.667636 231.3609 
L 192.647237 227.108519 
L 194.626838 191.724483 
L 196.606438 194.162617 
L 198.586039 189.070017 
L 200.56564 185.033137 
L 202.545241 168.273753 
L 204.524842 184.14841 
L 206.504443 191.44377 
L 208.484044 234.692785 
L 210.463645 213.292734 
L 212.443246 252.482289 
L 214.422846 251.088611 
L 216.402447 217.917977 
L 218.382048 224.071636 
L 220.361649 256.144709 
L 222.34125 257.111646 
L 226.300452 243.054169 
L 228.280053 253.937013 
L 230.259654 257.743333 
L 232.239254 258.482283 
L 234.218855 258.171015 
L 236.198456 269.383527 
L 238.178057 266.91603 
L 240.157658 261.32577 
L 242.137259 264.343498 
L 244.11686 272.928102 
L 246.096461 269.50315 
L 248.076062 275.38637 
L 250.055662 275.1247 
L 252.035263 276.923666 
L 254.014864 270.819819 
L 255.994465 263.433871 
L 257.974066 251.715151 
L 259.953667 244.192091 
L 261.933268 236.208295 
L 263.912869 232.102739 
L 265.89247 230.798068 
L 267.87207 250.456502 
L 269.851671 257.132316 
L 271.831272 236.654548 
L 273.810873 244.380998 
L 277.770075 255.429069 
L 279.749676 265.744955 
L 281.729277 274.492803 
L 283.708877 274.944794 
L 285.688478 273.723164 
L 287.668079 267.597318 
L 289.64768 267.454571 
L 291.627281 264.197639 
L 293.606882 273.127547 
L 295.586483 251.189179 
L 297.566084 248.938173 
L 299.545685 258.17342 
L 301.525285 242.665655 
L 303.504886 219.924123 
L 305.484487 237.745204 
L 307.464088 260.862755 
L 309.443689 278.964628 
L 311.42329 282.215935 
L 313.402891 277.228177 
L 317.362093 276.208132 
L 319.341693 274.833724 
L 321.321294 265.071364 
L 323.300895 272.437032 
L 325.280496 276.532131 
L 327.260097 274.590603 
L 329.239698 275.47921 
L 331.219299 278.963801 
L 333.1989 276.16805 
L 335.178501 271.242383 
L 337.158101 275.785655 
L 339.137702 277.473132 
L 341.117303 274.7018 
L 343.096904 269.882918 
L 345.076505 269.667662 
L 347.056106 264.191686 
L 349.035707 249.578923 
L 351.015308 255.744361 
L 352.994909 250.430197 
L 354.974509 255.365343 
L 356.95411 252.576127 
L 358.933711 260.471658 
L 360.913312 255.538258 
L 362.892913 254.973692 
L 364.872514 244.742394 
L 366.852115 264.795364 
L 368.831716 269.831579 
L 370.811317 264.178828 
L 372.790917 263.770158 
L 374.770518 265.963333 
L 376.750119 265.030633 
L 378.72972 278.682728 
L 380.709321 271.846657 
L 382.688922 265.526796 
L 384.668523 202.62656 
L 384.668523 202.62656 
" style="fill:none;stroke:#377eb8;stroke-linecap:square;stroke-width:1.5;"/>
   </g>
   <g id="line2d_191">
    <path clip-path="url(#pf4797f62e5)" d="M 60.013977 158.598584 
L 61.993578 233.570248 
L 63.973179 275.081046 
L 65.95278 280.341765 
L 67.932381 280.394615 
L 69.911982 285.614602 
L 71.891583 283.612638 
L 73.871183 280.507174 
L 75.850784 276.635144 
L 77.830385 280.222263 
L 79.809986 263.488216 
L 81.789587 269.471676 
L 83.769188 247.953295 
L 85.748789 250.09536 
L 87.72839 270.130465 
L 89.707991 269.761438 
L 91.687591 273.1818 
L 93.667192 279.313979 
L 95.646793 279.76758 
L 97.626394 281.967038 
L 99.605995 279.986225 
L 101.585596 275.055236 
L 103.565197 274.79462 
L 105.544798 277.907169 
L 107.524399 275.551703 
L 109.503999 270.442123 
L 111.4836 270.951915 
L 113.463201 270.111149 
L 115.442802 275.481608 
L 117.422403 274.851818 
L 119.402004 277.887595 
L 121.381605 279.734728 
L 123.361206 276.233349 
L 125.340807 276.343172 
L 127.320407 275.517784 
L 129.300008 272.819616 
L 131.279609 277.319089 
L 133.25921 265.3202 
L 135.238811 267.355493 
L 137.218412 256.711405 
L 139.198013 248.2328 
L 141.177614 241.702785 
L 143.157215 237.196617 
L 145.136815 210.731938 
L 147.116416 176.295454 
L 149.096017 214.18154 
L 151.075618 230.20897 
L 153.055219 244.716996 
L 155.03482 249.656043 
L 157.014421 240.639639 
L 158.994022 202.795578 
L 160.973623 247.590548 
L 162.953223 241.953892 
L 164.932824 260.190428 
L 166.912425 264.947545 
L 168.892026 276.839959 
L 170.871627 278.921388 
L 172.851228 254.862503 
L 174.830829 233.245115 
L 176.81043 257.024659 
L 178.79003 260.046642 
L 180.769631 254.646052 
L 182.749232 253.955362 
L 184.728833 199.699252 
L 186.708434 234.052246 
L 188.688035 197.875881 
L 190.667636 232.976114 
L 192.647237 243.758862 
L 194.626838 235.013979 
L 196.606438 210.562246 
L 198.586039 168.689509 
L 200.56564 136.297206 
L 202.545241 142.507886 
L 204.524842 173.480727 
L 206.504443 197.281687 
L 208.484044 226.340415 
L 210.463645 219.002269 
L 212.443246 260.643735 
L 214.422846 243.071635 
L 216.402447 228.149607 
L 218.382048 181.408607 
L 220.361649 238.249255 
L 222.34125 247.779071 
L 224.320851 232.766793 
L 226.300452 224.283197 
L 228.280053 244.664376 
L 230.259654 244.130772 
L 232.239254 259.134334 
L 234.218855 265.462522 
L 236.198456 273.925286 
L 238.178057 270.763846 
L 240.157658 260.172496 
L 242.137259 259.76837 
L 244.11686 270.793247 
L 248.076062 255.594772 
L 250.055662 260.391831 
L 252.035263 261.936467 
L 254.014864 257.289932 
L 255.994465 226.910472 
L 257.974066 217.866769 
L 259.953667 224.938337 
L 261.933268 221.714662 
L 263.912869 243.725266 
L 265.89247 227.907436 
L 267.87207 223.771789 
L 269.851671 235.379592 
L 271.831272 248.823312 
L 273.810873 248.635271 
L 275.790474 262.235668 
L 277.770075 262.138619 
L 279.749676 256.931654 
L 281.729277 259.01609 
L 283.708877 264.881835 
L 285.688478 269.812344 
L 287.668079 266.389498 
L 289.64768 276.820879 
L 291.627281 274.790092 
L 293.606882 276.77443 
L 295.586483 259.206262 
L 297.566084 246.24413 
L 299.545685 251.695503 
L 301.525285 247.827316 
L 303.504886 246.07123 
L 305.484487 243.692299 
L 307.464088 265.649348 
L 309.443689 269.896365 
L 311.42329 273.376425 
L 313.402891 271.429209 
L 315.382492 263.498777 
L 317.362093 262.442659 
L 319.341693 263.735858 
L 321.321294 257.346136 
L 323.300895 272.174243 
L 325.280496 269.132874 
L 327.260097 269.537936 
L 329.239698 273.264068 
L 331.219299 279.990739 
L 333.1989 271.958629 
L 335.178501 269.7173 
L 337.158101 265.001892 
L 339.137702 263.325083 
L 341.117303 258.887732 
L 343.096904 261.346442 
L 345.076505 255.39973 
L 347.056106 262.883022 
L 349.035707 265.650715 
L 351.015308 259.998293 
L 352.994909 240.45395 
L 354.974509 264.658107 
L 356.95411 254.658559 
L 358.933711 255.278532 
L 360.913312 245.758822 
L 362.892913 238.740435 
L 364.872514 237.613023 
L 366.852115 265.325803 
L 368.831716 269.812599 
L 370.811317 261.233433 
L 372.790917 263.099193 
L 374.770518 268.408588 
L 376.750119 257.161709 
L 378.72972 276.101449 
L 380.709321 270.7874 
L 382.688922 268.303765 
L 384.668523 205.553295 
L 384.668523 205.553295 
" style="fill:none;stroke:#4daf4a;stroke-linecap:square;stroke-width:1.5;"/>
   </g>
   <g id="line2d_192">
    <path clip-path="url(#pf4797f62e5)" d="M 60.013977 91.822993 
L 61.993578 203.342966 
L 63.973179 257.953086 
L 65.95278 268.483214 
L 67.932381 277.186003 
L 69.911982 278.931385 
L 71.891583 270.267793 
L 73.871183 263.62991 
L 75.850784 272.327973 
L 77.830385 273.83039 
L 79.809986 262.624184 
L 81.789587 263.381481 
L 83.769188 250.109079 
L 85.748789 250.662872 
L 87.72839 256.806116 
L 89.707991 257.404799 
L 91.687591 264.963777 
L 93.667192 265.836251 
L 95.646793 266.13312 
L 97.626394 270.750666 
L 99.605995 274.413836 
L 101.585596 272.639162 
L 103.565197 277.073469 
L 105.544798 277.295174 
L 107.524399 274.069457 
L 109.503999 269.874985 
L 111.4836 261.930358 
L 113.463201 267.935674 
L 115.442802 274.753047 
L 117.422403 271.518542 
L 119.402004 272.597765 
L 121.381605 276.673188 
L 123.361206 274.648109 
L 125.340807 274.440762 
L 127.320407 271.559967 
L 129.300008 269.96571 
L 131.279609 275.452303 
L 133.25921 269.647148 
L 135.238811 268.990303 
L 137.218412 256.374023 
L 139.198013 251.489366 
L 141.177614 251.805137 
L 143.157215 244.490214 
L 145.136815 231.393866 
L 147.116416 206.094223 
L 149.096017 233.374868 
L 151.075618 239.302971 
L 153.055219 246.476285 
L 155.03482 241.149917 
L 157.014421 219.033999 
L 158.994022 182.459719 
L 160.973623 240.832949 
L 164.932824 260.421103 
L 166.912425 261.377163 
L 168.892026 273.783915 
L 170.871627 277.451271 
L 172.851228 263.522441 
L 174.830829 252.436214 
L 176.81043 268.22902 
L 178.79003 267.22065 
L 180.769631 261.840531 
L 182.749232 260.971925 
L 184.728833 215.138158 
L 186.708434 223.486349 
L 188.688035 199.970788 
L 190.667636 224.628621 
L 192.647237 228.752648 
L 194.626838 202.682295 
L 196.606438 201.105205 
L 198.586039 178.206856 
L 200.56564 166.134754 
L 202.545241 158.694464 
L 204.524842 173.03788 
L 206.504443 194.283555 
L 208.484044 231.410632 
L 210.463645 218.990921 
L 212.443246 254.958904 
L 214.422846 241.74289 
L 216.402447 216.470061 
L 218.382048 203.96024 
L 220.361649 244.253599 
L 222.34125 252.357779 
L 224.320851 242.992347 
L 226.300452 231.765423 
L 228.280053 245.779301 
L 230.259654 253.423884 
L 232.239254 255.233737 
L 234.218855 257.903583 
L 236.198456 271.795527 
L 238.178057 267.668095 
L 240.157658 260.975229 
L 242.137259 257.40539 
L 244.11686 269.736424 
L 246.096461 266.272176 
L 248.076062 266.170527 
L 250.055662 268.615592 
L 252.035263 269.639384 
L 254.014864 263.33045 
L 255.994465 241.809828 
L 257.974066 231.955106 
L 259.953667 235.284777 
L 261.933268 231.886998 
L 263.912869 235.464774 
L 265.89247 222.330833 
L 267.87207 226.337181 
L 269.851671 246.871333 
L 271.831272 243.404052 
L 273.810873 246.766676 
L 275.790474 253.917427 
L 277.770075 256.599488 
L 279.749676 261.163773 
L 281.729277 264.504771 
L 283.708877 269.7957 
L 285.688478 273.127857 
L 287.668079 268.878232 
L 289.64768 272.519765 
L 291.627281 268.162734 
L 293.606882 274.223579 
L 295.586483 254.374544 
L 297.566084 244.232647 
L 299.545685 251.964315 
L 301.525285 242.722386 
L 303.504886 223.571716 
L 305.484487 226.026356 
L 307.464088 263.752865 
L 309.443689 274.772879 
L 311.42329 278.618456 
L 313.402891 274.195401 
L 315.382492 270.218888 
L 317.362093 271.079609 
L 319.341693 269.481413 
L 321.321294 262.030692 
L 323.300895 273.378929 
L 325.280496 274.015275 
L 327.260097 270.645153 
L 329.239698 270.980884 
L 331.219299 278.48957 
L 333.1989 272.951994 
L 335.178501 268.465954 
L 337.158101 270.494642 
L 339.137702 270.978002 
L 341.117303 265.705688 
L 343.096904 259.291897 
L 345.076505 263.101086 
L 347.056106 250.58969 
L 349.035707 225.613627 
L 351.015308 225.743891 
L 352.994909 210.18147 
L 354.974509 240.267521 
L 356.95411 236.074814 
L 358.933711 254.916553 
L 360.913312 250.55757 
L 362.892913 247.956823 
L 364.872514 241.554694 
L 366.852115 265.717261 
L 368.831716 267.829755 
L 370.811317 259.460997 
L 372.790917 256.595446 
L 374.770518 266.967564 
L 376.750119 261.386149 
L 378.72972 274.99197 
L 380.709321 269.688178 
L 382.688922 263.718719 
L 384.668523 204.318592 
L 384.668523 204.318592 
" style="fill:none;stroke:#decbe4;stroke-linecap:square;stroke-width:1.5;"/>
   </g>
   <g id="line2d_193">
    <path clip-path="url(#pf4797f62e5)" d="M 60.013977 264.431613 
L 61.993578 286.141776 
L 63.973179 289.384204 
L 65.95278 295.590375 
L 67.932381 296.860025 
L 69.911982 296.551004 
L 71.891583 297.958128 
L 73.871183 293.64851 
L 75.850784 293.995071 
L 77.830385 296.187642 
L 79.809986 295.754657 
L 81.789587 296.389764 
L 83.769188 294.970119 
L 85.748789 292.882347 
L 87.72839 294.886773 
L 89.707991 294.507363 
L 91.687591 293.02741 
L 93.667192 295.074672 
L 95.646793 297.738961 
L 97.626394 297.465056 
L 99.605995 296.935614 
L 101.585596 298.89449 
L 103.565197 298.309731 
L 105.544798 295.742828 
L 107.524399 294.150744 
L 109.503999 291.703311 
L 111.4836 295.436134 
L 113.463201 296.012785 
L 115.442802 295.421225 
L 117.422403 292.795075 
L 119.402004 296.902118 
L 121.381605 295.504605 
L 123.361206 294.493886 
L 125.340807 295.658219 
L 127.320407 296.323286 
L 129.300008 295.597449 
L 131.279609 297.639943 
L 133.25921 294.94161 
L 135.238811 295.039859 
L 137.218412 293.023555 
L 139.198013 292.278869 
L 141.177614 294.995025 
L 143.157215 290.599939 
L 145.136815 286.807533 
L 147.116416 285.615915 
L 149.096017 292.648082 
L 151.075618 293.336699 
L 153.055219 291.825128 
L 155.03482 289.259062 
L 157.014421 289.476014 
L 158.994022 286.905559 
L 160.973623 291.54465 
L 162.953223 294.169135 
L 164.932824 294.26741 
L 166.912425 294.099506 
L 168.892026 296.51448 
L 170.871627 297.311784 
L 172.851228 291.234518 
L 174.830829 292.948441 
L 176.81043 295.236412 
L 178.79003 293.391866 
L 180.769631 288.334801 
L 182.749232 291.15811 
L 184.728833 289.784938 
L 186.708434 284.694886 
L 188.688035 286.579012 
L 190.667636 288.759748 
L 192.647237 286.482095 
L 194.626838 284.021076 
L 196.606438 289.829205 
L 198.586039 280.494354 
L 200.56564 278.979897 
L 204.524842 270.580535 
L 208.484044 288.407138 
L 210.463645 289.760434 
L 212.443246 289.786518 
L 214.422846 294.141951 
L 216.402447 292.347856 
L 218.382048 290.052668 
L 220.361649 291.563762 
L 222.34125 289.475242 
L 224.320851 292.27353 
L 226.300452 283.875664 
L 228.280053 291.365498 
L 230.259654 294.869672 
L 232.239254 294.767456 
L 234.218855 296.364861 
L 236.198456 296.356908 
L 238.178057 296.764527 
L 240.157658 296.115065 
L 242.137259 292.753174 
L 244.11686 295.70972 
L 246.096461 292.58429 
L 248.076062 297.030602 
L 250.055662 296.260899 
L 252.035263 292.397755 
L 254.014864 296.397429 
L 255.994465 290.586985 
L 257.974066 291.263724 
L 259.953667 281.548214 
L 261.933268 283.912472 
L 263.912869 286.555525 
L 265.89247 286.628572 
L 267.87207 287.235374 
L 269.851671 293.025705 
L 271.831272 289.825399 
L 273.810873 291.363407 
L 275.790474 293.344706 
L 277.770075 290.746995 
L 279.749676 295.332187 
L 281.729277 296.823209 
L 283.708877 294.663132 
L 287.668079 297.548085 
L 289.64768 296.650215 
L 291.627281 296.317752 
L 293.606882 296.803261 
L 295.586483 294.339443 
L 297.566084 292.270503 
L 299.545685 294.86428 
L 301.525285 292.818768 
L 303.504886 285.005035 
L 305.484487 290.074404 
L 307.464088 295.75986 
L 309.443689 295.99309 
L 311.42329 296.742493 
L 313.402891 295.071999 
L 315.382492 293.981657 
L 317.362093 295.605562 
L 319.341693 295.888518 
L 321.321294 291.241665 
L 323.300895 294.175113 
L 325.280496 294.996728 
L 327.260097 296.132048 
L 329.239698 295.793732 
L 331.219299 296.044982 
L 333.1989 294.773568 
L 335.178501 293.052516 
L 337.158101 298.129196 
L 339.137702 296.187496 
L 341.117303 296.333131 
L 343.096904 292.271539 
L 345.076505 294.412671 
L 347.056106 291.96588 
L 351.015308 283.074729 
L 352.994909 279.679967 
L 354.974509 289.111655 
L 356.95411 287.279185 
L 358.933711 294.132664 
L 360.913312 291.61232 
L 362.892913 288.79125 
L 364.872514 288.426421 
L 366.852115 291.826224 
L 368.831716 293.579018 
L 370.811317 298.349351 
L 372.790917 295.168857 
L 374.770518 297.555731 
L 376.750119 296.148511 
L 378.72972 295.914749 
L 380.709321 296.617207 
L 382.688922 297.121386 
L 384.668523 290.090103 
L 384.668523 290.090103 
" style="fill:none;stroke:#e41a1c;stroke-linecap:square;stroke-width:1.5;"/>
   </g>
   <g id="patch_3">
    <path d="M 43.78125 310.99049 
L 43.78125 44.87849 
" style="fill:none;stroke:#000000;stroke-linecap:square;stroke-linejoin:miter;stroke-width:0.8;"/>
   </g>
   <g id="patch_4">
    <path d="M 400.90125 310.99049 
L 400.90125 44.87849 
" style="fill:none;stroke:#000000;stroke-linecap:square;stroke-linejoin:miter;stroke-width:0.8;"/>
   </g>
   <g id="patch_5">
    <path d="M 43.78125 310.99049 
L 400.90125 310.99049 
" style="fill:none;stroke:#000000;stroke-linecap:square;stroke-linejoin:miter;stroke-width:0.8;"/>
   </g>
   <g id="patch_6">
    <path d="M 43.78125 44.87849 
L 400.90125 44.87849 
" style="fill:none;stroke:#000000;stroke-linecap:square;stroke-linejoin:miter;stroke-width:0.8;"/>
   </g>
   <g id="legend_1">
    <g id="patch_7">
     <path d="M 45.78125 39.55625 
L 398.90125 39.55625 
Q 400.90125 39.55625 400.90125 37.55625 
L 400.90125 9.2 
Q 400.90125 7.2 398.90125 7.2 
L 45.78125 7.2 
Q 43.78125 7.2 43.78125 9.2 
L 43.78125 37.55625 
Q 43.78125 39.55625 45.78125 39.55625 
z
" style="fill:#ffffff;opacity:0.8;stroke:#cccccc;stroke-linejoin:miter;"/>
    </g>
    <g id="line2d_194">
     <path d="M 47.78125 15.298437 
L 67.78125 15.298437 
" style="fill:none;stroke:#377eb8;stroke-linecap:square;stroke-width:1.5;"/>
    </g>
    <g id="line2d_195"/>
    <g id="text_29">
     <!-- Group M RMSD -->
     <defs>
      <path d="M 59.515625 10.40625 
L 59.515625 29.984375 
L 43.40625 29.984375 
L 43.40625 38.09375 
L 69.28125 38.09375 
L 69.28125 6.78125 
Q 63.578125 2.734375 56.6875 0.65625 
Q 49.8125 -1.421875 42 -1.421875 
Q 24.90625 -1.421875 15.25 8.5625 
Q 5.609375 18.5625 5.609375 36.375 
Q 5.609375 54.25 15.25 64.234375 
Q 24.90625 74.21875 42 74.21875 
Q 49.125 74.21875 55.546875 72.453125 
Q 61.96875 70.703125 67.390625 67.28125 
L 67.390625 56.78125 
Q 61.921875 61.421875 55.765625 63.765625 
Q 49.609375 66.109375 42.828125 66.109375 
Q 29.4375 66.109375 22.71875 58.640625 
Q 16.015625 51.171875 16.015625 36.375 
Q 16.015625 21.625 22.71875 14.15625 
Q 29.4375 6.6875 42.828125 6.6875 
Q 48.046875 6.6875 52.140625 7.59375 
Q 56.25 8.5 59.515625 10.40625 
z
" id="DejaVuSans-71"/>
      <path d="M 18.109375 8.203125 
L 18.109375 -20.796875 
L 9.078125 -20.796875 
L 9.078125 54.6875 
L 18.109375 54.6875 
L 18.109375 46.390625 
Q 20.953125 51.265625 25.265625 53.625 
Q 29.59375 56 35.59375 56 
Q 45.5625 56 51.78125 48.09375 
Q 58.015625 40.1875 58.015625 27.296875 
Q 58.015625 14.40625 51.78125 6.484375 
Q 45.5625 -1.421875 35.59375 -1.421875 
Q 29.59375 -1.421875 25.265625 0.953125 
Q 20.953125 3.328125 18.109375 8.203125 
z
M 48.6875 27.296875 
Q 48.6875 37.203125 44.609375 42.84375 
Q 40.53125 48.484375 33.40625 48.484375 
Q 26.265625 48.484375 22.1875 42.84375 
Q 18.109375 37.203125 18.109375 27.296875 
Q 18.109375 17.390625 22.1875 11.75 
Q 26.265625 6.109375 33.40625 6.109375 
Q 40.53125 6.109375 44.609375 11.75 
Q 48.6875 17.390625 48.6875 27.296875 
z
" id="DejaVuSans-112"/>
      <path d="M 9.8125 72.90625 
L 24.515625 72.90625 
L 43.109375 23.296875 
L 61.8125 72.90625 
L 76.515625 72.90625 
L 76.515625 0 
L 66.890625 0 
L 66.890625 64.015625 
L 48.09375 14.015625 
L 38.1875 14.015625 
L 19.390625 64.015625 
L 19.390625 0 
L 9.8125 0 
z
" id="DejaVuSans-77"/>
      <path d="M 53.515625 70.515625 
L 53.515625 60.890625 
Q 47.90625 63.578125 42.921875 64.890625 
Q 37.9375 66.21875 33.296875 66.21875 
Q 25.25 66.21875 20.875 63.09375 
Q 16.5 59.96875 16.5 54.203125 
Q 16.5 49.359375 19.40625 46.890625 
Q 22.3125 44.4375 30.421875 42.921875 
L 36.375 41.703125 
Q 47.40625 39.59375 52.65625 34.296875 
Q 57.90625 29 57.90625 20.125 
Q 57.90625 9.515625 50.796875 4.046875 
Q 43.703125 -1.421875 29.984375 -1.421875 
Q 24.8125 -1.421875 18.96875 -0.25 
Q 13.140625 0.921875 6.890625 3.21875 
L 6.890625 13.375 
Q 12.890625 10.015625 18.65625 8.296875 
Q 24.421875 6.59375 29.984375 6.59375 
Q 38.421875 6.59375 43.015625 9.90625 
Q 47.609375 13.234375 47.609375 19.390625 
Q 47.609375 24.75 44.3125 27.78125 
Q 41.015625 30.8125 33.5 32.328125 
L 27.484375 33.5 
Q 16.453125 35.6875 11.515625 40.375 
Q 6.59375 45.0625 6.59375 53.421875 
Q 6.59375 63.09375 13.40625 68.65625 
Q 20.21875 74.21875 32.171875 74.21875 
Q 37.3125 74.21875 42.625 73.28125 
Q 47.953125 72.359375 53.515625 70.515625 
z
" id="DejaVuSans-83"/>
      <path d="M 19.671875 64.796875 
L 19.671875 8.109375 
L 31.59375 8.109375 
Q 46.6875 8.109375 53.6875 14.9375 
Q 60.6875 21.78125 60.6875 36.53125 
Q 60.6875 51.171875 53.6875 57.984375 
Q 46.6875 64.796875 31.59375 64.796875 
z
M 9.8125 72.90625 
L 30.078125 72.90625 
Q 51.265625 72.90625 61.171875 64.09375 
Q 71.09375 55.28125 71.09375 36.53125 
Q 71.09375 17.671875 61.125 8.828125 
Q 51.171875 0 30.078125 0 
L 9.8125 0 
z
" id="DejaVuSans-68"/>
     </defs>
     <g transform="translate(75.78125 18.798437)scale(0.1 -0.1)">
      <use xlink:href="#DejaVuSans-71"/>
      <use x="77.490234" xlink:href="#DejaVuSans-114"/>
      <use x="118.572266" xlink:href="#DejaVuSans-111"/>
      <use x="179.753906" xlink:href="#DejaVuSans-117"/>
      <use x="243.132812" xlink:href="#DejaVuSans-112"/>
      <use x="306.609375" xlink:href="#DejaVuSans-32"/>
      <use x="338.396484" xlink:href="#DejaVuSans-77"/>
      <use x="424.675781" xlink:href="#DejaVuSans-32"/>
      <use x="456.462891" xlink:href="#DejaVuSans-82"/>
      <use x="525.945312" xlink:href="#DejaVuSans-77"/>
      <use x="612.224609" xlink:href="#DejaVuSans-83"/>
      <use x="675.701172" xlink:href="#DejaVuSans-68"/>
     </g>
    </g>
    <g id="line2d_196">
     <path d="M 47.78125 29.976562 
L 67.78125 29.976562 
" style="fill:none;stroke:#4daf4a;stroke-linecap:square;stroke-width:1.5;"/>
    </g>
    <g id="line2d_197"/>
    <g id="text_30">
     <!-- Group N RMSD -->
     <g transform="translate(75.78125 33.476562)scale(0.1 -0.1)">
      <use xlink:href="#DejaVuSans-71"/>
      <use x="77.490234" xlink:href="#DejaVuSans-114"/>
      <use x="118.572266" xlink:href="#DejaVuSans-111"/>
      <use x="179.753906" xlink:href="#DejaVuSans-117"/>
      <use x="243.132812" xlink:href="#DejaVuSans-112"/>
      <use x="306.609375" xlink:href="#DejaVuSans-32"/>
      <use x="338.396484" xlink:href="#DejaVuSans-78"/>
      <use x="413.201172" xlink:href="#DejaVuSans-32"/>
      <use x="444.988281" xlink:href="#DejaVuSans-82"/>
      <use x="514.470703" xlink:href="#DejaVuSans-77"/>
      <use x="600.75" xlink:href="#DejaVuSans-83"/>
      <use x="664.226562" xlink:href="#DejaVuSans-68"/>
     </g>
    </g>
    <g id="line2d_198">
     <path d="M 254.693438 15.298437 
L 274.693438 15.298437 
" style="fill:none;stroke:#decbe4;stroke-linecap:square;stroke-width:1.5;"/>
    </g>
    <g id="line2d_199"/>
    <g id="text_31">
     <!-- Between groups RMSD -->
     <defs>
      <path d="M 18.3125 70.21875 
L 18.3125 54.6875 
L 36.8125 54.6875 
L 36.8125 47.703125 
L 18.3125 47.703125 
L 18.3125 18.015625 
Q 18.3125 11.328125 20.140625 9.421875 
Q 21.96875 7.515625 27.59375 7.515625 
L 36.8125 7.515625 
L 36.8125 0 
L 27.59375 0 
Q 17.1875 0 13.234375 3.875 
Q 9.28125 7.765625 9.28125 18.015625 
L 9.28125 47.703125 
L 2.6875 47.703125 
L 2.6875 54.6875 
L 9.28125 54.6875 
L 9.28125 70.21875 
z
" id="DejaVuSans-116"/>
      <path d="M 4.203125 54.6875 
L 13.1875 54.6875 
L 24.421875 12.015625 
L 35.59375 54.6875 
L 46.1875 54.6875 
L 57.421875 12.015625 
L 68.609375 54.6875 
L 77.59375 54.6875 
L 63.28125 0 
L 52.6875 0 
L 40.921875 44.828125 
L 29.109375 0 
L 18.5 0 
z
" id="DejaVuSans-119"/>
      <path d="M 45.40625 27.984375 
Q 45.40625 37.75 41.375 43.109375 
Q 37.359375 48.484375 30.078125 48.484375 
Q 22.859375 48.484375 18.828125 43.109375 
Q 14.796875 37.75 14.796875 27.984375 
Q 14.796875 18.265625 18.828125 12.890625 
Q 22.859375 7.515625 30.078125 7.515625 
Q 37.359375 7.515625 41.375 12.890625 
Q 45.40625 18.265625 45.40625 27.984375 
z
M 54.390625 6.78125 
Q 54.390625 -7.171875 48.1875 -13.984375 
Q 42 -20.796875 29.203125 -20.796875 
Q 24.46875 -20.796875 20.265625 -20.09375 
Q 16.0625 -19.390625 12.109375 -17.921875 
L 12.109375 -9.1875 
Q 16.0625 -11.328125 19.921875 -12.34375 
Q 23.78125 -13.375 27.78125 -13.375 
Q 36.625 -13.375 41.015625 -8.765625 
Q 45.40625 -4.15625 45.40625 5.171875 
L 45.40625 9.625 
Q 42.625 4.78125 38.28125 2.390625 
Q 33.9375 0 27.875 0 
Q 17.828125 0 11.671875 7.65625 
Q 5.515625 15.328125 5.515625 27.984375 
Q 5.515625 40.671875 11.671875 48.328125 
Q 17.828125 56 27.875 56 
Q 33.9375 56 38.28125 53.609375 
Q 42.625 51.21875 45.40625 46.390625 
L 45.40625 54.6875 
L 54.390625 54.6875 
z
" id="DejaVuSans-103"/>
     </defs>
     <g transform="translate(282.693438 18.798437)scale(0.1 -0.1)">
      <use xlink:href="#DejaVuSans-66"/>
      <use x="68.603516" xlink:href="#DejaVuSans-101"/>
      <use x="130.126953" xlink:href="#DejaVuSans-116"/>
      <use x="169.335938" xlink:href="#DejaVuSans-119"/>
      <use x="251.123047" xlink:href="#DejaVuSans-101"/>
      <use x="312.646484" xlink:href="#DejaVuSans-101"/>
      <use x="374.169922" xlink:href="#DejaVuSans-110"/>
      <use x="437.548828" xlink:href="#DejaVuSans-32"/>
      <use x="469.335938" xlink:href="#DejaVuSans-103"/>
      <use x="532.8125" xlink:href="#DejaVuSans-114"/>
      <use x="573.894531" xlink:href="#DejaVuSans-111"/>
      <use x="635.076172" xlink:href="#DejaVuSans-117"/>
      <use x="698.455078" xlink:href="#DejaVuSans-112"/>
      <use x="761.931641" xlink:href="#DejaVuSans-115"/>
      <use x="814.03125" xlink:href="#DejaVuSans-32"/>
      <use x="845.818359" xlink:href="#DejaVuSans-82"/>
      <use x="915.300781" xlink:href="#DejaVuSans-77"/>
      <use x="1001.580078" xlink:href="#DejaVuSans-83"/>
      <use x="1065.056641" xlink:href="#DejaVuSans-68"/>
     </g>
    </g>
    <g id="line2d_200">
     <path d="M 254.693438 29.976562 
L 274.693438 29.976562 
" style="fill:none;stroke:#e41a1c;stroke-linecap:square;stroke-width:1.5;"/>
    </g>
    <g id="line2d_201"/>
    <g id="text_32">
     <!-- Closest Approach -->
     <defs>
      <path d="M 64.40625 67.28125 
L 64.40625 56.890625 
Q 59.421875 61.53125 53.78125 63.8125 
Q 48.140625 66.109375 41.796875 66.109375 
Q 29.296875 66.109375 22.65625 58.46875 
Q 16.015625 50.828125 16.015625 36.375 
Q 16.015625 21.96875 22.65625 14.328125 
Q 29.296875 6.6875 41.796875 6.6875 
Q 48.140625 6.6875 53.78125 8.984375 
Q 59.421875 11.28125 64.40625 15.921875 
L 64.40625 5.609375 
Q 59.234375 2.09375 53.4375 0.328125 
Q 47.65625 -1.421875 41.21875 -1.421875 
Q 24.65625 -1.421875 15.125 8.703125 
Q 5.609375 18.84375 5.609375 36.375 
Q 5.609375 53.953125 15.125 64.078125 
Q 24.65625 74.21875 41.21875 74.21875 
Q 47.75 74.21875 53.53125 72.484375 
Q 59.328125 70.75 64.40625 67.28125 
z
" id="DejaVuSans-67"/>
      <path d="M 9.421875 75.984375 
L 18.40625 75.984375 
L 18.40625 0 
L 9.421875 0 
z
" id="DejaVuSans-108"/>
      <path d="M 34.1875 63.1875 
L 20.796875 26.90625 
L 47.609375 26.90625 
z
M 28.609375 72.90625 
L 39.796875 72.90625 
L 67.578125 0 
L 57.328125 0 
L 50.6875 18.703125 
L 17.828125 18.703125 
L 11.1875 0 
L 0.78125 0 
z
" id="DejaVuSans-65"/>
      <path d="M 54.890625 33.015625 
L 54.890625 0 
L 45.90625 0 
L 45.90625 32.71875 
Q 45.90625 40.484375 42.875 44.328125 
Q 39.84375 48.1875 33.796875 48.1875 
Q 26.515625 48.1875 22.3125 43.546875 
Q 18.109375 38.921875 18.109375 30.90625 
L 18.109375 0 
L 9.078125 0 
L 9.078125 75.984375 
L 18.109375 75.984375 
L 18.109375 46.1875 
Q 21.34375 51.125 25.703125 53.5625 
Q 30.078125 56 35.796875 56 
Q 45.21875 56 50.046875 50.171875 
Q 54.890625 44.34375 54.890625 33.015625 
z
" id="DejaVuSans-104"/>
     </defs>
     <g transform="translate(282.693438 33.476562)scale(0.1 -0.1)">
      <use xlink:href="#DejaVuSans-67"/>
      <use x="69.824219" xlink:href="#DejaVuSans-108"/>
      <use x="97.607422" xlink:href="#DejaVuSans-111"/>
      <use x="158.789062" xlink:href="#DejaVuSans-115"/>
      <use x="210.888672" xlink:href="#DejaVuSans-101"/>
      <use x="272.412109" xlink:href="#DejaVuSans-115"/>
      <use x="324.511719" xlink:href="#DejaVuSans-116"/>
      <use x="363.720703" xlink:href="#DejaVuSans-32"/>
      <use x="395.507812" xlink:href="#DejaVuSans-65"/>
      <use x="463.916016" xlink:href="#DejaVuSans-112"/>
      <use x="527.392578" xlink:href="#DejaVuSans-112"/>
      <use x="590.869141" xlink:href="#DejaVuSans-114"/>
      <use x="631.951172" xlink:href="#DejaVuSans-111"/>
      <use x="693.132812" xlink:href="#DejaVuSans-97"/>
      <use x="754.412109" xlink:href="#DejaVuSans-99"/>
      <use x="809.392578" xlink:href="#DejaVuSans-104"/>
     </g>
    </g>
   </g>
  </g>
 </g>
 <defs>
  <clipPath id="pf4797f62e5">
   <rect height="266.112" width="357.12" x="43.78125" y="44.87849"/>
  </clipPath>
 </defs>
</svg>
