<?xml version="1.0" encoding="utf-8" standalone="no"?>
<!DOCTYPE svg PUBLIC "-//W3C//DTD SVG 1.1//EN"
  "http://www.w3.org/Graphics/SVG/1.1/DTD/svg11.dtd">
<!-- Created with matplotlib (https://matplotlib.org/) -->
<svg height="348.54674pt" version="1.1" viewBox="0 0 403.89589 348.54674" width="403.89589pt" xmlns="http://www.w3.org/2000/svg" xmlns:xlink="http://www.w3.org/1999/xlink">
 <defs>
  <style type="text/css">
*{stroke-linecap:butt;stroke-linejoin:round;}
  </style>
 </defs>
 <g id="figure_1">
  <g id="patch_1">
   <path d="M 0 348.54674 
L 403.89589 348.54674 
L 403.89589 0 
L 0 0 
z
" style="fill:#ffffff;"/>
  </g>
  <g id="axes_1">
   <g id="patch_2">
    <path d="M 34.240625 310.99049 
L 391.360625 310.99049 
L 391.360625 44.87849 
L 34.240625 44.87849 
z
" style="fill:#ffffff;"/>
   </g>
   <g id="matplotlib.axis_1">
    <g id="xtick_1">
     <g id="line2d_1">
      <defs>
       <path d="M 0 0 
L 0 3.5 
" id="mfa1ec604da" style="stroke:#000000;stroke-width:0.8;"/>
      </defs>
      <g>
       <use style="stroke:#000000;stroke-width:0.8;" x="46.465271" xlink:href="#mfa1ec604da" y="310.99049"/>
      </g>
     </g>
     <g id="text_1">
      <!-- 0 -->
      <defs>
       <path d="M 31.78125 66.40625 
Q 24.171875 66.40625 20.328125 58.90625 
Q 16.5 51.421875 16.5 36.375 
Q 16.5 21.390625 20.328125 13.890625 
Q 24.171875 6.390625 31.78125 6.390625 
Q 39.453125 6.390625 43.28125 13.890625 
Q 47.125 21.390625 47.125 36.375 
Q 47.125 51.421875 43.28125 58.90625 
Q 39.453125 66.40625 31.78125 66.40625 
z
M 31.78125 74.21875 
Q 44.046875 74.21875 50.515625 64.515625 
Q 56.984375 54.828125 56.984375 36.375 
Q 56.984375 17.96875 50.515625 8.265625 
Q 44.046875 -1.421875 31.78125 -1.421875 
Q 19.53125 -1.421875 13.0625 8.265625 
Q 6.59375 17.96875 6.59375 36.375 
Q 6.59375 54.828125 13.0625 64.515625 
Q 19.53125 74.21875 31.78125 74.21875 
z
" id="DejaVuSans-48"/>
      </defs>
      <g transform="translate(43.284021 325.588928)scale(0.1 -0.1)">
       <use xlink:href="#DejaVuSans-48"/>
      </g>
     </g>
    </g>
    <g id="xtick_2">
     <g id="line2d_2">
      <g>
       <use style="stroke:#000000;stroke-width:0.8;" x="66.505676" xlink:href="#mfa1ec604da" y="310.99049"/>
      </g>
     </g>
     <g id="text_2">
      <!-- 10 -->
      <defs>
       <path d="M 12.40625 8.296875 
L 28.515625 8.296875 
L 28.515625 63.921875 
L 10.984375 60.40625 
L 10.984375 69.390625 
L 28.421875 72.90625 
L 38.28125 72.90625 
L 38.28125 8.296875 
L 54.390625 8.296875 
L 54.390625 0 
L 12.40625 0 
z
" id="DejaVuSans-49"/>
      </defs>
      <g transform="translate(60.143176 325.588928)scale(0.1 -0.1)">
       <use xlink:href="#DejaVuSans-49"/>
       <use x="63.623047" xlink:href="#DejaVuSans-48"/>
      </g>
     </g>
    </g>
    <g id="xtick_3">
     <g id="line2d_3">
      <g>
       <use style="stroke:#000000;stroke-width:0.8;" x="86.54608" xlink:href="#mfa1ec604da" y="310.99049"/>
      </g>
     </g>
     <g id="text_3">
      <!-- 20 -->
      <defs>
       <path d="M 19.1875 8.296875 
L 53.609375 8.296875 
L 53.609375 0 
L 7.328125 0 
L 7.328125 8.296875 
Q 12.9375 14.109375 22.625 23.890625 
Q 32.328125 33.6875 34.8125 36.53125 
Q 39.546875 41.84375 41.421875 45.53125 
Q 43.3125 49.21875 43.3125 52.78125 
Q 43.3125 58.59375 39.234375 62.25 
Q 35.15625 65.921875 28.609375 65.921875 
Q 23.96875 65.921875 18.8125 64.3125 
Q 13.671875 62.703125 7.8125 59.421875 
L 7.8125 69.390625 
Q 13.765625 71.78125 18.9375 73 
Q 24.125 74.21875 28.421875 74.21875 
Q 39.75 74.21875 46.484375 68.546875 
Q 53.21875 62.890625 53.21875 53.421875 
Q 53.21875 48.921875 51.53125 44.890625 
Q 49.859375 40.875 45.40625 35.40625 
Q 44.1875 33.984375 37.640625 27.21875 
Q 31.109375 20.453125 19.1875 8.296875 
z
" id="DejaVuSans-50"/>
      </defs>
      <g transform="translate(80.18358 325.588928)scale(0.1 -0.1)">
       <use xlink:href="#DejaVuSans-50"/>
       <use x="63.623047" xlink:href="#DejaVuSans-48"/>
      </g>
     </g>
    </g>
    <g id="xtick_4">
     <g id="line2d_4">
      <g>
       <use style="stroke:#000000;stroke-width:0.8;" x="106.586484" xlink:href="#mfa1ec604da" y="310.99049"/>
      </g>
     </g>
     <g id="text_4">
      <!-- 30 -->
      <defs>
       <path d="M 40.578125 39.3125 
Q 47.65625 37.796875 51.625 33 
Q 55.609375 28.21875 55.609375 21.1875 
Q 55.609375 10.40625 48.1875 4.484375 
Q 40.765625 -1.421875 27.09375 -1.421875 
Q 22.515625 -1.421875 17.65625 -0.515625 
Q 12.796875 0.390625 7.625 2.203125 
L 7.625 11.71875 
Q 11.71875 9.328125 16.59375 8.109375 
Q 21.484375 6.890625 26.8125 6.890625 
Q 36.078125 6.890625 40.9375 10.546875 
Q 45.796875 14.203125 45.796875 21.1875 
Q 45.796875 27.640625 41.28125 31.265625 
Q 36.765625 34.90625 28.71875 34.90625 
L 20.21875 34.90625 
L 20.21875 43.015625 
L 29.109375 43.015625 
Q 36.375 43.015625 40.234375 45.921875 
Q 44.09375 48.828125 44.09375 54.296875 
Q 44.09375 59.90625 40.109375 62.90625 
Q 36.140625 65.921875 28.71875 65.921875 
Q 24.65625 65.921875 20.015625 65.03125 
Q 15.375 64.15625 9.8125 62.3125 
L 9.8125 71.09375 
Q 15.4375 72.65625 20.34375 73.4375 
Q 25.25 74.21875 29.59375 74.21875 
Q 40.828125 74.21875 47.359375 69.109375 
Q 53.90625 64.015625 53.90625 55.328125 
Q 53.90625 49.265625 50.4375 45.09375 
Q 46.96875 40.921875 40.578125 39.3125 
z
" id="DejaVuSans-51"/>
      </defs>
      <g transform="translate(100.223984 325.588928)scale(0.1 -0.1)">
       <use xlink:href="#DejaVuSans-51"/>
       <use x="63.623047" xlink:href="#DejaVuSans-48"/>
      </g>
     </g>
    </g>
    <g id="xtick_5">
     <g id="line2d_5">
      <g>
       <use style="stroke:#000000;stroke-width:0.8;" x="126.626888" xlink:href="#mfa1ec604da" y="310.99049"/>
      </g>
     </g>
     <g id="text_5">
      <!-- 40 -->
      <defs>
       <path d="M 37.796875 64.3125 
L 12.890625 25.390625 
L 37.796875 25.390625 
z
M 35.203125 72.90625 
L 47.609375 72.90625 
L 47.609375 25.390625 
L 58.015625 25.390625 
L 58.015625 17.1875 
L 47.609375 17.1875 
L 47.609375 0 
L 37.796875 0 
L 37.796875 17.1875 
L 4.890625 17.1875 
L 4.890625 26.703125 
z
" id="DejaVuSans-52"/>
      </defs>
      <g transform="translate(120.264388 325.588928)scale(0.1 -0.1)">
       <use xlink:href="#DejaVuSans-52"/>
       <use x="63.623047" xlink:href="#DejaVuSans-48"/>
      </g>
     </g>
    </g>
    <g id="xtick_6">
     <g id="line2d_6">
      <g>
       <use style="stroke:#000000;stroke-width:0.8;" x="146.667292" xlink:href="#mfa1ec604da" y="310.99049"/>
      </g>
     </g>
     <g id="text_6">
      <!-- 50 -->
      <defs>
       <path d="M 10.796875 72.90625 
L 49.515625 72.90625 
L 49.515625 64.59375 
L 19.828125 64.59375 
L 19.828125 46.734375 
Q 21.96875 47.46875 24.109375 47.828125 
Q 26.265625 48.1875 28.421875 48.1875 
Q 40.625 48.1875 47.75 41.5 
Q 54.890625 34.8125 54.890625 23.390625 
Q 54.890625 11.625 47.5625 5.09375 
Q 40.234375 -1.421875 26.90625 -1.421875 
Q 22.3125 -1.421875 17.546875 -0.640625 
Q 12.796875 0.140625 7.71875 1.703125 
L 7.71875 11.625 
Q 12.109375 9.234375 16.796875 8.0625 
Q 21.484375 6.890625 26.703125 6.890625 
Q 35.15625 6.890625 40.078125 11.328125 
Q 45.015625 15.765625 45.015625 23.390625 
Q 45.015625 31 40.078125 35.4375 
Q 35.15625 39.890625 26.703125 39.890625 
Q 22.75 39.890625 18.8125 39.015625 
Q 14.890625 38.140625 10.796875 36.28125 
z
" id="DejaVuSans-53"/>
      </defs>
      <g transform="translate(140.304792 325.588928)scale(0.1 -0.1)">
       <use xlink:href="#DejaVuSans-53"/>
       <use x="63.623047" xlink:href="#DejaVuSans-48"/>
      </g>
     </g>
    </g>
    <g id="xtick_7">
     <g id="line2d_7">
      <g>
       <use style="stroke:#000000;stroke-width:0.8;" x="166.707696" xlink:href="#mfa1ec604da" y="310.99049"/>
      </g>
     </g>
     <g id="text_7">
      <!-- 60 -->
      <defs>
       <path d="M 33.015625 40.375 
Q 26.375 40.375 22.484375 35.828125 
Q 18.609375 31.296875 18.609375 23.390625 
Q 18.609375 15.53125 22.484375 10.953125 
Q 26.375 6.390625 33.015625 6.390625 
Q 39.65625 6.390625 43.53125 10.953125 
Q 47.40625 15.53125 47.40625 23.390625 
Q 47.40625 31.296875 43.53125 35.828125 
Q 39.65625 40.375 33.015625 40.375 
z
M 52.59375 71.296875 
L 52.59375 62.3125 
Q 48.875 64.0625 45.09375 64.984375 
Q 41.3125 65.921875 37.59375 65.921875 
Q 27.828125 65.921875 22.671875 59.328125 
Q 17.53125 52.734375 16.796875 39.40625 
Q 19.671875 43.65625 24.015625 45.921875 
Q 28.375 48.1875 33.59375 48.1875 
Q 44.578125 48.1875 50.953125 41.515625 
Q 57.328125 34.859375 57.328125 23.390625 
Q 57.328125 12.15625 50.6875 5.359375 
Q 44.046875 -1.421875 33.015625 -1.421875 
Q 20.359375 -1.421875 13.671875 8.265625 
Q 6.984375 17.96875 6.984375 36.375 
Q 6.984375 53.65625 15.1875 63.9375 
Q 23.390625 74.21875 37.203125 74.21875 
Q 40.921875 74.21875 44.703125 73.484375 
Q 48.484375 72.75 52.59375 71.296875 
z
" id="DejaVuSans-54"/>
      </defs>
      <g transform="translate(160.345196 325.588928)scale(0.1 -0.1)">
       <use xlink:href="#DejaVuSans-54"/>
       <use x="63.623047" xlink:href="#DejaVuSans-48"/>
      </g>
     </g>
    </g>
    <g id="xtick_8">
     <g id="line2d_8">
      <g>
       <use style="stroke:#000000;stroke-width:0.8;" x="186.7481" xlink:href="#mfa1ec604da" y="310.99049"/>
      </g>
     </g>
     <g id="text_8">
      <!-- 70 -->
      <defs>
       <path d="M 8.203125 72.90625 
L 55.078125 72.90625 
L 55.078125 68.703125 
L 28.609375 0 
L 18.3125 0 
L 43.21875 64.59375 
L 8.203125 64.59375 
z
" id="DejaVuSans-55"/>
      </defs>
      <g transform="translate(180.3856 325.588928)scale(0.1 -0.1)">
       <use xlink:href="#DejaVuSans-55"/>
       <use x="63.623047" xlink:href="#DejaVuSans-48"/>
      </g>
     </g>
    </g>
    <g id="xtick_9">
     <g id="line2d_9">
      <g>
       <use style="stroke:#000000;stroke-width:0.8;" x="206.788504" xlink:href="#mfa1ec604da" y="310.99049"/>
      </g>
     </g>
     <g id="text_9">
      <!-- 80 -->
      <defs>
       <path d="M 31.78125 34.625 
Q 24.75 34.625 20.71875 30.859375 
Q 16.703125 27.09375 16.703125 20.515625 
Q 16.703125 13.921875 20.71875 10.15625 
Q 24.75 6.390625 31.78125 6.390625 
Q 38.8125 6.390625 42.859375 10.171875 
Q 46.921875 13.96875 46.921875 20.515625 
Q 46.921875 27.09375 42.890625 30.859375 
Q 38.875 34.625 31.78125 34.625 
z
M 21.921875 38.8125 
Q 15.578125 40.375 12.03125 44.71875 
Q 8.5 49.078125 8.5 55.328125 
Q 8.5 64.0625 14.71875 69.140625 
Q 20.953125 74.21875 31.78125 74.21875 
Q 42.671875 74.21875 48.875 69.140625 
Q 55.078125 64.0625 55.078125 55.328125 
Q 55.078125 49.078125 51.53125 44.71875 
Q 48 40.375 41.703125 38.8125 
Q 48.828125 37.15625 52.796875 32.3125 
Q 56.78125 27.484375 56.78125 20.515625 
Q 56.78125 9.90625 50.3125 4.234375 
Q 43.84375 -1.421875 31.78125 -1.421875 
Q 19.734375 -1.421875 13.25 4.234375 
Q 6.78125 9.90625 6.78125 20.515625 
Q 6.78125 27.484375 10.78125 32.3125 
Q 14.796875 37.15625 21.921875 38.8125 
z
M 18.3125 54.390625 
Q 18.3125 48.734375 21.84375 45.5625 
Q 25.390625 42.390625 31.78125 42.390625 
Q 38.140625 42.390625 41.71875 45.5625 
Q 45.3125 48.734375 45.3125 54.390625 
Q 45.3125 60.0625 41.71875 63.234375 
Q 38.140625 66.40625 31.78125 66.40625 
Q 25.390625 66.40625 21.84375 63.234375 
Q 18.3125 60.0625 18.3125 54.390625 
z
" id="DejaVuSans-56"/>
      </defs>
      <g transform="translate(200.426004 325.588928)scale(0.1 -0.1)">
       <use xlink:href="#DejaVuSans-56"/>
       <use x="63.623047" xlink:href="#DejaVuSans-48"/>
      </g>
     </g>
    </g>
    <g id="xtick_10">
     <g id="line2d_10">
      <g>
       <use style="stroke:#000000;stroke-width:0.8;" x="226.828908" xlink:href="#mfa1ec604da" y="310.99049"/>
      </g>
     </g>
     <g id="text_10">
      <!-- 90 -->
      <defs>
       <path d="M 10.984375 1.515625 
L 10.984375 10.5 
Q 14.703125 8.734375 18.5 7.8125 
Q 22.3125 6.890625 25.984375 6.890625 
Q 35.75 6.890625 40.890625 13.453125 
Q 46.046875 20.015625 46.78125 33.40625 
Q 43.953125 29.203125 39.59375 26.953125 
Q 35.25 24.703125 29.984375 24.703125 
Q 19.046875 24.703125 12.671875 31.3125 
Q 6.296875 37.9375 6.296875 49.421875 
Q 6.296875 60.640625 12.9375 67.421875 
Q 19.578125 74.21875 30.609375 74.21875 
Q 43.265625 74.21875 49.921875 64.515625 
Q 56.59375 54.828125 56.59375 36.375 
Q 56.59375 19.140625 48.40625 8.859375 
Q 40.234375 -1.421875 26.421875 -1.421875 
Q 22.703125 -1.421875 18.890625 -0.6875 
Q 15.09375 0.046875 10.984375 1.515625 
z
M 30.609375 32.421875 
Q 37.25 32.421875 41.125 36.953125 
Q 45.015625 41.5 45.015625 49.421875 
Q 45.015625 57.28125 41.125 61.84375 
Q 37.25 66.40625 30.609375 66.40625 
Q 23.96875 66.40625 20.09375 61.84375 
Q 16.21875 57.28125 16.21875 49.421875 
Q 16.21875 41.5 20.09375 36.953125 
Q 23.96875 32.421875 30.609375 32.421875 
z
" id="DejaVuSans-57"/>
      </defs>
      <g transform="translate(220.466408 325.588928)scale(0.1 -0.1)">
       <use xlink:href="#DejaVuSans-57"/>
       <use x="63.623047" xlink:href="#DejaVuSans-48"/>
      </g>
     </g>
    </g>
    <g id="xtick_11">
     <g id="line2d_11">
      <g>
       <use style="stroke:#000000;stroke-width:0.8;" x="246.869312" xlink:href="#mfa1ec604da" y="310.99049"/>
      </g>
     </g>
     <g id="text_11">
      <!-- 100 -->
      <g transform="translate(237.325562 325.588928)scale(0.1 -0.1)">
       <use xlink:href="#DejaVuSans-49"/>
       <use x="63.623047" xlink:href="#DejaVuSans-48"/>
       <use x="127.246094" xlink:href="#DejaVuSans-48"/>
      </g>
     </g>
    </g>
    <g id="xtick_12">
     <g id="line2d_12">
      <g>
       <use style="stroke:#000000;stroke-width:0.8;" x="266.909716" xlink:href="#mfa1ec604da" y="310.99049"/>
      </g>
     </g>
     <g id="text_12">
      <!-- 110 -->
      <g transform="translate(257.365966 325.588928)scale(0.1 -0.1)">
       <use xlink:href="#DejaVuSans-49"/>
       <use x="63.623047" xlink:href="#DejaVuSans-49"/>
       <use x="127.246094" xlink:href="#DejaVuSans-48"/>
      </g>
     </g>
    </g>
    <g id="xtick_13">
     <g id="line2d_13">
      <g>
       <use style="stroke:#000000;stroke-width:0.8;" x="286.95012" xlink:href="#mfa1ec604da" y="310.99049"/>
      </g>
     </g>
     <g id="text_13">
      <!-- 120 -->
      <g transform="translate(277.40637 325.588928)scale(0.1 -0.1)">
       <use xlink:href="#DejaVuSans-49"/>
       <use x="63.623047" xlink:href="#DejaVuSans-50"/>
       <use x="127.246094" xlink:href="#DejaVuSans-48"/>
      </g>
     </g>
    </g>
    <g id="xtick_14">
     <g id="line2d_14">
      <g>
       <use style="stroke:#000000;stroke-width:0.8;" x="306.990524" xlink:href="#mfa1ec604da" y="310.99049"/>
      </g>
     </g>
     <g id="text_14">
      <!-- 130 -->
      <g transform="translate(297.446774 325.588928)scale(0.1 -0.1)">
       <use xlink:href="#DejaVuSans-49"/>
       <use x="63.623047" xlink:href="#DejaVuSans-51"/>
       <use x="127.246094" xlink:href="#DejaVuSans-48"/>
      </g>
     </g>
    </g>
    <g id="xtick_15">
     <g id="line2d_15">
      <g>
       <use style="stroke:#000000;stroke-width:0.8;" x="327.030928" xlink:href="#mfa1ec604da" y="310.99049"/>
      </g>
     </g>
     <g id="text_15">
      <!-- 140 -->
      <g transform="translate(317.487178 325.588928)scale(0.1 -0.1)">
       <use xlink:href="#DejaVuSans-49"/>
       <use x="63.623047" xlink:href="#DejaVuSans-52"/>
       <use x="127.246094" xlink:href="#DejaVuSans-48"/>
      </g>
     </g>
    </g>
    <g id="xtick_16">
     <g id="line2d_16">
      <g>
       <use style="stroke:#000000;stroke-width:0.8;" x="347.071332" xlink:href="#mfa1ec604da" y="310.99049"/>
      </g>
     </g>
     <g id="text_16">
      <!-- 150 -->
      <g transform="translate(337.527582 325.588928)scale(0.1 -0.1)">
       <use xlink:href="#DejaVuSans-49"/>
       <use x="63.623047" xlink:href="#DejaVuSans-53"/>
       <use x="127.246094" xlink:href="#DejaVuSans-48"/>
      </g>
     </g>
    </g>
    <g id="xtick_17">
     <g id="line2d_17">
      <g>
       <use style="stroke:#000000;stroke-width:0.8;" x="367.111736" xlink:href="#mfa1ec604da" y="310.99049"/>
      </g>
     </g>
     <g id="text_17">
      <!-- 160 -->
      <g transform="translate(357.567986 325.588928)scale(0.1 -0.1)">
       <use xlink:href="#DejaVuSans-49"/>
       <use x="63.623047" xlink:href="#DejaVuSans-54"/>
       <use x="127.246094" xlink:href="#DejaVuSans-48"/>
      </g>
     </g>
    </g>
    <g id="xtick_18">
     <g id="line2d_18">
      <g>
       <use style="stroke:#000000;stroke-width:0.8;" x="387.15214" xlink:href="#mfa1ec604da" y="310.99049"/>
      </g>
     </g>
     <g id="text_18">
      <!-- 170 -->
      <g transform="translate(377.60839 325.588928)scale(0.1 -0.1)">
       <use xlink:href="#DejaVuSans-49"/>
       <use x="63.623047" xlink:href="#DejaVuSans-55"/>
       <use x="127.246094" xlink:href="#DejaVuSans-48"/>
      </g>
     </g>
    </g>
    <g id="xtick_19">
     <g id="line2d_19">
      <defs>
       <path d="M 0 0 
L 0 2 
" id="m562d52e967" style="stroke:#000000;stroke-width:0.6;"/>
      </defs>
      <g>
       <use style="stroke:#000000;stroke-width:0.6;" x="34.441029" xlink:href="#m562d52e967" y="310.99049"/>
      </g>
     </g>
    </g>
    <g id="xtick_20">
     <g id="line2d_20">
      <g>
       <use style="stroke:#000000;stroke-width:0.6;" x="36.445069" xlink:href="#m562d52e967" y="310.99049"/>
      </g>
     </g>
    </g>
    <g id="xtick_21">
     <g id="line2d_21">
      <g>
       <use style="stroke:#000000;stroke-width:0.6;" x="38.44911" xlink:href="#m562d52e967" y="310.99049"/>
      </g>
     </g>
    </g>
    <g id="xtick_22">
     <g id="line2d_22">
      <g>
       <use style="stroke:#000000;stroke-width:0.6;" x="40.45315" xlink:href="#m562d52e967" y="310.99049"/>
      </g>
     </g>
    </g>
    <g id="xtick_23">
     <g id="line2d_23">
      <g>
       <use style="stroke:#000000;stroke-width:0.6;" x="42.457191" xlink:href="#m562d52e967" y="310.99049"/>
      </g>
     </g>
    </g>
    <g id="xtick_24">
     <g id="line2d_24">
      <g>
       <use style="stroke:#000000;stroke-width:0.6;" x="44.461231" xlink:href="#m562d52e967" y="310.99049"/>
      </g>
     </g>
    </g>
    <g id="xtick_25">
     <g id="line2d_25">
      <g>
       <use style="stroke:#000000;stroke-width:0.6;" x="48.469312" xlink:href="#m562d52e967" y="310.99049"/>
      </g>
     </g>
    </g>
    <g id="xtick_26">
     <g id="line2d_26">
      <g>
       <use style="stroke:#000000;stroke-width:0.6;" x="50.473352" xlink:href="#m562d52e967" y="310.99049"/>
      </g>
     </g>
    </g>
    <g id="xtick_27">
     <g id="line2d_27">
      <g>
       <use style="stroke:#000000;stroke-width:0.6;" x="52.477393" xlink:href="#m562d52e967" y="310.99049"/>
      </g>
     </g>
    </g>
    <g id="xtick_28">
     <g id="line2d_28">
      <g>
       <use style="stroke:#000000;stroke-width:0.6;" x="54.481433" xlink:href="#m562d52e967" y="310.99049"/>
      </g>
     </g>
    </g>
    <g id="xtick_29">
     <g id="line2d_29">
      <g>
       <use style="stroke:#000000;stroke-width:0.6;" x="56.485473" xlink:href="#m562d52e967" y="310.99049"/>
      </g>
     </g>
    </g>
    <g id="xtick_30">
     <g id="line2d_30">
      <g>
       <use style="stroke:#000000;stroke-width:0.6;" x="58.489514" xlink:href="#m562d52e967" y="310.99049"/>
      </g>
     </g>
    </g>
    <g id="xtick_31">
     <g id="line2d_31">
      <g>
       <use style="stroke:#000000;stroke-width:0.6;" x="60.493554" xlink:href="#m562d52e967" y="310.99049"/>
      </g>
     </g>
    </g>
    <g id="xtick_32">
     <g id="line2d_32">
      <g>
       <use style="stroke:#000000;stroke-width:0.6;" x="62.497595" xlink:href="#m562d52e967" y="310.99049"/>
      </g>
     </g>
    </g>
    <g id="xtick_33">
     <g id="line2d_33">
      <g>
       <use style="stroke:#000000;stroke-width:0.6;" x="64.501635" xlink:href="#m562d52e967" y="310.99049"/>
      </g>
     </g>
    </g>
    <g id="xtick_34">
     <g id="line2d_34">
      <g>
       <use style="stroke:#000000;stroke-width:0.6;" x="68.509716" xlink:href="#m562d52e967" y="310.99049"/>
      </g>
     </g>
    </g>
    <g id="xtick_35">
     <g id="line2d_35">
      <g>
       <use style="stroke:#000000;stroke-width:0.6;" x="70.513756" xlink:href="#m562d52e967" y="310.99049"/>
      </g>
     </g>
    </g>
    <g id="xtick_36">
     <g id="line2d_36">
      <g>
       <use style="stroke:#000000;stroke-width:0.6;" x="72.517797" xlink:href="#m562d52e967" y="310.99049"/>
      </g>
     </g>
    </g>
    <g id="xtick_37">
     <g id="line2d_37">
      <g>
       <use style="stroke:#000000;stroke-width:0.6;" x="74.521837" xlink:href="#m562d52e967" y="310.99049"/>
      </g>
     </g>
    </g>
    <g id="xtick_38">
     <g id="line2d_38">
      <g>
       <use style="stroke:#000000;stroke-width:0.6;" x="76.525878" xlink:href="#m562d52e967" y="310.99049"/>
      </g>
     </g>
    </g>
    <g id="xtick_39">
     <g id="line2d_39">
      <g>
       <use style="stroke:#000000;stroke-width:0.6;" x="78.529918" xlink:href="#m562d52e967" y="310.99049"/>
      </g>
     </g>
    </g>
    <g id="xtick_40">
     <g id="line2d_40">
      <g>
       <use style="stroke:#000000;stroke-width:0.6;" x="80.533958" xlink:href="#m562d52e967" y="310.99049"/>
      </g>
     </g>
    </g>
    <g id="xtick_41">
     <g id="line2d_41">
      <g>
       <use style="stroke:#000000;stroke-width:0.6;" x="82.537999" xlink:href="#m562d52e967" y="310.99049"/>
      </g>
     </g>
    </g>
    <g id="xtick_42">
     <g id="line2d_42">
      <g>
       <use style="stroke:#000000;stroke-width:0.6;" x="84.542039" xlink:href="#m562d52e967" y="310.99049"/>
      </g>
     </g>
    </g>
    <g id="xtick_43">
     <g id="line2d_43">
      <g>
       <use style="stroke:#000000;stroke-width:0.6;" x="88.55012" xlink:href="#m562d52e967" y="310.99049"/>
      </g>
     </g>
    </g>
    <g id="xtick_44">
     <g id="line2d_44">
      <g>
       <use style="stroke:#000000;stroke-width:0.6;" x="90.55416" xlink:href="#m562d52e967" y="310.99049"/>
      </g>
     </g>
    </g>
    <g id="xtick_45">
     <g id="line2d_45">
      <g>
       <use style="stroke:#000000;stroke-width:0.6;" x="92.558201" xlink:href="#m562d52e967" y="310.99049"/>
      </g>
     </g>
    </g>
    <g id="xtick_46">
     <g id="line2d_46">
      <g>
       <use style="stroke:#000000;stroke-width:0.6;" x="94.562241" xlink:href="#m562d52e967" y="310.99049"/>
      </g>
     </g>
    </g>
    <g id="xtick_47">
     <g id="line2d_47">
      <g>
       <use style="stroke:#000000;stroke-width:0.6;" x="96.566282" xlink:href="#m562d52e967" y="310.99049"/>
      </g>
     </g>
    </g>
    <g id="xtick_48">
     <g id="line2d_48">
      <g>
       <use style="stroke:#000000;stroke-width:0.6;" x="98.570322" xlink:href="#m562d52e967" y="310.99049"/>
      </g>
     </g>
    </g>
    <g id="xtick_49">
     <g id="line2d_49">
      <g>
       <use style="stroke:#000000;stroke-width:0.6;" x="100.574362" xlink:href="#m562d52e967" y="310.99049"/>
      </g>
     </g>
    </g>
    <g id="xtick_50">
     <g id="line2d_50">
      <g>
       <use style="stroke:#000000;stroke-width:0.6;" x="102.578403" xlink:href="#m562d52e967" y="310.99049"/>
      </g>
     </g>
    </g>
    <g id="xtick_51">
     <g id="line2d_51">
      <g>
       <use style="stroke:#000000;stroke-width:0.6;" x="104.582443" xlink:href="#m562d52e967" y="310.99049"/>
      </g>
     </g>
    </g>
    <g id="xtick_52">
     <g id="line2d_52">
      <g>
       <use style="stroke:#000000;stroke-width:0.6;" x="108.590524" xlink:href="#m562d52e967" y="310.99049"/>
      </g>
     </g>
    </g>
    <g id="xtick_53">
     <g id="line2d_53">
      <g>
       <use style="stroke:#000000;stroke-width:0.6;" x="110.594564" xlink:href="#m562d52e967" y="310.99049"/>
      </g>
     </g>
    </g>
    <g id="xtick_54">
     <g id="line2d_54">
      <g>
       <use style="stroke:#000000;stroke-width:0.6;" x="112.598605" xlink:href="#m562d52e967" y="310.99049"/>
      </g>
     </g>
    </g>
    <g id="xtick_55">
     <g id="line2d_55">
      <g>
       <use style="stroke:#000000;stroke-width:0.6;" x="114.602645" xlink:href="#m562d52e967" y="310.99049"/>
      </g>
     </g>
    </g>
    <g id="xtick_56">
     <g id="line2d_56">
      <g>
       <use style="stroke:#000000;stroke-width:0.6;" x="116.606686" xlink:href="#m562d52e967" y="310.99049"/>
      </g>
     </g>
    </g>
    <g id="xtick_57">
     <g id="line2d_57">
      <g>
       <use style="stroke:#000000;stroke-width:0.6;" x="118.610726" xlink:href="#m562d52e967" y="310.99049"/>
      </g>
     </g>
    </g>
    <g id="xtick_58">
     <g id="line2d_58">
      <g>
       <use style="stroke:#000000;stroke-width:0.6;" x="120.614766" xlink:href="#m562d52e967" y="310.99049"/>
      </g>
     </g>
    </g>
    <g id="xtick_59">
     <g id="line2d_59">
      <g>
       <use style="stroke:#000000;stroke-width:0.6;" x="122.618807" xlink:href="#m562d52e967" y="310.99049"/>
      </g>
     </g>
    </g>
    <g id="xtick_60">
     <g id="line2d_60">
      <g>
       <use style="stroke:#000000;stroke-width:0.6;" x="124.622847" xlink:href="#m562d52e967" y="310.99049"/>
      </g>
     </g>
    </g>
    <g id="xtick_61">
     <g id="line2d_61">
      <g>
       <use style="stroke:#000000;stroke-width:0.6;" x="128.630928" xlink:href="#m562d52e967" y="310.99049"/>
      </g>
     </g>
    </g>
    <g id="xtick_62">
     <g id="line2d_62">
      <g>
       <use style="stroke:#000000;stroke-width:0.6;" x="130.634968" xlink:href="#m562d52e967" y="310.99049"/>
      </g>
     </g>
    </g>
    <g id="xtick_63">
     <g id="line2d_63">
      <g>
       <use style="stroke:#000000;stroke-width:0.6;" x="132.639009" xlink:href="#m562d52e967" y="310.99049"/>
      </g>
     </g>
    </g>
    <g id="xtick_64">
     <g id="line2d_64">
      <g>
       <use style="stroke:#000000;stroke-width:0.6;" x="134.643049" xlink:href="#m562d52e967" y="310.99049"/>
      </g>
     </g>
    </g>
    <g id="xtick_65">
     <g id="line2d_65">
      <g>
       <use style="stroke:#000000;stroke-width:0.6;" x="136.64709" xlink:href="#m562d52e967" y="310.99049"/>
      </g>
     </g>
    </g>
    <g id="xtick_66">
     <g id="line2d_66">
      <g>
       <use style="stroke:#000000;stroke-width:0.6;" x="138.65113" xlink:href="#m562d52e967" y="310.99049"/>
      </g>
     </g>
    </g>
    <g id="xtick_67">
     <g id="line2d_67">
      <g>
       <use style="stroke:#000000;stroke-width:0.6;" x="140.65517" xlink:href="#m562d52e967" y="310.99049"/>
      </g>
     </g>
    </g>
    <g id="xtick_68">
     <g id="line2d_68">
      <g>
       <use style="stroke:#000000;stroke-width:0.6;" x="142.659211" xlink:href="#m562d52e967" y="310.99049"/>
      </g>
     </g>
    </g>
    <g id="xtick_69">
     <g id="line2d_69">
      <g>
       <use style="stroke:#000000;stroke-width:0.6;" x="144.663251" xlink:href="#m562d52e967" y="310.99049"/>
      </g>
     </g>
    </g>
    <g id="xtick_70">
     <g id="line2d_70">
      <g>
       <use style="stroke:#000000;stroke-width:0.6;" x="148.671332" xlink:href="#m562d52e967" y="310.99049"/>
      </g>
     </g>
    </g>
    <g id="xtick_71">
     <g id="line2d_71">
      <g>
       <use style="stroke:#000000;stroke-width:0.6;" x="150.675372" xlink:href="#m562d52e967" y="310.99049"/>
      </g>
     </g>
    </g>
    <g id="xtick_72">
     <g id="line2d_72">
      <g>
       <use style="stroke:#000000;stroke-width:0.6;" x="152.679413" xlink:href="#m562d52e967" y="310.99049"/>
      </g>
     </g>
    </g>
    <g id="xtick_73">
     <g id="line2d_73">
      <g>
       <use style="stroke:#000000;stroke-width:0.6;" x="154.683453" xlink:href="#m562d52e967" y="310.99049"/>
      </g>
     </g>
    </g>
    <g id="xtick_74">
     <g id="line2d_74">
      <g>
       <use style="stroke:#000000;stroke-width:0.6;" x="156.687494" xlink:href="#m562d52e967" y="310.99049"/>
      </g>
     </g>
    </g>
    <g id="xtick_75">
     <g id="line2d_75">
      <g>
       <use style="stroke:#000000;stroke-width:0.6;" x="158.691534" xlink:href="#m562d52e967" y="310.99049"/>
      </g>
     </g>
    </g>
    <g id="xtick_76">
     <g id="line2d_76">
      <g>
       <use style="stroke:#000000;stroke-width:0.6;" x="160.695574" xlink:href="#m562d52e967" y="310.99049"/>
      </g>
     </g>
    </g>
    <g id="xtick_77">
     <g id="line2d_77">
      <g>
       <use style="stroke:#000000;stroke-width:0.6;" x="162.699615" xlink:href="#m562d52e967" y="310.99049"/>
      </g>
     </g>
    </g>
    <g id="xtick_78">
     <g id="line2d_78">
      <g>
       <use style="stroke:#000000;stroke-width:0.6;" x="164.703655" xlink:href="#m562d52e967" y="310.99049"/>
      </g>
     </g>
    </g>
    <g id="xtick_79">
     <g id="line2d_79">
      <g>
       <use style="stroke:#000000;stroke-width:0.6;" x="168.711736" xlink:href="#m562d52e967" y="310.99049"/>
      </g>
     </g>
    </g>
    <g id="xtick_80">
     <g id="line2d_80">
      <g>
       <use style="stroke:#000000;stroke-width:0.6;" x="170.715777" xlink:href="#m562d52e967" y="310.99049"/>
      </g>
     </g>
    </g>
    <g id="xtick_81">
     <g id="line2d_81">
      <g>
       <use style="stroke:#000000;stroke-width:0.6;" x="172.719817" xlink:href="#m562d52e967" y="310.99049"/>
      </g>
     </g>
    </g>
    <g id="xtick_82">
     <g id="line2d_82">
      <g>
       <use style="stroke:#000000;stroke-width:0.6;" x="174.723857" xlink:href="#m562d52e967" y="310.99049"/>
      </g>
     </g>
    </g>
    <g id="xtick_83">
     <g id="line2d_83">
      <g>
       <use style="stroke:#000000;stroke-width:0.6;" x="176.727898" xlink:href="#m562d52e967" y="310.99049"/>
      </g>
     </g>
    </g>
    <g id="xtick_84">
     <g id="line2d_84">
      <g>
       <use style="stroke:#000000;stroke-width:0.6;" x="178.731938" xlink:href="#m562d52e967" y="310.99049"/>
      </g>
     </g>
    </g>
    <g id="xtick_85">
     <g id="line2d_85">
      <g>
       <use style="stroke:#000000;stroke-width:0.6;" x="180.735979" xlink:href="#m562d52e967" y="310.99049"/>
      </g>
     </g>
    </g>
    <g id="xtick_86">
     <g id="line2d_86">
      <g>
       <use style="stroke:#000000;stroke-width:0.6;" x="182.740019" xlink:href="#m562d52e967" y="310.99049"/>
      </g>
     </g>
    </g>
    <g id="xtick_87">
     <g id="line2d_87">
      <g>
       <use style="stroke:#000000;stroke-width:0.6;" x="184.744059" xlink:href="#m562d52e967" y="310.99049"/>
      </g>
     </g>
    </g>
    <g id="xtick_88">
     <g id="line2d_88">
      <g>
       <use style="stroke:#000000;stroke-width:0.6;" x="188.75214" xlink:href="#m562d52e967" y="310.99049"/>
      </g>
     </g>
    </g>
    <g id="xtick_89">
     <g id="line2d_89">
      <g>
       <use style="stroke:#000000;stroke-width:0.6;" x="190.756181" xlink:href="#m562d52e967" y="310.99049"/>
      </g>
     </g>
    </g>
    <g id="xtick_90">
     <g id="line2d_90">
      <g>
       <use style="stroke:#000000;stroke-width:0.6;" x="192.760221" xlink:href="#m562d52e967" y="310.99049"/>
      </g>
     </g>
    </g>
    <g id="xtick_91">
     <g id="line2d_91">
      <g>
       <use style="stroke:#000000;stroke-width:0.6;" x="194.764261" xlink:href="#m562d52e967" y="310.99049"/>
      </g>
     </g>
    </g>
    <g id="xtick_92">
     <g id="line2d_92">
      <g>
       <use style="stroke:#000000;stroke-width:0.6;" x="196.768302" xlink:href="#m562d52e967" y="310.99049"/>
      </g>
     </g>
    </g>
    <g id="xtick_93">
     <g id="line2d_93">
      <g>
       <use style="stroke:#000000;stroke-width:0.6;" x="198.772342" xlink:href="#m562d52e967" y="310.99049"/>
      </g>
     </g>
    </g>
    <g id="xtick_94">
     <g id="line2d_94">
      <g>
       <use style="stroke:#000000;stroke-width:0.6;" x="200.776383" xlink:href="#m562d52e967" y="310.99049"/>
      </g>
     </g>
    </g>
    <g id="xtick_95">
     <g id="line2d_95">
      <g>
       <use style="stroke:#000000;stroke-width:0.6;" x="202.780423" xlink:href="#m562d52e967" y="310.99049"/>
      </g>
     </g>
    </g>
    <g id="xtick_96">
     <g id="line2d_96">
      <g>
       <use style="stroke:#000000;stroke-width:0.6;" x="204.784463" xlink:href="#m562d52e967" y="310.99049"/>
      </g>
     </g>
    </g>
    <g id="xtick_97">
     <g id="line2d_97">
      <g>
       <use style="stroke:#000000;stroke-width:0.6;" x="208.792544" xlink:href="#m562d52e967" y="310.99049"/>
      </g>
     </g>
    </g>
    <g id="xtick_98">
     <g id="line2d_98">
      <g>
       <use style="stroke:#000000;stroke-width:0.6;" x="210.796585" xlink:href="#m562d52e967" y="310.99049"/>
      </g>
     </g>
    </g>
    <g id="xtick_99">
     <g id="line2d_99">
      <g>
       <use style="stroke:#000000;stroke-width:0.6;" x="212.800625" xlink:href="#m562d52e967" y="310.99049"/>
      </g>
     </g>
    </g>
    <g id="xtick_100">
     <g id="line2d_100">
      <g>
       <use style="stroke:#000000;stroke-width:0.6;" x="214.804665" xlink:href="#m562d52e967" y="310.99049"/>
      </g>
     </g>
    </g>
    <g id="xtick_101">
     <g id="line2d_101">
      <g>
       <use style="stroke:#000000;stroke-width:0.6;" x="216.808706" xlink:href="#m562d52e967" y="310.99049"/>
      </g>
     </g>
    </g>
    <g id="xtick_102">
     <g id="line2d_102">
      <g>
       <use style="stroke:#000000;stroke-width:0.6;" x="218.812746" xlink:href="#m562d52e967" y="310.99049"/>
      </g>
     </g>
    </g>
    <g id="xtick_103">
     <g id="line2d_103">
      <g>
       <use style="stroke:#000000;stroke-width:0.6;" x="220.816787" xlink:href="#m562d52e967" y="310.99049"/>
      </g>
     </g>
    </g>
    <g id="xtick_104">
     <g id="line2d_104">
      <g>
       <use style="stroke:#000000;stroke-width:0.6;" x="222.820827" xlink:href="#m562d52e967" y="310.99049"/>
      </g>
     </g>
    </g>
    <g id="xtick_105">
     <g id="line2d_105">
      <g>
       <use style="stroke:#000000;stroke-width:0.6;" x="224.824867" xlink:href="#m562d52e967" y="310.99049"/>
      </g>
     </g>
    </g>
    <g id="xtick_106">
     <g id="line2d_106">
      <g>
       <use style="stroke:#000000;stroke-width:0.6;" x="228.832948" xlink:href="#m562d52e967" y="310.99049"/>
      </g>
     </g>
    </g>
    <g id="xtick_107">
     <g id="line2d_107">
      <g>
       <use style="stroke:#000000;stroke-width:0.6;" x="230.836989" xlink:href="#m562d52e967" y="310.99049"/>
      </g>
     </g>
    </g>
    <g id="xtick_108">
     <g id="line2d_108">
      <g>
       <use style="stroke:#000000;stroke-width:0.6;" x="232.841029" xlink:href="#m562d52e967" y="310.99049"/>
      </g>
     </g>
    </g>
    <g id="xtick_109">
     <g id="line2d_109">
      <g>
       <use style="stroke:#000000;stroke-width:0.6;" x="234.845069" xlink:href="#m562d52e967" y="310.99049"/>
      </g>
     </g>
    </g>
    <g id="xtick_110">
     <g id="line2d_110">
      <g>
       <use style="stroke:#000000;stroke-width:0.6;" x="236.84911" xlink:href="#m562d52e967" y="310.99049"/>
      </g>
     </g>
    </g>
    <g id="xtick_111">
     <g id="line2d_111">
      <g>
       <use style="stroke:#000000;stroke-width:0.6;" x="238.85315" xlink:href="#m562d52e967" y="310.99049"/>
      </g>
     </g>
    </g>
    <g id="xtick_112">
     <g id="line2d_112">
      <g>
       <use style="stroke:#000000;stroke-width:0.6;" x="240.857191" xlink:href="#m562d52e967" y="310.99049"/>
      </g>
     </g>
    </g>
    <g id="xtick_113">
     <g id="line2d_113">
      <g>
       <use style="stroke:#000000;stroke-width:0.6;" x="242.861231" xlink:href="#m562d52e967" y="310.99049"/>
      </g>
     </g>
    </g>
    <g id="xtick_114">
     <g id="line2d_114">
      <g>
       <use style="stroke:#000000;stroke-width:0.6;" x="244.865271" xlink:href="#m562d52e967" y="310.99049"/>
      </g>
     </g>
    </g>
    <g id="xtick_115">
     <g id="line2d_115">
      <g>
       <use style="stroke:#000000;stroke-width:0.6;" x="248.873352" xlink:href="#m562d52e967" y="310.99049"/>
      </g>
     </g>
    </g>
    <g id="xtick_116">
     <g id="line2d_116">
      <g>
       <use style="stroke:#000000;stroke-width:0.6;" x="250.877393" xlink:href="#m562d52e967" y="310.99049"/>
      </g>
     </g>
    </g>
    <g id="xtick_117">
     <g id="line2d_117">
      <g>
       <use style="stroke:#000000;stroke-width:0.6;" x="252.881433" xlink:href="#m562d52e967" y="310.99049"/>
      </g>
     </g>
    </g>
    <g id="xtick_118">
     <g id="line2d_118">
      <g>
       <use style="stroke:#000000;stroke-width:0.6;" x="254.885473" xlink:href="#m562d52e967" y="310.99049"/>
      </g>
     </g>
    </g>
    <g id="xtick_119">
     <g id="line2d_119">
      <g>
       <use style="stroke:#000000;stroke-width:0.6;" x="256.889514" xlink:href="#m562d52e967" y="310.99049"/>
      </g>
     </g>
    </g>
    <g id="xtick_120">
     <g id="line2d_120">
      <g>
       <use style="stroke:#000000;stroke-width:0.6;" x="258.893554" xlink:href="#m562d52e967" y="310.99049"/>
      </g>
     </g>
    </g>
    <g id="xtick_121">
     <g id="line2d_121">
      <g>
       <use style="stroke:#000000;stroke-width:0.6;" x="260.897595" xlink:href="#m562d52e967" y="310.99049"/>
      </g>
     </g>
    </g>
    <g id="xtick_122">
     <g id="line2d_122">
      <g>
       <use style="stroke:#000000;stroke-width:0.6;" x="262.901635" xlink:href="#m562d52e967" y="310.99049"/>
      </g>
     </g>
    </g>
    <g id="xtick_123">
     <g id="line2d_123">
      <g>
       <use style="stroke:#000000;stroke-width:0.6;" x="264.905676" xlink:href="#m562d52e967" y="310.99049"/>
      </g>
     </g>
    </g>
    <g id="xtick_124">
     <g id="line2d_124">
      <g>
       <use style="stroke:#000000;stroke-width:0.6;" x="268.913756" xlink:href="#m562d52e967" y="310.99049"/>
      </g>
     </g>
    </g>
    <g id="xtick_125">
     <g id="line2d_125">
      <g>
       <use style="stroke:#000000;stroke-width:0.6;" x="270.917797" xlink:href="#m562d52e967" y="310.99049"/>
      </g>
     </g>
    </g>
    <g id="xtick_126">
     <g id="line2d_126">
      <g>
       <use style="stroke:#000000;stroke-width:0.6;" x="272.921837" xlink:href="#m562d52e967" y="310.99049"/>
      </g>
     </g>
    </g>
    <g id="xtick_127">
     <g id="line2d_127">
      <g>
       <use style="stroke:#000000;stroke-width:0.6;" x="274.925878" xlink:href="#m562d52e967" y="310.99049"/>
      </g>
     </g>
    </g>
    <g id="xtick_128">
     <g id="line2d_128">
      <g>
       <use style="stroke:#000000;stroke-width:0.6;" x="276.929918" xlink:href="#m562d52e967" y="310.99049"/>
      </g>
     </g>
    </g>
    <g id="xtick_129">
     <g id="line2d_129">
      <g>
       <use style="stroke:#000000;stroke-width:0.6;" x="278.933958" xlink:href="#m562d52e967" y="310.99049"/>
      </g>
     </g>
    </g>
    <g id="xtick_130">
     <g id="line2d_130">
      <g>
       <use style="stroke:#000000;stroke-width:0.6;" x="280.937999" xlink:href="#m562d52e967" y="310.99049"/>
      </g>
     </g>
    </g>
    <g id="xtick_131">
     <g id="line2d_131">
      <g>
       <use style="stroke:#000000;stroke-width:0.6;" x="282.942039" xlink:href="#m562d52e967" y="310.99049"/>
      </g>
     </g>
    </g>
    <g id="xtick_132">
     <g id="line2d_132">
      <g>
       <use style="stroke:#000000;stroke-width:0.6;" x="284.94608" xlink:href="#m562d52e967" y="310.99049"/>
      </g>
     </g>
    </g>
    <g id="xtick_133">
     <g id="line2d_133">
      <g>
       <use style="stroke:#000000;stroke-width:0.6;" x="288.95416" xlink:href="#m562d52e967" y="310.99049"/>
      </g>
     </g>
    </g>
    <g id="xtick_134">
     <g id="line2d_134">
      <g>
       <use style="stroke:#000000;stroke-width:0.6;" x="290.958201" xlink:href="#m562d52e967" y="310.99049"/>
      </g>
     </g>
    </g>
    <g id="xtick_135">
     <g id="line2d_135">
      <g>
       <use style="stroke:#000000;stroke-width:0.6;" x="292.962241" xlink:href="#m562d52e967" y="310.99049"/>
      </g>
     </g>
    </g>
    <g id="xtick_136">
     <g id="line2d_136">
      <g>
       <use style="stroke:#000000;stroke-width:0.6;" x="294.966282" xlink:href="#m562d52e967" y="310.99049"/>
      </g>
     </g>
    </g>
    <g id="xtick_137">
     <g id="line2d_137">
      <g>
       <use style="stroke:#000000;stroke-width:0.6;" x="296.970322" xlink:href="#m562d52e967" y="310.99049"/>
      </g>
     </g>
    </g>
    <g id="xtick_138">
     <g id="line2d_138">
      <g>
       <use style="stroke:#000000;stroke-width:0.6;" x="298.974362" xlink:href="#m562d52e967" y="310.99049"/>
      </g>
     </g>
    </g>
    <g id="xtick_139">
     <g id="line2d_139">
      <g>
       <use style="stroke:#000000;stroke-width:0.6;" x="300.978403" xlink:href="#m562d52e967" y="310.99049"/>
      </g>
     </g>
    </g>
    <g id="xtick_140">
     <g id="line2d_140">
      <g>
       <use style="stroke:#000000;stroke-width:0.6;" x="302.982443" xlink:href="#m562d52e967" y="310.99049"/>
      </g>
     </g>
    </g>
    <g id="xtick_141">
     <g id="line2d_141">
      <g>
       <use style="stroke:#000000;stroke-width:0.6;" x="304.986484" xlink:href="#m562d52e967" y="310.99049"/>
      </g>
     </g>
    </g>
    <g id="xtick_142">
     <g id="line2d_142">
      <g>
       <use style="stroke:#000000;stroke-width:0.6;" x="308.994564" xlink:href="#m562d52e967" y="310.99049"/>
      </g>
     </g>
    </g>
    <g id="xtick_143">
     <g id="line2d_143">
      <g>
       <use style="stroke:#000000;stroke-width:0.6;" x="310.998605" xlink:href="#m562d52e967" y="310.99049"/>
      </g>
     </g>
    </g>
    <g id="xtick_144">
     <g id="line2d_144">
      <g>
       <use style="stroke:#000000;stroke-width:0.6;" x="313.002645" xlink:href="#m562d52e967" y="310.99049"/>
      </g>
     </g>
    </g>
    <g id="xtick_145">
     <g id="line2d_145">
      <g>
       <use style="stroke:#000000;stroke-width:0.6;" x="315.006686" xlink:href="#m562d52e967" y="310.99049"/>
      </g>
     </g>
    </g>
    <g id="xtick_146">
     <g id="line2d_146">
      <g>
       <use style="stroke:#000000;stroke-width:0.6;" x="317.010726" xlink:href="#m562d52e967" y="310.99049"/>
      </g>
     </g>
    </g>
    <g id="xtick_147">
     <g id="line2d_147">
      <g>
       <use style="stroke:#000000;stroke-width:0.6;" x="319.014766" xlink:href="#m562d52e967" y="310.99049"/>
      </g>
     </g>
    </g>
    <g id="xtick_148">
     <g id="line2d_148">
      <g>
       <use style="stroke:#000000;stroke-width:0.6;" x="321.018807" xlink:href="#m562d52e967" y="310.99049"/>
      </g>
     </g>
    </g>
    <g id="xtick_149">
     <g id="line2d_149">
      <g>
       <use style="stroke:#000000;stroke-width:0.6;" x="323.022847" xlink:href="#m562d52e967" y="310.99049"/>
      </g>
     </g>
    </g>
    <g id="xtick_150">
     <g id="line2d_150">
      <g>
       <use style="stroke:#000000;stroke-width:0.6;" x="325.026888" xlink:href="#m562d52e967" y="310.99049"/>
      </g>
     </g>
    </g>
    <g id="xtick_151">
     <g id="line2d_151">
      <g>
       <use style="stroke:#000000;stroke-width:0.6;" x="329.034968" xlink:href="#m562d52e967" y="310.99049"/>
      </g>
     </g>
    </g>
    <g id="xtick_152">
     <g id="line2d_152">
      <g>
       <use style="stroke:#000000;stroke-width:0.6;" x="331.039009" xlink:href="#m562d52e967" y="310.99049"/>
      </g>
     </g>
    </g>
    <g id="xtick_153">
     <g id="line2d_153">
      <g>
       <use style="stroke:#000000;stroke-width:0.6;" x="333.043049" xlink:href="#m562d52e967" y="310.99049"/>
      </g>
     </g>
    </g>
    <g id="xtick_154">
     <g id="line2d_154">
      <g>
       <use style="stroke:#000000;stroke-width:0.6;" x="335.04709" xlink:href="#m562d52e967" y="310.99049"/>
      </g>
     </g>
    </g>
    <g id="xtick_155">
     <g id="line2d_155">
      <g>
       <use style="stroke:#000000;stroke-width:0.6;" x="337.05113" xlink:href="#m562d52e967" y="310.99049"/>
      </g>
     </g>
    </g>
    <g id="xtick_156">
     <g id="line2d_156">
      <g>
       <use style="stroke:#000000;stroke-width:0.6;" x="339.05517" xlink:href="#m562d52e967" y="310.99049"/>
      </g>
     </g>
    </g>
    <g id="xtick_157">
     <g id="line2d_157">
      <g>
       <use style="stroke:#000000;stroke-width:0.6;" x="341.059211" xlink:href="#m562d52e967" y="310.99049"/>
      </g>
     </g>
    </g>
    <g id="xtick_158">
     <g id="line2d_158">
      <g>
       <use style="stroke:#000000;stroke-width:0.6;" x="343.063251" xlink:href="#m562d52e967" y="310.99049"/>
      </g>
     </g>
    </g>
    <g id="xtick_159">
     <g id="line2d_159">
      <g>
       <use style="stroke:#000000;stroke-width:0.6;" x="345.067292" xlink:href="#m562d52e967" y="310.99049"/>
      </g>
     </g>
    </g>
    <g id="xtick_160">
     <g id="line2d_160">
      <g>
       <use style="stroke:#000000;stroke-width:0.6;" x="349.075372" xlink:href="#m562d52e967" y="310.99049"/>
      </g>
     </g>
    </g>
    <g id="xtick_161">
     <g id="line2d_161">
      <g>
       <use style="stroke:#000000;stroke-width:0.6;" x="351.079413" xlink:href="#m562d52e967" y="310.99049"/>
      </g>
     </g>
    </g>
    <g id="xtick_162">
     <g id="line2d_162">
      <g>
       <use style="stroke:#000000;stroke-width:0.6;" x="353.083453" xlink:href="#m562d52e967" y="310.99049"/>
      </g>
     </g>
    </g>
    <g id="xtick_163">
     <g id="line2d_163">
      <g>
       <use style="stroke:#000000;stroke-width:0.6;" x="355.087494" xlink:href="#m562d52e967" y="310.99049"/>
      </g>
     </g>
    </g>
    <g id="xtick_164">
     <g id="line2d_164">
      <g>
       <use style="stroke:#000000;stroke-width:0.6;" x="357.091534" xlink:href="#m562d52e967" y="310.99049"/>
      </g>
     </g>
    </g>
    <g id="xtick_165">
     <g id="line2d_165">
      <g>
       <use style="stroke:#000000;stroke-width:0.6;" x="359.095574" xlink:href="#m562d52e967" y="310.99049"/>
      </g>
     </g>
    </g>
    <g id="xtick_166">
     <g id="line2d_166">
      <g>
       <use style="stroke:#000000;stroke-width:0.6;" x="361.099615" xlink:href="#m562d52e967" y="310.99049"/>
      </g>
     </g>
    </g>
    <g id="xtick_167">
     <g id="line2d_167">
      <g>
       <use style="stroke:#000000;stroke-width:0.6;" x="363.103655" xlink:href="#m562d52e967" y="310.99049"/>
      </g>
     </g>
    </g>
    <g id="xtick_168">
     <g id="line2d_168">
      <g>
       <use style="stroke:#000000;stroke-width:0.6;" x="365.107696" xlink:href="#m562d52e967" y="310.99049"/>
      </g>
     </g>
    </g>
    <g id="xtick_169">
     <g id="line2d_169">
      <g>
       <use style="stroke:#000000;stroke-width:0.6;" x="369.115777" xlink:href="#m562d52e967" y="310.99049"/>
      </g>
     </g>
    </g>
    <g id="xtick_170">
     <g id="line2d_170">
      <g>
       <use style="stroke:#000000;stroke-width:0.6;" x="371.119817" xlink:href="#m562d52e967" y="310.99049"/>
      </g>
     </g>
    </g>
    <g id="xtick_171">
     <g id="line2d_171">
      <g>
       <use style="stroke:#000000;stroke-width:0.6;" x="373.123857" xlink:href="#m562d52e967" y="310.99049"/>
      </g>
     </g>
    </g>
    <g id="xtick_172">
     <g id="line2d_172">
      <g>
       <use style="stroke:#000000;stroke-width:0.6;" x="375.127898" xlink:href="#m562d52e967" y="310.99049"/>
      </g>
     </g>
    </g>
    <g id="xtick_173">
     <g id="line2d_173">
      <g>
       <use style="stroke:#000000;stroke-width:0.6;" x="377.131938" xlink:href="#m562d52e967" y="310.99049"/>
      </g>
     </g>
    </g>
    <g id="xtick_174">
     <g id="line2d_174">
      <g>
       <use style="stroke:#000000;stroke-width:0.6;" x="379.135979" xlink:href="#m562d52e967" y="310.99049"/>
      </g>
     </g>
    </g>
    <g id="xtick_175">
     <g id="line2d_175">
      <g>
       <use style="stroke:#000000;stroke-width:0.6;" x="381.140019" xlink:href="#m562d52e967" y="310.99049"/>
      </g>
     </g>
    </g>
    <g id="xtick_176">
     <g id="line2d_176">
      <g>
       <use style="stroke:#000000;stroke-width:0.6;" x="383.144059" xlink:href="#m562d52e967" y="310.99049"/>
      </g>
     </g>
    </g>
    <g id="xtick_177">
     <g id="line2d_177">
      <g>
       <use style="stroke:#000000;stroke-width:0.6;" x="385.1481" xlink:href="#m562d52e967" y="310.99049"/>
      </g>
     </g>
    </g>
    <g id="xtick_178">
     <g id="line2d_178">
      <g>
       <use style="stroke:#000000;stroke-width:0.6;" x="389.156181" xlink:href="#m562d52e967" y="310.99049"/>
      </g>
     </g>
    </g>
    <g id="xtick_179">
     <g id="line2d_179">
      <g>
       <use style="stroke:#000000;stroke-width:0.6;" x="391.160221" xlink:href="#m562d52e967" y="310.99049"/>
      </g>
     </g>
    </g>
    <g id="text_19">
     <!-- Residue Number -->
     <defs>
      <path d="M 44.390625 34.1875 
Q 47.5625 33.109375 50.5625 29.59375 
Q 53.5625 26.078125 56.59375 19.921875 
L 66.609375 0 
L 56 0 
L 46.6875 18.703125 
Q 43.0625 26.03125 39.671875 28.421875 
Q 36.28125 30.8125 30.421875 30.8125 
L 19.671875 30.8125 
L 19.671875 0 
L 9.8125 0 
L 9.8125 72.90625 
L 32.078125 72.90625 
Q 44.578125 72.90625 50.734375 67.671875 
Q 56.890625 62.453125 56.890625 51.90625 
Q 56.890625 45.015625 53.6875 40.46875 
Q 50.484375 35.9375 44.390625 34.1875 
z
M 19.671875 64.796875 
L 19.671875 38.921875 
L 32.078125 38.921875 
Q 39.203125 38.921875 42.84375 42.21875 
Q 46.484375 45.515625 46.484375 51.90625 
Q 46.484375 58.296875 42.84375 61.546875 
Q 39.203125 64.796875 32.078125 64.796875 
z
" id="DejaVuSans-82"/>
      <path d="M 56.203125 29.59375 
L 56.203125 25.203125 
L 14.890625 25.203125 
Q 15.484375 15.921875 20.484375 11.0625 
Q 25.484375 6.203125 34.421875 6.203125 
Q 39.59375 6.203125 44.453125 7.46875 
Q 49.3125 8.734375 54.109375 11.28125 
L 54.109375 2.78125 
Q 49.265625 0.734375 44.1875 -0.34375 
Q 39.109375 -1.421875 33.890625 -1.421875 
Q 20.796875 -1.421875 13.15625 6.1875 
Q 5.515625 13.8125 5.515625 26.8125 
Q 5.515625 40.234375 12.765625 48.109375 
Q 20.015625 56 32.328125 56 
Q 43.359375 56 49.78125 48.890625 
Q 56.203125 41.796875 56.203125 29.59375 
z
M 47.21875 32.234375 
Q 47.125 39.59375 43.09375 43.984375 
Q 39.0625 48.390625 32.421875 48.390625 
Q 24.90625 48.390625 20.390625 44.140625 
Q 15.875 39.890625 15.1875 32.171875 
z
" id="DejaVuSans-101"/>
      <path d="M 44.28125 53.078125 
L 44.28125 44.578125 
Q 40.484375 46.53125 36.375 47.5 
Q 32.28125 48.484375 27.875 48.484375 
Q 21.1875 48.484375 17.84375 46.4375 
Q 14.5 44.390625 14.5 40.28125 
Q 14.5 37.15625 16.890625 35.375 
Q 19.28125 33.59375 26.515625 31.984375 
L 29.59375 31.296875 
Q 39.15625 29.25 43.1875 25.515625 
Q 47.21875 21.78125 47.21875 15.09375 
Q 47.21875 7.46875 41.1875 3.015625 
Q 35.15625 -1.421875 24.609375 -1.421875 
Q 20.21875 -1.421875 15.453125 -0.5625 
Q 10.6875 0.296875 5.421875 2 
L 5.421875 11.28125 
Q 10.40625 8.6875 15.234375 7.390625 
Q 20.0625 6.109375 24.8125 6.109375 
Q 31.15625 6.109375 34.5625 8.28125 
Q 37.984375 10.453125 37.984375 14.40625 
Q 37.984375 18.0625 35.515625 20.015625 
Q 33.0625 21.96875 24.703125 23.78125 
L 21.578125 24.515625 
Q 13.234375 26.265625 9.515625 29.90625 
Q 5.8125 33.546875 5.8125 39.890625 
Q 5.8125 47.609375 11.28125 51.796875 
Q 16.75 56 26.8125 56 
Q 31.78125 56 36.171875 55.265625 
Q 40.578125 54.546875 44.28125 53.078125 
z
" id="DejaVuSans-115"/>
      <path d="M 9.421875 54.6875 
L 18.40625 54.6875 
L 18.40625 0 
L 9.421875 0 
z
M 9.421875 75.984375 
L 18.40625 75.984375 
L 18.40625 64.59375 
L 9.421875 64.59375 
z
" id="DejaVuSans-105"/>
      <path d="M 45.40625 46.390625 
L 45.40625 75.984375 
L 54.390625 75.984375 
L 54.390625 0 
L 45.40625 0 
L 45.40625 8.203125 
Q 42.578125 3.328125 38.25 0.953125 
Q 33.9375 -1.421875 27.875 -1.421875 
Q 17.96875 -1.421875 11.734375 6.484375 
Q 5.515625 14.40625 5.515625 27.296875 
Q 5.515625 40.1875 11.734375 48.09375 
Q 17.96875 56 27.875 56 
Q 33.9375 56 38.25 53.625 
Q 42.578125 51.265625 45.40625 46.390625 
z
M 14.796875 27.296875 
Q 14.796875 17.390625 18.875 11.75 
Q 22.953125 6.109375 30.078125 6.109375 
Q 37.203125 6.109375 41.296875 11.75 
Q 45.40625 17.390625 45.40625 27.296875 
Q 45.40625 37.203125 41.296875 42.84375 
Q 37.203125 48.484375 30.078125 48.484375 
Q 22.953125 48.484375 18.875 42.84375 
Q 14.796875 37.203125 14.796875 27.296875 
z
" id="DejaVuSans-100"/>
      <path d="M 8.5 21.578125 
L 8.5 54.6875 
L 17.484375 54.6875 
L 17.484375 21.921875 
Q 17.484375 14.15625 20.5 10.265625 
Q 23.53125 6.390625 29.59375 6.390625 
Q 36.859375 6.390625 41.078125 11.03125 
Q 45.3125 15.671875 45.3125 23.6875 
L 45.3125 54.6875 
L 54.296875 54.6875 
L 54.296875 0 
L 45.3125 0 
L 45.3125 8.40625 
Q 42.046875 3.421875 37.71875 1 
Q 33.40625 -1.421875 27.6875 -1.421875 
Q 18.265625 -1.421875 13.375 4.4375 
Q 8.5 10.296875 8.5 21.578125 
z
M 31.109375 56 
z
" id="DejaVuSans-117"/>
      <path id="DejaVuSans-32"/>
      <path d="M 9.8125 72.90625 
L 23.09375 72.90625 
L 55.421875 11.921875 
L 55.421875 72.90625 
L 64.984375 72.90625 
L 64.984375 0 
L 51.703125 0 
L 19.390625 60.984375 
L 19.390625 0 
L 9.8125 0 
z
" id="DejaVuSans-78"/>
      <path d="M 52 44.1875 
Q 55.375 50.25 60.0625 53.125 
Q 64.75 56 71.09375 56 
Q 79.640625 56 84.28125 50.015625 
Q 88.921875 44.046875 88.921875 33.015625 
L 88.921875 0 
L 79.890625 0 
L 79.890625 32.71875 
Q 79.890625 40.578125 77.09375 44.375 
Q 74.3125 48.1875 68.609375 48.1875 
Q 61.625 48.1875 57.5625 43.546875 
Q 53.515625 38.921875 53.515625 30.90625 
L 53.515625 0 
L 44.484375 0 
L 44.484375 32.71875 
Q 44.484375 40.625 41.703125 44.40625 
Q 38.921875 48.1875 33.109375 48.1875 
Q 26.21875 48.1875 22.15625 43.53125 
Q 18.109375 38.875 18.109375 30.90625 
L 18.109375 0 
L 9.078125 0 
L 9.078125 54.6875 
L 18.109375 54.6875 
L 18.109375 46.1875 
Q 21.1875 51.21875 25.484375 53.609375 
Q 29.78125 56 35.6875 56 
Q 41.65625 56 45.828125 52.96875 
Q 50 49.953125 52 44.1875 
z
" id="DejaVuSans-109"/>
      <path d="M 48.6875 27.296875 
Q 48.6875 37.203125 44.609375 42.84375 
Q 40.53125 48.484375 33.40625 48.484375 
Q 26.265625 48.484375 22.1875 42.84375 
Q 18.109375 37.203125 18.109375 27.296875 
Q 18.109375 17.390625 22.1875 11.75 
Q 26.265625 6.109375 33.40625 6.109375 
Q 40.53125 6.109375 44.609375 11.75 
Q 48.6875 17.390625 48.6875 27.296875 
z
M 18.109375 46.390625 
Q 20.953125 51.265625 25.265625 53.625 
Q 29.59375 56 35.59375 56 
Q 45.5625 56 51.78125 48.09375 
Q 58.015625 40.1875 58.015625 27.296875 
Q 58.015625 14.40625 51.78125 6.484375 
Q 45.5625 -1.421875 35.59375 -1.421875 
Q 29.59375 -1.421875 25.265625 0.953125 
Q 20.953125 3.328125 18.109375 8.203125 
L 18.109375 0 
L 9.078125 0 
L 9.078125 75.984375 
L 18.109375 75.984375 
z
" id="DejaVuSans-98"/>
      <path d="M 41.109375 46.296875 
Q 39.59375 47.171875 37.8125 47.578125 
Q 36.03125 48 33.890625 48 
Q 26.265625 48 22.1875 43.046875 
Q 18.109375 38.09375 18.109375 28.8125 
L 18.109375 0 
L 9.078125 0 
L 9.078125 54.6875 
L 18.109375 54.6875 
L 18.109375 46.1875 
Q 20.953125 51.171875 25.484375 53.578125 
Q 30.03125 56 36.53125 56 
Q 37.453125 56 38.578125 55.875 
Q 39.703125 55.765625 41.0625 55.515625 
z
" id="DejaVuSans-114"/>
     </defs>
     <g transform="translate(171.164688 339.267052)scale(0.1 -0.1)">
      <use xlink:href="#DejaVuSans-82"/>
      <use x="69.419922" xlink:href="#DejaVuSans-101"/>
      <use x="130.943359" xlink:href="#DejaVuSans-115"/>
      <use x="183.042969" xlink:href="#DejaVuSans-105"/>
      <use x="210.826172" xlink:href="#DejaVuSans-100"/>
      <use x="274.302734" xlink:href="#DejaVuSans-117"/>
      <use x="337.681641" xlink:href="#DejaVuSans-101"/>
      <use x="399.205078" xlink:href="#DejaVuSans-32"/>
      <use x="430.992188" xlink:href="#DejaVuSans-78"/>
      <use x="505.796875" xlink:href="#DejaVuSans-117"/>
      <use x="569.175781" xlink:href="#DejaVuSans-109"/>
      <use x="666.587891" xlink:href="#DejaVuSans-98"/>
      <use x="730.064453" xlink:href="#DejaVuSans-101"/>
      <use x="791.587891" xlink:href="#DejaVuSans-114"/>
     </g>
    </g>
   </g>
   <g id="matplotlib.axis_2">
    <g id="ytick_1">
     <g id="line2d_180">
      <defs>
       <path d="M 0 0 
L -3.5 0 
" id="m23322d9f98" style="stroke:#000000;stroke-width:0.8;"/>
      </defs>
      <g>
       <use style="stroke:#000000;stroke-width:0.8;" x="34.240625" xlink:href="#m23322d9f98" y="305.576874"/>
      </g>
     </g>
     <g id="text_20">
      <!-- 0 -->
      <g transform="translate(20.878125 309.376093)scale(0.1 -0.1)">
       <use xlink:href="#DejaVuSans-48"/>
      </g>
     </g>
    </g>
    <g id="ytick_2">
     <g id="line2d_181">
      <g>
       <use style="stroke:#000000;stroke-width:0.8;" x="34.240625" xlink:href="#m23322d9f98" y="249.0368"/>
      </g>
     </g>
     <g id="text_21">
      <!-- 1 -->
      <g transform="translate(20.878125 252.836019)scale(0.1 -0.1)">
       <use xlink:href="#DejaVuSans-49"/>
      </g>
     </g>
    </g>
    <g id="ytick_3">
     <g id="line2d_182">
      <g>
       <use style="stroke:#000000;stroke-width:0.8;" x="34.240625" xlink:href="#m23322d9f98" y="192.496726"/>
      </g>
     </g>
     <g id="text_22">
      <!-- 2 -->
      <g transform="translate(20.878125 196.295945)scale(0.1 -0.1)">
       <use xlink:href="#DejaVuSans-50"/>
      </g>
     </g>
    </g>
    <g id="ytick_4">
     <g id="line2d_183">
      <g>
       <use style="stroke:#000000;stroke-width:0.8;" x="34.240625" xlink:href="#m23322d9f98" y="135.956652"/>
      </g>
     </g>
     <g id="text_23">
      <!-- 3 -->
      <g transform="translate(20.878125 139.755871)scale(0.1 -0.1)">
       <use xlink:href="#DejaVuSans-51"/>
      </g>
     </g>
    </g>
    <g id="ytick_5">
     <g id="line2d_184">
      <g>
       <use style="stroke:#000000;stroke-width:0.8;" x="34.240625" xlink:href="#m23322d9f98" y="79.416578"/>
      </g>
     </g>
     <g id="text_24">
      <!-- 4 -->
      <g transform="translate(20.878125 83.215797)scale(0.1 -0.1)">
       <use xlink:href="#DejaVuSans-52"/>
      </g>
     </g>
    </g>
    <g id="text_25">
     <!-- RMS-LODR -->
     <defs>
      <path d="M 9.8125 72.90625 
L 24.515625 72.90625 
L 43.109375 23.296875 
L 61.8125 72.90625 
L 76.515625 72.90625 
L 76.515625 0 
L 66.890625 0 
L 66.890625 64.015625 
L 48.09375 14.015625 
L 38.1875 14.015625 
L 19.390625 64.015625 
L 19.390625 0 
L 9.8125 0 
z
" id="DejaVuSans-77"/>
      <path d="M 53.515625 70.515625 
L 53.515625 60.890625 
Q 47.90625 63.578125 42.921875 64.890625 
Q 37.9375 66.21875 33.296875 66.21875 
Q 25.25 66.21875 20.875 63.09375 
Q 16.5 59.96875 16.5 54.203125 
Q 16.5 49.359375 19.40625 46.890625 
Q 22.3125 44.4375 30.421875 42.921875 
L 36.375 41.703125 
Q 47.40625 39.59375 52.65625 34.296875 
Q 57.90625 29 57.90625 20.125 
Q 57.90625 9.515625 50.796875 4.046875 
Q 43.703125 -1.421875 29.984375 -1.421875 
Q 24.8125 -1.421875 18.96875 -0.25 
Q 13.140625 0.921875 6.890625 3.21875 
L 6.890625 13.375 
Q 12.890625 10.015625 18.65625 8.296875 
Q 24.421875 6.59375 29.984375 6.59375 
Q 38.421875 6.59375 43.015625 9.90625 
Q 47.609375 13.234375 47.609375 19.390625 
Q 47.609375 24.75 44.3125 27.78125 
Q 41.015625 30.8125 33.5 32.328125 
L 27.484375 33.5 
Q 16.453125 35.6875 11.515625 40.375 
Q 6.59375 45.0625 6.59375 53.421875 
Q 6.59375 63.09375 13.40625 68.65625 
Q 20.21875 74.21875 32.171875 74.21875 
Q 37.3125 74.21875 42.625 73.28125 
Q 47.953125 72.359375 53.515625 70.515625 
z
" id="DejaVuSans-83"/>
      <path d="M 4.890625 31.390625 
L 31.203125 31.390625 
L 31.203125 23.390625 
L 4.890625 23.390625 
z
" id="DejaVuSans-45"/>
      <path d="M 9.8125 72.90625 
L 19.671875 72.90625 
L 19.671875 8.296875 
L 55.171875 8.296875 
L 55.171875 0 
L 9.8125 0 
z
" id="DejaVuSans-76"/>
      <path d="M 39.40625 66.21875 
Q 28.65625 66.21875 22.328125 58.203125 
Q 16.015625 50.203125 16.015625 36.375 
Q 16.015625 22.609375 22.328125 14.59375 
Q 28.65625 6.59375 39.40625 6.59375 
Q 50.140625 6.59375 56.421875 14.59375 
Q 62.703125 22.609375 62.703125 36.375 
Q 62.703125 50.203125 56.421875 58.203125 
Q 50.140625 66.21875 39.40625 66.21875 
z
M 39.40625 74.21875 
Q 54.734375 74.21875 63.90625 63.9375 
Q 73.09375 53.65625 73.09375 36.375 
Q 73.09375 19.140625 63.90625 8.859375 
Q 54.734375 -1.421875 39.40625 -1.421875 
Q 24.03125 -1.421875 14.8125 8.828125 
Q 5.609375 19.09375 5.609375 36.375 
Q 5.609375 53.65625 14.8125 63.9375 
Q 24.03125 74.21875 39.40625 74.21875 
z
" id="DejaVuSans-79"/>
      <path d="M 19.671875 64.796875 
L 19.671875 8.109375 
L 31.59375 8.109375 
Q 46.6875 8.109375 53.6875 14.9375 
Q 60.6875 21.78125 60.6875 36.53125 
Q 60.6875 51.171875 53.6875 57.984375 
Q 46.6875 64.796875 31.59375 64.796875 
z
M 9.8125 72.90625 
L 30.078125 72.90625 
Q 51.265625 72.90625 61.171875 64.09375 
Q 71.09375 55.28125 71.09375 36.53125 
Q 71.09375 17.671875 61.125 8.828125 
Q 51.171875 0 30.078125 0 
L 9.8125 0 
z
" id="DejaVuSans-68"/>
     </defs>
     <g transform="translate(14.798438 204.744646)rotate(-90)scale(0.1 -0.1)">
      <use xlink:href="#DejaVuSans-82"/>
      <use x="69.482422" xlink:href="#DejaVuSans-77"/>
      <use x="155.761719" xlink:href="#DejaVuSans-83"/>
      <use x="219.238281" xlink:href="#DejaVuSans-45"/>
      <use x="255.322266" xlink:href="#DejaVuSans-76"/>
      <use x="310.988281" xlink:href="#DejaVuSans-79"/>
      <use x="389.699219" xlink:href="#DejaVuSans-68"/>
      <use x="466.701172" xlink:href="#DejaVuSans-82"/>
     </g>
    </g>
   </g>
   <g id="line2d_185">
    <path clip-path="url(#pa04999c797)" d="M 50.473352 112.031376 
L 52.477393 191.015157 
L 54.481433 260.053761 
L 56.485473 252.824003 
L 58.489514 280.529736 
L 60.493554 263.439015 
L 62.497595 277.445475 
L 64.501635 250.035366 
L 66.505676 287.889804 
L 68.509716 278.766733 
L 70.513756 255.311857 
L 72.517797 285.15939 
L 74.521837 281.992903 
L 76.525878 271.871552 
L 78.529918 275.397689 
L 80.533958 269.666765 
L 82.537999 272.438087 
L 84.542039 251.559293 
L 86.54608 261.025713 
L 88.55012 276.567688 
L 90.55416 276.287238 
L 92.558201 268.788583 
L 94.562241 271.611344 
L 96.566282 287.339827 
L 98.570322 284.190891 
L 100.574362 269.08205 
L 102.578403 245.693177 
L 104.582443 266.263186 
L 106.586484 289.324582 
L 108.590524 287.198651 
L 110.594564 285.50643 
L 112.598605 289.477377 
L 114.602645 284.325531 
L 116.606686 290.889267 
L 118.610726 289.80271 
L 120.614766 284.925139 
L 122.618807 291.693072 
L 124.622847 276.406625 
L 126.626888 277.62464 
L 128.630928 269.015952 
L 130.634968 286.329406 
L 132.639009 277.242592 
L 134.643049 260.306628 
L 136.64709 270.650063 
L 138.65113 278.142958 
L 140.65517 245.469623 
L 142.659211 270.481885 
L 144.663251 277.876123 
L 146.667292 277.561037 
L 148.671332 220.19956 
L 150.675372 109.911302 
L 152.679413 219.44612 
L 154.683453 250.843216 
L 156.687494 248.719061 
L 158.691534 257.199601 
L 160.695574 281.494745 
L 162.699615 278.950117 
L 164.703655 280.258059 
L 166.707696 272.733612 
L 168.711736 290.161042 
L 170.715777 278.64321 
L 172.719817 263.533445 
L 174.723857 232.112372 
L 176.727898 129.084641 
L 178.731938 228.371729 
L 180.735979 194.827938 
L 182.740019 223.94146 
L 184.744059 204.056426 
L 186.7481 107.377633 
L 188.75214 235.355484 
L 190.756181 223.788994 
L 192.760221 211.058136 
L 194.764261 184.299442 
L 196.768302 184.575013 
L 198.772342 209.790792 
L 200.776383 214.851133 
L 202.780423 140.605494 
L 204.784463 260.761399 
L 206.788504 202.409715 
L 208.792544 120.124825 
L 210.796585 159.865396 
L 212.800625 249.709067 
L 214.804665 273.418849 
L 216.808706 258.382419 
L 218.812746 254.1488 
L 220.816787 258.4307 
L 222.820827 252.65153 
L 224.824867 275.124723 
L 226.828908 277.030642 
L 228.832948 268.249434 
L 230.836989 278.999443 
L 232.841029 258.837427 
L 234.845069 277.40216 
L 236.84911 280.367333 
L 238.85315 259.845801 
L 240.857191 278.193748 
L 242.861231 277.315303 
L 244.865271 283.643739 
L 246.869312 272.807617 
L 248.873352 242.044211 
L 250.877393 206.726155 
L 252.881433 254.913545 
L 254.885473 273.612122 
L 256.889514 269.088598 
L 258.893554 272.356118 
L 260.897595 267.238139 
L 262.901635 254.338401 
L 264.905676 197.826163 
L 266.909716 218.580526 
L 268.913756 240.62026 
L 270.917797 282.399042 
L 272.921837 285.741466 
L 274.925878 292.600473 
L 276.929918 284.851058 
L 278.933958 275.14376 
L 280.937999 291.134534 
L 282.942039 282.882643 
L 284.94608 243.686111 
L 286.95012 287.537177 
L 288.95416 279.025039 
L 290.958201 273.874776 
L 292.962241 275.101849 
L 294.966282 270.978463 
L 296.970322 249.109722 
L 298.974362 250.018459 
L 300.978403 270.456875 
L 302.982443 286.387469 
L 304.986484 289.741988 
L 306.990524 283.045802 
L 308.994564 290.875102 
L 313.002645 268.176593 
L 315.006686 279.767776 
L 317.010726 280.15981 
L 319.014766 289.813768 
L 321.018807 290.619865 
L 323.022847 286.067579 
L 325.026888 292.858477 
L 327.030928 295.157992 
L 329.034968 283.02875 
L 331.039009 294.831841 
L 333.043049 293.52631 
L 335.04709 291.94383 
L 337.05113 282.679421 
L 339.05517 277.472481 
L 341.059211 253.56892 
L 343.063251 165.94841 
L 345.067292 281.156674 
L 347.071332 249.553208 
L 349.075372 246.469078 
L 351.079413 253.654778 
L 353.083453 259.715717 
L 355.087494 261.108458 
L 357.091534 263.141827 
L 359.095574 217.668396 
L 361.099615 279.756428 
L 363.103655 259.546101 
L 365.107696 270.524282 
L 367.111736 283.007028 
L 369.115777 274.257869 
L 371.119817 282.236744 
L 373.123857 280.588528 
L 375.127898 280.329246 
L 375.127898 280.329246 
" style="fill:none;stroke:#377eb8;stroke-linecap:square;stroke-width:1.5;"/>
   </g>
   <g id="line2d_186">
    <path clip-path="url(#pa04999c797)" d="M 50.473352 146.417561 
L 52.477393 186.690382 
L 54.481433 266.667898 
L 56.485473 289.531124 
L 58.489514 290.447566 
L 60.493554 283.413708 
L 62.497595 286.272999 
L 64.501635 291.585782 
L 66.505676 289.20903 
L 68.509716 273.428631 
L 70.513756 243.909785 
L 72.517797 277.039558 
L 74.521837 265.376349 
L 78.529918 282.605455 
L 80.533958 286.826092 
L 82.537999 285.304723 
L 84.542039 286.419636 
L 86.54608 282.178281 
L 88.55012 282.334109 
L 90.55416 272.211166 
L 92.558201 276.267031 
L 94.562241 276.30523 
L 96.566282 269.846526 
L 98.570322 289.532162 
L 100.574362 282.810023 
L 102.578403 264.379236 
L 104.582443 286.180419 
L 106.586484 288.581502 
L 108.590524 293.5252 
L 110.594564 290.20546 
L 112.598605 294.409047 
L 114.602645 291.975403 
L 116.606686 292.925204 
L 118.610726 290.481327 
L 120.614766 289.159067 
L 122.618807 286.714646 
L 124.622847 255.249939 
L 126.626888 272.696212 
L 128.630928 237.810488 
L 130.634968 277.349198 
L 132.639009 291.448893 
L 134.643049 273.424565 
L 136.64709 276.239416 
L 138.65113 271.05227 
L 140.65517 223.630964 
L 142.659211 277.185048 
L 144.663251 285.621019 
L 146.667292 286.092294 
L 148.671332 217.346809 
L 150.675372 111.274207 
L 152.679413 233.594385 
L 154.683453 251.990499 
L 156.687494 272.243705 
L 158.691534 250.140025 
L 160.695574 277.070299 
L 162.699615 276.465447 
L 164.703655 266.545269 
L 166.707696 264.935714 
L 168.711736 285.503795 
L 170.715777 284.224305 
L 172.719817 261.561571 
L 174.723857 219.958358 
L 176.727898 99.680142 
L 178.731938 215.358144 
L 180.735979 170.124383 
L 182.740019 232.169034 
L 184.744059 207.540389 
L 186.7481 125.244854 
L 188.75214 199.698407 
L 190.756181 184.717167 
L 192.760221 231.042262 
L 194.764261 122.222135 
L 196.768302 142.098435 
L 198.772342 207.754646 
L 200.776383 228.612342 
L 202.780423 127.408163 
L 204.784463 234.346987 
L 206.788504 210.337581 
L 208.792544 127.791853 
L 210.796585 130.731406 
L 212.800625 230.485038 
L 214.804665 265.457387 
L 216.808706 256.082604 
L 218.812746 231.350602 
L 220.816787 264.496313 
L 222.820827 247.785103 
L 224.824867 268.468417 
L 226.828908 270.429504 
L 228.832948 253.21247 
L 230.836989 273.789499 
L 232.841029 261.838601 
L 234.845069 281.357942 
L 236.84911 284.331822 
L 238.85315 268.78078 
L 240.857191 247.27624 
L 242.861231 280.891505 
L 244.865271 273.27614 
L 246.869312 267.204286 
L 248.873352 222.049936 
L 250.877393 200.561956 
L 252.881433 275.668711 
L 254.885473 278.151185 
L 256.889514 255.910195 
L 258.893554 244.271332 
L 260.897595 230.870294 
L 262.901635 260.34842 
L 264.905676 223.87896 
L 266.909716 217.378682 
L 268.913756 266.112736 
L 270.917797 266.841074 
L 272.921837 288.435808 
L 274.925878 298.89449 
L 276.929918 288.486614 
L 278.933958 285.275988 
L 280.937999 292.502886 
L 282.942039 291.311131 
L 284.94608 294.210384 
L 286.95012 292.015147 
L 288.95416 283.181097 
L 290.958201 277.70343 
L 292.962241 280.908375 
L 294.966282 274.907575 
L 296.970322 243.897477 
L 298.974362 258.222316 
L 300.978403 261.097958 
L 302.982443 286.018047 
L 304.986484 292.124764 
L 306.990524 289.190226 
L 308.994564 287.50467 
L 310.998605 277.278414 
L 313.002645 275.818457 
L 315.006686 285.333978 
L 317.010726 263.457642 
L 319.014766 295.982906 
L 321.018807 294.313895 
L 323.022847 277.952761 
L 325.026888 290.657368 
L 327.030928 289.906663 
L 329.034968 276.577854 
L 331.039009 287.74947 
L 333.043049 290.997278 
L 335.04709 288.65718 
L 337.05113 279.683462 
L 339.05517 274.473727 
L 341.059211 281.568448 
L 343.063251 223.531998 
L 345.067292 284.327007 
L 347.071332 286.415297 
L 349.075372 281.796771 
L 351.079413 261.993468 
L 353.083453 264.259445 
L 355.087494 222.534118 
L 357.091534 225.936269 
L 359.095574 217.308269 
L 361.099615 280.431649 
L 363.103655 265.594599 
L 365.107696 286.446901 
L 367.111736 289.01646 
L 369.115777 281.808813 
L 371.119817 284.986072 
L 373.123857 272.973517 
L 375.127898 259.673764 
L 375.127898 259.673764 
" style="fill:none;stroke:#4daf4a;stroke-linecap:square;stroke-width:1.5;"/>
   </g>
   <g id="line2d_187">
    <path clip-path="url(#pa04999c797)" d="M 50.473352 125.494117 
L 52.477393 196.454454 
L 54.481433 261.454562 
L 56.485473 266.826621 
L 58.489514 285.188453 
L 60.493554 267.090483 
L 62.497595 282.256125 
L 64.501635 263.412164 
L 66.505676 289.116353 
L 68.509716 278.063607 
L 70.513756 252.934353 
L 72.517797 282.38323 
L 74.521837 274.234544 
L 76.525878 275.04019 
L 78.529918 280.230093 
L 80.533958 277.917246 
L 82.537999 278.95043 
L 84.542039 264.917876 
L 86.54608 266.967654 
L 88.55012 280.330738 
L 90.55416 274.581734 
L 92.558201 269.719668 
L 94.562241 275.00137 
L 96.566282 278.835184 
L 98.570322 286.66927 
L 100.574362 275.128237 
L 102.578403 251.73871 
L 104.582443 275.178868 
L 106.586484 290.023614 
L 108.590524 290.604245 
L 110.594564 288.571535 
L 112.598605 291.724048 
L 114.602645 287.510696 
L 116.606686 292.700767 
L 118.610726 290.515917 
L 120.614766 287.866438 
L 122.618807 289.295751 
L 124.622847 267.373737 
L 126.626888 275.339335 
L 128.630928 248.533569 
L 130.634968 277.329599 
L 132.639009 282.367993 
L 134.643049 267.957848 
L 136.64709 269.970931 
L 138.65113 275.145668 
L 140.65517 238.976937 
L 142.659211 274.682794 
L 144.663251 282.405295 
L 146.667292 281.329211 
L 148.671332 215.882034 
L 150.675372 109.503338 
L 152.679413 230.711233 
L 154.683453 254.793454 
L 156.687494 259.263672 
L 158.691534 250.570134 
L 160.695574 278.292663 
L 162.699615 279.351791 
L 164.703655 273.486859 
L 166.707696 270.643328 
L 168.711736 288.449369 
L 170.715777 280.930029 
L 172.719817 262.604895 
L 174.723857 221.16253 
L 176.727898 108.180578 
L 178.731938 221.896187 
L 180.735979 187.856588 
L 182.740019 228.165746 
L 184.744059 210.744638 
L 186.7481 121.929257 
L 188.75214 215.479642 
L 190.756181 173.746986 
L 192.760221 220.479066 
L 194.764261 130.862622 
L 196.768302 104.980886 
L 198.772342 212.903982 
L 200.776383 226.076548 
L 202.780423 145.7742 
L 204.784463 250.272165 
L 206.788504 209.833481 
L 208.792544 131.8422 
L 210.796585 156.426744 
L 212.800625 244.644983 
L 214.804665 270.8244 
L 216.808706 260.273189 
L 218.812746 243.82543 
L 220.816787 263.567586 
L 222.820827 253.586407 
L 224.824867 267.72172 
L 226.828908 273.591095 
L 228.832948 263.230066 
L 230.836989 276.859033 
L 232.841029 260.910804 
L 234.845069 277.521136 
L 236.84911 282.54742 
L 238.85315 265.457846 
L 240.857191 263.715911 
L 242.861231 280.590267 
L 244.865271 279.793504 
L 246.869312 267.314829 
L 248.873352 234.335616 
L 250.877393 206.45922 
L 252.881433 263.26753 
L 254.885473 272.068034 
L 256.889514 252.075285 
L 258.893554 254.893824 
L 260.897595 251.339618 
L 262.901635 260.078492 
L 264.905676 214.418118 
L 266.909716 221.797723 
L 268.913756 249.843427 
L 270.917797 275.987292 
L 274.925878 291.910109 
L 276.929918 280.777735 
L 278.933958 281.113183 
L 280.937999 292.679159 
L 282.942039 285.422315 
L 284.94608 255.486777 
L 286.95012 287.642856 
L 290.958201 276.812766 
L 292.962241 275.465093 
L 294.966282 273.922212 
L 296.970322 234.744582 
L 298.974362 246.659499 
L 300.978403 266.390679 
L 302.982443 282.194689 
L 304.986484 290.223003 
L 306.990524 285.692212 
L 308.994564 289.067575 
L 313.002645 270.732393 
L 315.006686 282.252694 
L 317.010726 273.372718 
L 319.014766 291.9446 
L 321.018807 291.982382 
L 323.022847 282.962804 
L 325.026888 291.678983 
L 327.030928 289.891088 
L 329.034968 281.61371 
L 331.039009 291.855788 
L 333.043049 292.866091 
L 335.04709 290.480101 
L 339.05517 269.282695 
L 341.059211 218.181522 
L 343.063251 56.97449 
L 345.067292 274.245941 
L 347.071332 245.952705 
L 349.075372 255.408722 
L 351.079413 253.459407 
L 353.083453 261.161165 
L 355.087494 242.545333 
L 357.091534 243.644035 
L 359.095574 222.031794 
L 361.099615 281.439954 
L 363.103655 264.375685 
L 365.107696 274.610235 
L 367.111736 286.302268 
L 369.115777 278.242989 
L 371.119817 284.186471 
L 373.123857 272.436283 
L 375.127898 269.523794 
L 375.127898 269.523794 
" style="fill:none;stroke:#decbe4;stroke-linecap:square;stroke-width:1.5;"/>
   </g>
   <g id="patch_3">
    <path d="M 34.240625 310.99049 
L 34.240625 44.87849 
" style="fill:none;stroke:#000000;stroke-linecap:square;stroke-linejoin:miter;stroke-width:0.8;"/>
   </g>
   <g id="patch_4">
    <path d="M 391.360625 310.99049 
L 391.360625 44.87849 
" style="fill:none;stroke:#000000;stroke-linecap:square;stroke-linejoin:miter;stroke-width:0.8;"/>
   </g>
   <g id="patch_5">
    <path d="M 34.240625 310.99049 
L 391.360625 310.99049 
" style="fill:none;stroke:#000000;stroke-linecap:square;stroke-linejoin:miter;stroke-width:0.8;"/>
   </g>
   <g id="patch_6">
    <path d="M 34.240625 44.87849 
L 391.360625 44.87849 
" style="fill:none;stroke:#000000;stroke-linecap:square;stroke-linejoin:miter;stroke-width:0.8;"/>
   </g>
   <g id="legend_1">
    <g id="patch_7">
     <path d="M 36.240625 39.55625 
L 389.360625 39.55625 
Q 391.360625 39.55625 391.360625 37.55625 
L 391.360625 9.2 
Q 391.360625 7.2 389.360625 7.2 
L 36.240625 7.2 
Q 34.240625 7.2 34.240625 9.2 
L 34.240625 37.55625 
Q 34.240625 39.55625 36.240625 39.55625 
z
" style="fill:#ffffff;opacity:0.8;stroke:#cccccc;stroke-linejoin:miter;"/>
    </g>
    <g id="line2d_188">
     <path d="M 38.240625 15.298437 
L 58.240625 15.298437 
" style="fill:none;stroke:#377eb8;stroke-linecap:square;stroke-width:1.5;"/>
    </g>
    <g id="line2d_189"/>
    <g id="text_26">
     <!-- Group M RMS-LODR -->
     <defs>
      <path d="M 59.515625 10.40625 
L 59.515625 29.984375 
L 43.40625 29.984375 
L 43.40625 38.09375 
L 69.28125 38.09375 
L 69.28125 6.78125 
Q 63.578125 2.734375 56.6875 0.65625 
Q 49.8125 -1.421875 42 -1.421875 
Q 24.90625 -1.421875 15.25 8.5625 
Q 5.609375 18.5625 5.609375 36.375 
Q 5.609375 54.25 15.25 64.234375 
Q 24.90625 74.21875 42 74.21875 
Q 49.125 74.21875 55.546875 72.453125 
Q 61.96875 70.703125 67.390625 67.28125 
L 67.390625 56.78125 
Q 61.921875 61.421875 55.765625 63.765625 
Q 49.609375 66.109375 42.828125 66.109375 
Q 29.4375 66.109375 22.71875 58.640625 
Q 16.015625 51.171875 16.015625 36.375 
Q 16.015625 21.625 22.71875 14.15625 
Q 29.4375 6.6875 42.828125 6.6875 
Q 48.046875 6.6875 52.140625 7.59375 
Q 56.25 8.5 59.515625 10.40625 
z
" id="DejaVuSans-71"/>
      <path d="M 30.609375 48.390625 
Q 23.390625 48.390625 19.1875 42.75 
Q 14.984375 37.109375 14.984375 27.296875 
Q 14.984375 17.484375 19.15625 11.84375 
Q 23.34375 6.203125 30.609375 6.203125 
Q 37.796875 6.203125 41.984375 11.859375 
Q 46.1875 17.53125 46.1875 27.296875 
Q 46.1875 37.015625 41.984375 42.703125 
Q 37.796875 48.390625 30.609375 48.390625 
z
M 30.609375 56 
Q 42.328125 56 49.015625 48.375 
Q 55.71875 40.765625 55.71875 27.296875 
Q 55.71875 13.875 49.015625 6.21875 
Q 42.328125 -1.421875 30.609375 -1.421875 
Q 18.84375 -1.421875 12.171875 6.21875 
Q 5.515625 13.875 5.515625 27.296875 
Q 5.515625 40.765625 12.171875 48.375 
Q 18.84375 56 30.609375 56 
z
" id="DejaVuSans-111"/>
      <path d="M 18.109375 8.203125 
L 18.109375 -20.796875 
L 9.078125 -20.796875 
L 9.078125 54.6875 
L 18.109375 54.6875 
L 18.109375 46.390625 
Q 20.953125 51.265625 25.265625 53.625 
Q 29.59375 56 35.59375 56 
Q 45.5625 56 51.78125 48.09375 
Q 58.015625 40.1875 58.015625 27.296875 
Q 58.015625 14.40625 51.78125 6.484375 
Q 45.5625 -1.421875 35.59375 -1.421875 
Q 29.59375 -1.421875 25.265625 0.953125 
Q 20.953125 3.328125 18.109375 8.203125 
z
M 48.6875 27.296875 
Q 48.6875 37.203125 44.609375 42.84375 
Q 40.53125 48.484375 33.40625 48.484375 
Q 26.265625 48.484375 22.1875 42.84375 
Q 18.109375 37.203125 18.109375 27.296875 
Q 18.109375 17.390625 22.1875 11.75 
Q 26.265625 6.109375 33.40625 6.109375 
Q 40.53125 6.109375 44.609375 11.75 
Q 48.6875 17.390625 48.6875 27.296875 
z
" id="DejaVuSans-112"/>
     </defs>
     <g transform="translate(66.240625 18.798437)scale(0.1 -0.1)">
      <use xlink:href="#DejaVuSans-71"/>
      <use x="77.490234" xlink:href="#DejaVuSans-114"/>
      <use x="118.572266" xlink:href="#DejaVuSans-111"/>
      <use x="179.753906" xlink:href="#DejaVuSans-117"/>
      <use x="243.132812" xlink:href="#DejaVuSans-112"/>
      <use x="306.609375" xlink:href="#DejaVuSans-32"/>
      <use x="338.396484" xlink:href="#DejaVuSans-77"/>
      <use x="424.675781" xlink:href="#DejaVuSans-32"/>
      <use x="456.462891" xlink:href="#DejaVuSans-82"/>
      <use x="525.945312" xlink:href="#DejaVuSans-77"/>
      <use x="612.224609" xlink:href="#DejaVuSans-83"/>
      <use x="675.701172" xlink:href="#DejaVuSans-45"/>
      <use x="711.785156" xlink:href="#DejaVuSans-76"/>
      <use x="767.451172" xlink:href="#DejaVuSans-79"/>
      <use x="846.162109" xlink:href="#DejaVuSans-68"/>
      <use x="923.164062" xlink:href="#DejaVuSans-82"/>
     </g>
    </g>
    <g id="line2d_190">
     <path d="M 38.240625 29.976562 
L 58.240625 29.976562 
" style="fill:none;stroke:#4daf4a;stroke-linecap:square;stroke-width:1.5;"/>
    </g>
    <g id="line2d_191"/>
    <g id="text_27">
     <!-- Group N RMS-LODR -->
     <g transform="translate(66.240625 33.476562)scale(0.1 -0.1)">
      <use xlink:href="#DejaVuSans-71"/>
      <use x="77.490234" xlink:href="#DejaVuSans-114"/>
      <use x="118.572266" xlink:href="#DejaVuSans-111"/>
      <use x="179.753906" xlink:href="#DejaVuSans-117"/>
      <use x="243.132812" xlink:href="#DejaVuSans-112"/>
      <use x="306.609375" xlink:href="#DejaVuSans-32"/>
      <use x="338.396484" xlink:href="#DejaVuSans-78"/>
      <use x="413.201172" xlink:href="#DejaVuSans-32"/>
      <use x="444.988281" xlink:href="#DejaVuSans-82"/>
      <use x="514.470703" xlink:href="#DejaVuSans-77"/>
      <use x="600.75" xlink:href="#DejaVuSans-83"/>
      <use x="664.226562" xlink:href="#DejaVuSans-45"/>
      <use x="700.310547" xlink:href="#DejaVuSans-76"/>
      <use x="755.976562" xlink:href="#DejaVuSans-79"/>
      <use x="834.6875" xlink:href="#DejaVuSans-68"/>
      <use x="911.689453" xlink:href="#DejaVuSans-82"/>
     </g>
    </g>
    <g id="line2d_192">
     <path d="M 246.230938 15.298437 
L 266.230938 15.298437 
" style="fill:none;stroke:#decbe4;stroke-linecap:square;stroke-width:1.5;"/>
    </g>
    <g id="line2d_193"/>
    <g id="text_28">
     <!-- Inter-group RMS-LODR -->
     <defs>
      <path d="M 9.8125 72.90625 
L 19.671875 72.90625 
L 19.671875 0 
L 9.8125 0 
z
" id="DejaVuSans-73"/>
      <path d="M 54.890625 33.015625 
L 54.890625 0 
L 45.90625 0 
L 45.90625 32.71875 
Q 45.90625 40.484375 42.875 44.328125 
Q 39.84375 48.1875 33.796875 48.1875 
Q 26.515625 48.1875 22.3125 43.546875 
Q 18.109375 38.921875 18.109375 30.90625 
L 18.109375 0 
L 9.078125 0 
L 9.078125 54.6875 
L 18.109375 54.6875 
L 18.109375 46.1875 
Q 21.34375 51.125 25.703125 53.5625 
Q 30.078125 56 35.796875 56 
Q 45.21875 56 50.046875 50.171875 
Q 54.890625 44.34375 54.890625 33.015625 
z
" id="DejaVuSans-110"/>
      <path d="M 18.3125 70.21875 
L 18.3125 54.6875 
L 36.8125 54.6875 
L 36.8125 47.703125 
L 18.3125 47.703125 
L 18.3125 18.015625 
Q 18.3125 11.328125 20.140625 9.421875 
Q 21.96875 7.515625 27.59375 7.515625 
L 36.8125 7.515625 
L 36.8125 0 
L 27.59375 0 
Q 17.1875 0 13.234375 3.875 
Q 9.28125 7.765625 9.28125 18.015625 
L 9.28125 47.703125 
L 2.6875 47.703125 
L 2.6875 54.6875 
L 9.28125 54.6875 
L 9.28125 70.21875 
z
" id="DejaVuSans-116"/>
      <path d="M 45.40625 27.984375 
Q 45.40625 37.75 41.375 43.109375 
Q 37.359375 48.484375 30.078125 48.484375 
Q 22.859375 48.484375 18.828125 43.109375 
Q 14.796875 37.75 14.796875 27.984375 
Q 14.796875 18.265625 18.828125 12.890625 
Q 22.859375 7.515625 30.078125 7.515625 
Q 37.359375 7.515625 41.375 12.890625 
Q 45.40625 18.265625 45.40625 27.984375 
z
M 54.390625 6.78125 
Q 54.390625 -7.171875 48.1875 -13.984375 
Q 42 -20.796875 29.203125 -20.796875 
Q 24.46875 -20.796875 20.265625 -20.09375 
Q 16.0625 -19.390625 12.109375 -17.921875 
L 12.109375 -9.1875 
Q 16.0625 -11.328125 19.921875 -12.34375 
Q 23.78125 -13.375 27.78125 -13.375 
Q 36.625 -13.375 41.015625 -8.765625 
Q 45.40625 -4.15625 45.40625 5.171875 
L 45.40625 9.625 
Q 42.625 4.78125 38.28125 2.390625 
Q 33.9375 0 27.875 0 
Q 17.828125 0 11.671875 7.65625 
Q 5.515625 15.328125 5.515625 27.984375 
Q 5.515625 40.671875 11.671875 48.328125 
Q 17.828125 56 27.875 56 
Q 33.9375 56 38.28125 53.609375 
Q 42.625 51.21875 45.40625 46.390625 
L 45.40625 54.6875 
L 54.390625 54.6875 
z
" id="DejaVuSans-103"/>
     </defs>
     <g transform="translate(274.230938 18.798437)scale(0.1 -0.1)">
      <use xlink:href="#DejaVuSans-73"/>
      <use x="29.492188" xlink:href="#DejaVuSans-110"/>
      <use x="92.871094" xlink:href="#DejaVuSans-116"/>
      <use x="132.080078" xlink:href="#DejaVuSans-101"/>
      <use x="193.603516" xlink:href="#DejaVuSans-114"/>
      <use x="234.623047" xlink:href="#DejaVuSans-45"/>
      <use x="270.707031" xlink:href="#DejaVuSans-103"/>
      <use x="334.183594" xlink:href="#DejaVuSans-114"/>
      <use x="375.265625" xlink:href="#DejaVuSans-111"/>
      <use x="436.447266" xlink:href="#DejaVuSans-117"/>
      <use x="499.826172" xlink:href="#DejaVuSans-112"/>
      <use x="563.302734" xlink:href="#DejaVuSans-32"/>
      <use x="595.089844" xlink:href="#DejaVuSans-82"/>
      <use x="664.572266" xlink:href="#DejaVuSans-77"/>
      <use x="750.851562" xlink:href="#DejaVuSans-83"/>
      <use x="814.328125" xlink:href="#DejaVuSans-45"/>
      <use x="850.412109" xlink:href="#DejaVuSans-76"/>
      <use x="906.078125" xlink:href="#DejaVuSans-79"/>
      <use x="984.789062" xlink:href="#DejaVuSans-68"/>
      <use x="1061.791016" xlink:href="#DejaVuSans-82"/>
     </g>
    </g>
   </g>
  </g>
 </g>
 <defs>
  <clipPath id="pa04999c797">
   <rect height="266.112" width="357.12" x="34.240625" y="44.87849"/>
  </clipPath>
 </defs>
</svg>
