<?xml version="1.0" encoding="utf-8" standalone="no"?>
<!DOCTYPE svg PUBLIC "-//W3C//DTD SVG 1.1//EN"
  "http://www.w3.org/Graphics/SVG/1.1/DTD/svg11.dtd">
<!-- Created with matplotlib (https://matplotlib.org/) -->
<svg height="303.512365pt" version="1.1" viewBox="0 0 371.52 303.512365" width="371.52pt" xmlns="http://www.w3.org/2000/svg" xmlns:xlink="http://www.w3.org/1999/xlink">
 <defs>
  <style type="text/css">
*{stroke-linecap:butt;stroke-linejoin:round;}
  </style>
 </defs>
 <g id="figure_1">
  <g id="patch_1">
   <path d="M 0 303.512365 
L 371.52 303.512365 
L 371.52 0 
L 0 0 
z
" style="fill:#ffffff;"/>
  </g>
  <g id="axes_1">
   <g id="line2d_1">
    <defs>
     <path d="M 0 6 
C 1.591219 6 3.117479 5.367802 4.242641 4.242641 
C 5.367802 3.117479 6 1.591219 6 0 
C 6 -1.591219 5.367802 -3.117479 4.242641 -4.242641 
C 3.117479 -5.367802 1.591219 -6 0 -6 
C -1.591219 -6 -3.117479 -5.367802 -4.242641 -4.242641 
C -5.367802 -3.117479 -6 -1.591219 -6 0 
C -6 1.591219 -5.367802 3.117479 -4.242641 4.242641 
C -3.117479 5.367802 -1.591219 6 0 6 
z
" id="mdf867cee40" style="stroke:#1f77b4;"/>
    </defs>
    <g clip-path="url(#p22196f8ecb)">
     <use style="fill:#1f77b4;stroke:#1f77b4;" x="329.548633" xlink:href="#mdf867cee40" y="219.673435"/>
     <use style="fill:#1f77b4;stroke:#1f77b4;" x="162.103405" xlink:href="#mdf867cee40" y="181.484052"/>
     <use style="fill:#1f77b4;stroke:#1f77b4;" x="94.293858" xlink:href="#mdf867cee40" y="199.503217"/>
     <use style="fill:#1f77b4;stroke:#1f77b4;" x="281.802557" xlink:href="#mdf867cee40" y="145.323952"/>
     <use style="fill:#1f77b4;stroke:#1f77b4;" x="195.105388" xlink:href="#mdf867cee40" y="48.589987"/>
     <use style="fill:#1f77b4;stroke:#1f77b4;" x="23.432727" xlink:href="#mdf867cee40" y="126.766085"/>
     <use style="fill:#1f77b4;stroke:#1f77b4;" x="28.785539" xlink:href="#mdf867cee40" y="104.602406"/>
     <use style="fill:#1f77b4;stroke:#1f77b4;" x="265.806918" xlink:href="#mdf867cee40" y="200.452097"/>
     <use style="fill:#1f77b4;stroke:#1f77b4;" x="271.176814" xlink:href="#mdf867cee40" y="264.008544"/>
     <use style="fill:#1f77b4;stroke:#1f77b4;" x="207.390691" xlink:href="#mdf867cee40" y="221.371017"/>
     <use style="fill:#1f77b4;stroke:#1f77b4;" x="180.231828" xlink:href="#mdf867cee40" y="115.572388"/>
     <use style="fill:#1f77b4;stroke:#1f77b4;" x="241.064276" xlink:href="#mdf867cee40" y="100.959279"/>
     <use style="fill:#1f77b4;stroke:#1f77b4;" x="201.149633" xlink:href="#mdf867cee40" y="284.216365"/>
     <use style="fill:#1f77b4;stroke:#1f77b4;" x="318.013081" xlink:href="#mdf867cee40" y="90.665009"/>
     <use style="fill:#1f77b4;stroke:#1f77b4;" x="119.73667" xlink:href="#mdf867cee40" y="136.57914"/>
    </g>
   </g>
   <g id="line2d_2">
    <defs>
     <path d="M 0 6 
C 1.591219 6 3.117479 5.367802 4.242641 4.242641 
C 5.367802 3.117479 6 1.591219 6 0 
C 6 -1.591219 5.367802 -3.117479 4.242641 -4.242641 
C 3.117479 -5.367802 1.591219 -6 0 -6 
C -1.591219 -6 -3.117479 -5.367802 -4.242641 -4.242641 
C -5.367802 -3.117479 -6 -1.591219 -6 0 
C -6 1.591219 -5.367802 3.117479 -4.242641 4.242641 
C -3.117479 5.367802 -1.591219 6 0 6 
z
" id="mf73a95299d" style="stroke:#ff7f0e;"/>
    </defs>
    <g clip-path="url(#p22196f8ecb)">
     <use style="fill:#ff7f0e;stroke:#ff7f0e;" x="266.866487" xlink:href="#mf73a95299d" y="42.296365"/>
     <use style="fill:#ff7f0e;stroke:#ff7f0e;" x="129.262852" xlink:href="#mf73a95299d" y="70.172122"/>
     <use style="fill:#ff7f0e;stroke:#ff7f0e;" x="348.087273" xlink:href="#mf73a95299d" y="154.511529"/>
     <use style="fill:#ff7f0e;stroke:#ff7f0e;" x="219.41586" xlink:href="#mf73a95299d" y="159.800973"/>
     <use style="fill:#ff7f0e;stroke:#ff7f0e;" x="140.565507" xlink:href="#mf73a95299d" y="247.663574"/>
    </g>
   </g>
   <g id="legend_1">
    <g id="patch_2">
     <path d="M 9.2 24.878125 
L 362.32 24.878125 
Q 364.32 24.878125 364.32 22.878125 
L 364.32 9.2 
Q 364.32 7.2 362.32 7.2 
L 9.2 7.2 
Q 7.2 7.2 7.2 9.2 
L 7.2 22.878125 
Q 7.2 24.878125 9.2 24.878125 
z
" style="fill:#ffffff;opacity:0.8;stroke:#cccccc;stroke-linejoin:miter;"/>
    </g>
    <g id="line2d_3"/>
    <g id="line2d_4">
     <g>
      <use style="fill:#1f77b4;stroke:#1f77b4;" x="21.2" xlink:href="#mdf867cee40" y="15.298437"/>
     </g>
    </g>
    <g id="text_1">
     <!-- 0 -->
     <defs>
      <path d="M 31.78125 66.40625 
Q 24.171875 66.40625 20.328125 58.90625 
Q 16.5 51.421875 16.5 36.375 
Q 16.5 21.390625 20.328125 13.890625 
Q 24.171875 6.390625 31.78125 6.390625 
Q 39.453125 6.390625 43.28125 13.890625 
Q 47.125 21.390625 47.125 36.375 
Q 47.125 51.421875 43.28125 58.90625 
Q 39.453125 66.40625 31.78125 66.40625 
z
M 31.78125 74.21875 
Q 44.046875 74.21875 50.515625 64.515625 
Q 56.984375 54.828125 56.984375 36.375 
Q 56.984375 17.96875 50.515625 8.265625 
Q 44.046875 -1.421875 31.78125 -1.421875 
Q 19.53125 -1.421875 13.0625 8.265625 
Q 6.59375 17.96875 6.59375 36.375 
Q 6.59375 54.828125 13.0625 64.515625 
Q 19.53125 74.21875 31.78125 74.21875 
z
" id="DejaVuSans-48"/>
     </defs>
     <g transform="translate(39.2 18.798437)scale(0.1 -0.1)">
      <use xlink:href="#DejaVuSans-48"/>
     </g>
    </g>
    <g id="line2d_5"/>
    <g id="line2d_6">
     <g>
      <use style="fill:#ff7f0e;stroke:#ff7f0e;" x="335.9575" xlink:href="#mf73a95299d" y="15.298437"/>
     </g>
    </g>
    <g id="text_2">
     <!-- 1 -->
     <defs>
      <path d="M 12.40625 8.296875 
L 28.515625 8.296875 
L 28.515625 63.921875 
L 10.984375 60.40625 
L 10.984375 69.390625 
L 28.421875 72.90625 
L 38.28125 72.90625 
L 38.28125 8.296875 
L 54.390625 8.296875 
L 54.390625 0 
L 12.40625 0 
z
" id="DejaVuSans-49"/>
     </defs>
     <g transform="translate(353.9575 18.798437)scale(0.1 -0.1)">
      <use xlink:href="#DejaVuSans-49"/>
     </g>
    </g>
   </g>
  </g>
 </g>
 <defs>
  <clipPath id="p22196f8ecb">
   <rect height="266.112" width="357.12" x="7.2" y="30.200365"/>
  </clipPath>
 </defs>
</svg>
